<svg xmlns="http://www.w3.org/2000/svg" xmlns:xlink="http://www.w3.org/1999/xlink" width="28.734" height="31.336" viewBox="0 0 28.734 31.336">
  <defs>
    <clipPath id="clip-path">
      <rect id="Rect치ngulo_23152" data-name="Rect치ngulo 23152" width="28.734" height="31.336" fill="none"/>
    </clipPath>
  </defs>
  <g id="Grupo_39393" data-name="Grupo 39393" transform="translate(0 0)">
    <g id="Grupo_39392" data-name="Grupo 39392" transform="translate(0 0)" clip-path="url(#clip-path)">
      <path id="Trazado_106424" data-name="Trazado 106424" d="M27.645,0V.483a.088.088,0,0,1-.088.088H25.908a.089.089,0,0,1-.089-.088V0H2.914V.483a.089.089,0,0,1-.088.088H1.175A.089.089,0,0,1,1.087.483V0H0V31.337H1.087v-.484a.089.089,0,0,1,.089-.088h1.65a.089.089,0,0,1,.088.088v.484H25.819v-.484a.089.089,0,0,1,.089-.088h1.649a.088.088,0,0,1,.088.088v.484h1.088V0ZM2.914,28.97a.089.089,0,0,1-.088.089H1.175a.089.089,0,0,1-.089-.089V28a.089.089,0,0,1,.089-.088h1.65A.089.089,0,0,1,2.914,28Zm0-2.848a.09.09,0,0,1-.088.088H1.175a.089.089,0,0,1-.089-.088v-.966a.088.088,0,0,1,.089-.088h1.65a.088.088,0,0,1,.088.088Zm0-2.85a.089.089,0,0,1-.088.09H1.175a.089.089,0,0,1-.089-.09v-.965a.089.089,0,0,1,.089-.09h1.65a.089.089,0,0,1,.088.09Zm0-2.848a.089.089,0,0,1-.088.088H1.175a.089.089,0,0,1-.089-.088v-.966a.088.088,0,0,1,.089-.089h1.65a.089.089,0,0,1,.088.089Zm0-2.849a.088.088,0,0,1-.088.088H1.175a.088.088,0,0,1-.089-.088V16.61a.089.089,0,0,1,.089-.089h1.65a.089.089,0,0,1,.088.089Zm0-2.848a.089.089,0,0,1-.088.088H1.175a.089.089,0,0,1-.089-.088v-.966a.089.089,0,0,1,.089-.088h1.65a.089.089,0,0,1,.088.088Zm0-2.848a.088.088,0,0,1-.088.087H1.175a.087.087,0,0,1-.089-.087v-.966a.088.088,0,0,1,.089-.088h1.65a.088.088,0,0,1,.088.088Zm0-2.85a.089.089,0,0,1-.088.09H1.175a.089.089,0,0,1-.089-.09V8.064a.088.088,0,0,1,.089-.089h1.65a.089.089,0,0,1,.088.089Zm0-2.848a.089.089,0,0,1-.088.088H1.175a.089.089,0,0,1-.089-.088V5.215a.089.089,0,0,1,.089-.089h1.65a.089.089,0,0,1,.088.089Zm0-2.849a.088.088,0,0,1-.088.088H1.175a.088.088,0,0,1-.089-.088V2.366a.089.089,0,0,1,.089-.089h1.65a.089.089,0,0,1,.088.089ZM27.645,28.97a.089.089,0,0,1-.088.089H25.908a.089.089,0,0,1-.089-.089V28a.089.089,0,0,1,.089-.088h1.649a.088.088,0,0,1,.088.088Zm0-2.848a.089.089,0,0,1-.088.088H25.908a.089.089,0,0,1-.089-.088v-.966a.088.088,0,0,1,.089-.088h1.649a.088.088,0,0,1,.088.088Zm0-2.85a.089.089,0,0,1-.088.09H25.908a.089.089,0,0,1-.089-.09v-.965a.089.089,0,0,1,.089-.09h1.649a.089.089,0,0,1,.088.09Zm0-2.848a.088.088,0,0,1-.088.088H25.908a.089.089,0,0,1-.089-.088v-.966a.088.088,0,0,1,.089-.089h1.649a.088.088,0,0,1,.088.089Zm0-2.849a.088.088,0,0,1-.088.088H25.908a.088.088,0,0,1-.089-.088V16.61a.089.089,0,0,1,.089-.089h1.649a.089.089,0,0,1,.088.089Zm0-2.848a.088.088,0,0,1-.088.088H25.908a.089.089,0,0,1-.089-.088v-.966a.089.089,0,0,1,.089-.088h1.649a.088.088,0,0,1,.088.088Zm0-2.848a.087.087,0,0,1-.088.087H25.908a.087.087,0,0,1-.089-.087v-.966a.088.088,0,0,1,.089-.088h1.649a.088.088,0,0,1,.088.088Zm0-2.85a.089.089,0,0,1-.088.09H25.908a.089.089,0,0,1-.089-.09V8.064a.088.088,0,0,1,.089-.089h1.649a.088.088,0,0,1,.088.089Zm0-2.848a.088.088,0,0,1-.088.088H25.908a.089.089,0,0,1-.089-.088V5.215a.089.089,0,0,1,.089-.089h1.649a.089.089,0,0,1,.088.089Zm0-2.849a.088.088,0,0,1-.088.088H25.908a.088.088,0,0,1-.089-.088V2.366a.089.089,0,0,1,.089-.089h1.649a.089.089,0,0,1,.088.089Z" transform="translate(0 0)" fill="#d7eeea"/>
      <rect id="Rect치ngulo_23151" data-name="Rect치ngulo 23151" width="20.521" height="12.836" rx="1.176" transform="translate(4.106 9.249)" fill="#ffc300"/>
      <path id="Trazado_106425" data-name="Trazado 106425" d="M24.379,29.446H5.848a.994.994,0,0,0-1,1v5.423H25.374V30.441a1,1,0,0,0-1-1" transform="translate(-0.746 -4.528)" fill="#ff6d3a"/>
      <path id="Trazado_106426" data-name="Trazado 106426" d="M4.853,0V5.423a.994.994,0,0,0,1,1H24.379a1,1,0,0,0,1-1V0Z" transform="translate(-0.746 0)" fill="#ff6d3a"/>
    </g>
  </g>
</svg>
