<svg id="Grupo_39370" data-name="Grupo 39370" xmlns="http://www.w3.org/2000/svg" xmlns:xlink="http://www.w3.org/1999/xlink" width="35.152" height="25.287" viewBox="0 0 35.152 25.287">
  <defs>
    <clipPath id="clip-path">
      <rect id="Rectángulo_23109" data-name="Rectángulo 23109" width="35.152" height="25.287" fill="none"/>
    </clipPath>
  </defs>
  <g id="Grupo_39369" data-name="Grupo 39369" clip-path="url(#clip-path)">
    <path id="Trazado_106312" data-name="Trazado 106312" d="M0,135.026a17.466,17.466,0,0,0,1.336,6.73l.395.951,6.979-2.9-.4-.952a10,10,0,0,1,.628-8.915l-2.72-2.691-3.8-1.145A17.47,17.47,0,0,0,0,135.026Z" transform="translate(0 -117.45)" fill="#7bc5b0"/>
    <path id="Trazado_106313" data-name="Trazado 106313" d="M259.1,5.112A17.468,17.468,0,0,0,246.687,0h0L246,3.551l.687,4a9.944,9.944,0,0,1,6.98,2.836,10.126,10.126,0,0,1,1.659,2.1L259.708,11l2.142-2.351A17.59,17.59,0,0,0,259.1,5.112Z" transform="translate(-229.111)" fill="#ff7a63"/>
    <path id="Trazado_106314" data-name="Trazado 106314" d="M50.4,0a17.462,17.462,0,0,0-12.4,5.163A17.682,17.682,0,0,0,35.3,8.658l6.518,3.836a10.126,10.126,0,0,1,1.521-1.967,9.968,9.968,0,0,1,6.818-2.971c.1,0,.2,0,.3,0V0Z" transform="translate(-32.873)" fill="#fdd278"/>
    <path id="Trazado_106315" data-name="Trazado 106315" d="M388.359,126.018l-6.524,3.839a10.026,10.026,0,0,1,.621,8.923l-.395.948,6.965,2.926.4-.953a17.671,17.671,0,0,0-1.065-15.683" transform="translate(-355.62 -117.366)" fill="#ff6058"/>
    <path id="Trazado_106316" data-name="Trazado 106316" d="M246.687,142.342,246,149.693l.687,7.705a7.528,7.528,0,0,0,0-15.056" transform="translate(-229.111 -132.569)" fill="#b9b9be"/>
    <path id="Trazado_106317" data-name="Trazado 106317" d="M146.35,149.87a7.537,7.537,0,0,0,7.528,7.528V142.342a7.537,7.537,0,0,0-7.528,7.528" transform="translate(-136.302 -132.569)" fill="#d3d3d8"/>
    <path id="Trazado_106318" data-name="Trazado 106318" d="M247.489,202.816a3.465,3.465,0,0,0-.8-.107L246,205.794l.687,3.682a3.469,3.469,0,0,0,.8-.107l12.881-3.277Z" transform="translate(-229.111 -188.792)" fill="#474f54"/>
    <path id="Trazado_106319" data-name="Trazado 106319" d="M205.329,206.088a3.445,3.445,0,0,0,3.479,3.384V202.7a3.468,3.468,0,0,0-3.479,3.384" transform="translate(-191.232 -188.788)" fill="#5a5f64"/>
  </g>
</svg>
