<svg id="vod" xmlns="http://www.w3.org/2000/svg" width="35.274" height="35.274" viewBox="0 0 35.274 35.274">
  <path id="Trazado_106574" data-name="Trazado 106574" d="M40.776,31.613H8.465a.965.965,0,0,1-.965-.965V8.465A.965.965,0,0,1,8.465,7.5H40.776a.965.965,0,0,1,.965.965V30.649A.965.965,0,0,1,40.776,31.613Zm0,0" transform="translate(-6.983 -6.983)" fill="#5788a1"/>
  <path id="Trazado_106575" data-name="Trazado 106575" d="M462.567,7.5H460.5a.965.965,0,0,1,.965.965V30.649a.965.965,0,0,1-.965.965h2.067a.965.965,0,0,0,.965-.965V8.465A.965.965,0,0,0,462.567,7.5Zm0,0" transform="translate(-428.774 -6.983)" fill="#507d94"/>
  <path id="Trazado_106576" data-name="Trazado 106576" d="M37.5,57.2V37.776a.275.275,0,0,1,.276-.276H67.332a.275.275,0,0,1,.276.276V57.2a.275.275,0,0,1-.276.276H37.776A.275.275,0,0,1,37.5,57.2Zm0,0" transform="translate(-34.916 -34.916)" fill="#80d8ff"/>
  <path id="Trazado_106577" data-name="Trazado 106577" d="M442.567,37.5H440.5a.275.275,0,0,1,.276.276V57.2a.275.275,0,0,1-.276.276h2.067a.275.275,0,0,0,.276-.276V37.776A.275.275,0,0,0,442.567,37.5Zm0,0" transform="translate(-410.152 -34.916)" fill="#40c4ff"/>
  <path id="Trazado_106578" data-name="Trazado 106578" d="M406.033,360.256A1.033,1.033,0,0,1,405,359.222V357.5h2.067v1.722A1.033,1.033,0,0,1,406.033,360.256Zm0,0" transform="translate(-377.097 -332.87)" fill="#5788a1"/>
  <path id="Trazado_106579" data-name="Trazado 106579" d="M78.033,360.256A1.033,1.033,0,0,1,77,359.222V357.5h2.067v1.722A1.033,1.033,0,0,1,78.033,360.256Zm0,0" transform="translate(-71.695 -332.87)" fill="#5788a1"/>
  <path id="Trazado_106580" data-name="Trazado 106580" d="M100,78h9.554v5.65H100Zm0,0" transform="translate(-93.11 -72.626)" fill="#ff4b22"/>
  <path id="Trazado_106581" data-name="Trazado 106581" d="M273.332,78h9.554v5.65h-9.554Zm0,0" transform="translate(-254.501 -72.626)" fill="#40c4ff"/>
  <path id="Trazado_106582" data-name="Trazado 106582" d="M100,206h9.554v5.65H100Zm0,0" transform="translate(-93.11 -191.804)" fill="#ffd740"/>
  <path id="Trazado_106583" data-name="Trazado 106583" d="M273.332,206h9.554v5.65h-9.554Zm0,0" transform="translate(-254.501 -191.804)" fill="#d4e157"/>
  <path id="Trazado_106584" data-name="Trazado 106584" d="M203.246,273.12h-6.225A1.021,1.021,0,0,1,196,272.1V257.021A1.021,1.021,0,0,1,197.021,256h6.225a1.021,1.021,0,0,1,1.021,1.021V272.1A1.021,1.021,0,0,1,203.246,273.12Zm0,0" transform="translate(-182.497 -238.363)" fill="#ba68c8"/>
  <path id="Trazado_106585" data-name="Trazado 106585" d="M273.247,256H271.18a1.021,1.021,0,0,1,1.021,1.021V272.1a1.021,1.021,0,0,1-1.021,1.021h2.067a1.021,1.021,0,0,0,1.021-1.021V257.021A1.021,1.021,0,0,0,273.247,256Zm0,0" transform="translate(-252.497 -238.363)" fill="#ab47bc"/>
  <path id="Trazado_106586" data-name="Trazado 106586" d="M227.978,382.489a2.239,2.239,0,1,1-2.239-2.239A2.239,2.239,0,0,1,227.978,382.489Zm0,0" transform="translate(-208.102 -354.053)" fill="#e6e6e6"/>
  <path id="Trazado_106587" data-name="Trazado 106587" d="M33.793,0H1.481A1.483,1.483,0,0,0,0,1.481V4.387a.517.517,0,1,0,1.033,0V1.481a.448.448,0,0,1,.448-.448H33.793a.448.448,0,0,1,.448.448V23.666a.448.448,0,0,1-.448.448H22.288V23.08h6.332a.517.517,0,0,0,0-1.033H22.288V20.359h6.1a.517.517,0,0,0,.517-.517V14.192a.517.517,0,0,0-.517-.517H18.831a.517.517,0,0,0-.517.517V17.12H16.96V14.192a.517.517,0,0,0-.517-.517H6.89a.517.517,0,0,0-.517.517v5.649a.517.517,0,0,0,.517.517h6.1v1.688H3.1V3.1H32.174V22.047H30.888a.517.517,0,0,0,0,1.033h1.527a.793.793,0,0,0,.792-.792V2.859a.793.793,0,0,0-.792-.792H2.859a.793.793,0,0,0-.792.792V22.288a.793.793,0,0,0,.792.792H12.987v1.033H1.481a.448.448,0,0,1-.448-.448V6.617A.517.517,0,1,0,0,6.617V23.666a1.483,1.483,0,0,0,1.481,1.481H4.788v1.206a1.55,1.55,0,0,0,3.1,0V25.147h5.1v3.478a.517.517,0,0,0,1.033,0V18.658a.505.505,0,0,1,.5-.5H20.75a.505.505,0,0,1,.5.5V33.737a.505.505,0,0,1-.5.5H14.525a.5.5,0,0,1-.5-.5V30.856a.517.517,0,1,0-1.033,0v2.881a1.539,1.539,0,0,0,1.538,1.538H20.75a1.539,1.539,0,0,0,1.538-1.538v-8.59h5.1v1.206a1.55,1.55,0,0,0,3.1,0V25.147h3.307a1.483,1.483,0,0,0,1.481-1.481V1.481A1.483,1.483,0,0,0,33.793,0ZM6.855,26.352a.517.517,0,1,1-1.033,0V25.147H6.855Zm6.132-7.694v.667H7.406V14.709h8.52V17.12h-1.4A1.539,1.539,0,0,0,12.987,18.658ZM20.75,17.12h-1.4V14.709h8.52v4.616H22.288v-.667A1.539,1.539,0,0,0,20.75,17.12Zm8.7,9.232a.517.517,0,1,1-1.033,0V25.147h1.033Zm0,0"/>
  <path id="Trazado_106588" data-name="Trazado 106588" d="M93.017,70.5a.517.517,0,0,0-.517.517v5.65a.517.517,0,0,0,.517.517h9.554a.517.517,0,0,0,.517-.517v-5.65a.517.517,0,0,0-.517-.517Zm9.037,5.65h-8.52V71.533h8.52Zm0,0" transform="translate(-86.127 -65.643)"/>
  <path id="Trazado_106589" data-name="Trazado 106589" d="M266.349,70.5a.517.517,0,0,0-.517.517v5.65a.517.517,0,0,0,.517.517H275.9a.517.517,0,0,0,.517-.517v-5.65a.517.517,0,0,0-.517-.517Zm9.037,5.65h-8.52V71.533h8.52Zm0,0" transform="translate(-247.517 -65.643)"/>
  <path id="Trazado_106590" data-name="Trazado 106590" d="M218.756,378.262A2.756,2.756,0,1,0,216,375.506,2.759,2.759,0,0,0,218.756,378.262Zm0-4.478a1.722,1.722,0,1,1-1.722,1.722A1.724,1.724,0,0,1,218.756,373.783Zm0,0" transform="translate(-201.119 -347.069)"/>
  <path id="Trazado_106591" data-name="Trazado 106591" d="M219.517,467.5a.517.517,0,0,0,0,1.033h1.1a.517.517,0,1,0,0-1.033Zm0,0" transform="translate(-203.912 -435.291)"/>
  <path id="Trazado_106592" data-name="Trazado 106592" d="M262.517,467.5a.517.517,0,1,0,0,1.033h1.1a.517.517,0,0,0,0-1.033Zm0,0" transform="translate(-243.949 -435.291)"/>
  <path id="Trazado_106593" data-name="Trazado 106593" d="M219.517,276.994h1.1a.517.517,0,1,0,0-1.033h-1.1a.517.517,0,0,0,0,1.033Zm0,0" transform="translate(-203.912 -256.949)"/>
  <path id="Trazado_106594" data-name="Trazado 106594" d="M262.517,276.994h1.1a.517.517,0,0,0,0-1.033h-1.1a.517.517,0,1,0,0,1.033Zm0,0" transform="translate(-243.949 -256.949)"/>
  <path id="Trazado_106595" data-name="Trazado 106595" d="M219.517,307.526h1.1a.517.517,0,0,0,0-1.033h-1.1a.517.517,0,0,0,0,1.033Zm0,0" transform="translate(-203.912 -285.376)"/>
  <path id="Trazado_106596" data-name="Trazado 106596" d="M262.517,307.526h1.1a.517.517,0,0,0,0-1.033h-1.1a.517.517,0,0,0,0,1.033Zm0,0" transform="translate(-243.949 -285.376)"/>
  <path id="Trazado_106597" data-name="Trazado 106597" d="M219.517,338.053h1.1a.517.517,0,0,0,0-1.033h-1.1a.517.517,0,0,0,0,1.033Zm0,0" transform="translate(-203.912 -313.8)"/>
  <path id="Trazado_106598" data-name="Trazado 106598" d="M262.517,338.053h1.1a.517.517,0,0,0,0-1.033h-1.1a.517.517,0,0,0,0,1.033Zm0,0" transform="translate(-243.949 -313.8)"/>
</svg>
