<svg xmlns="http://www.w3.org/2000/svg" xmlns:xlink="http://www.w3.org/1999/xlink" width="32.765" height="30.461" viewBox="0 0 32.765 30.461">
  <defs>
    <clipPath id="clip-path">
      <rect id="Rect치ngulo_23159" data-name="Rect치ngulo 23159" width="32.765" height="30.461" fill="none"/>
    </clipPath>
  </defs>
  <g id="Grupo_39403" data-name="Grupo 39403" transform="translate(0 0)">
    <g id="Grupo_39402" data-name="Grupo 39402" transform="translate(0 0)" clip-path="url(#clip-path)">
      <path id="Trazado_106463" data-name="Trazado 106463" d="M3.583,5.147A3.577,3.577,0,0,0,0,8.73V28.761a3.578,3.578,0,0,0,3.583,3.584h25.6a3.578,3.578,0,0,0,3.583-3.584V8.73a3.577,3.577,0,0,0-3.583-3.583Z" transform="translate(0 -1.884)" fill="#d7deed"/>
      <path id="Trazado_106464" data-name="Trazado 106464" d="M40.607,4.416a1.984,1.984,0,0,1-3.968,0V0h4.032V4.416Z" transform="translate(-13.409 0)" fill="#57606f"/>
      <path id="Trazado_106465" data-name="Trazado 106465" d="M10.866,6.5A1.994,1.994,0,0,1,8.882,4.516V.1h4.032V4.516A2.094,2.094,0,0,1,10.866,6.5" transform="translate(-3.251 -0.037)" fill="#57606f"/>
      <rect id="Rect치ngulo_23158" data-name="Rect치ngulo 23158" width="4.8" height="4.8" transform="translate(23.166 20.862)" fill="#ef727a"/>
      <path id="Trazado_106466" data-name="Trazado 106466" d="M25.6,14.761a.847.847,0,0,0-.832-.832H0v1.6H24.83a.826.826,0,0,0,.768-.768" transform="translate(0 -5.098)" fill="#afb9d2"/>
    </g>
  </g>
</svg>
