<svg xmlns="http://www.w3.org/2000/svg" xmlns:xlink="http://www.w3.org/1999/xlink" width="143" height="143" viewBox="0 0 143 143">
  <defs>
    <linearGradient id="linear-gradient" y1="0.5" x2="1" y2="0.5" gradientUnits="objectBoundingBox">
      <stop offset="0" stop-color="#3ddeed"/>
      <stop offset="1" stop-color="#cb00dd"/>
    </linearGradient>
    <linearGradient id="linear-gradient-22" x1="0.5" x2="0.5" y2="1" gradientUnits="objectBoundingBox">
      <stop offset="0" stop-color="#f5f4f8"/>
      <stop offset="1" stop-color="#d6d7d9"/>
    </linearGradient>
  </defs>
  <g id="Grupo_39511" data-name="Grupo 39511" transform="translate(-2349 -26)">
    <circle id="Elipse_477" data-name="Elipse 477" cx="71.5" cy="71.5" r="71.5" transform="translate(2349 26)"/>
    <g id="Grupo_39510" data-name="Grupo 39510" transform="translate(3.801 -0.289)">
      <g id="Grupo_39509" data-name="Grupo 39509" transform="translate(-155.431 26.706)">
        <g id="concierge02" transform="translate(2520.63 15.583)">
          <path id="Trazado_106291" data-name="Trazado 106291" d="M151.76,209.575a7.031,7.031,0,0,1-4.475-1.339c-2.112-1.679-2.756-4.831-1.86-9.11l.019-.091,25.847-18.167a24.7,24.7,0,0,0,5.219-5.1h0l14.436-19.049c2.861-3.777,7-6.871,9.416-7.046a1.805,1.805,0,0,1,1.463.441c2.909,2.864,2.337,9.1-1.571,17.1-7.541,15.44-25.235,33.354-39.442,39.933a22.494,22.494,0,0,1-9.053,2.434Zm-5.893-10.263c-.829,4.049-.238,7.007,1.712,8.557,2.5,1.991,7.133,1.581,13.038-1.154,14.124-6.541,31.718-24.356,39.218-39.714,3.814-7.808,4.419-13.842,1.662-16.557a1.364,1.364,0,0,0-1.1-.308c-2.3.167-6.286,3.181-9.077,6.863l-14.436,19.049a25.2,25.2,0,0,1-5.323,5.2l-25.7,18.06Z" transform="translate(-124.379 -128.35)" fill="url(#linear-gradient)"/>
          <path id="Trazado_106292" data-name="Trazado 106292" d="M139.777,209.4a7.512,7.512,0,0,1-5.179-1.669c-2.18-1.968-2.636-5.516-1.316-10.262l.024-.087,27.329-17.222a25.24,25.24,0,0,0,5.645-5.03l16.041-19.26c3.177-3.815,7.542-6.782,10-6.739a1.745,1.745,0,0,1,1.428.617c2.64,3.367,1.527,10.046-3.056,18.325-8.856,16-28.043,33.721-42.77,39.5a23,23,0,0,1-8.142,1.826Zm-6.07-11.718c-1.239,4.519-.825,7.872,1.2,9.7,2.387,2.153,6.945,2.066,12.837-.245,14.641-5.745,33.721-23.371,42.532-39.291,4.487-8.107,5.617-14.6,3.1-17.81a1.3,1.3,0,0,0-1.067-.437c-2.29-.024-6.532,2.852-9.63,6.571l-16.041,19.26-.179-.15.179.15a25.715,25.715,0,0,1-5.755,5.127Z" transform="translate(-113.668 -127.89)" fill="url(#linear-gradient)"/>
          <path id="Trazado_106293" data-name="Trazado 106293" d="M127.838,210.493a8.029,8.029,0,0,1-5.97-2.093c-2.24-2.29-2.472-6.262-.672-11.485l.029-.084,28.724-16.057a25.492,25.492,0,0,0,6.062-4.913l17.659-19.335c3.476-3.807,8.1-6.6,10.526-6.354a1.733,1.733,0,0,1,1.4.8c2.33,3.884.638,11-4.641,19.516-10.217,16.487-30.875,33.855-46.051,38.718a23.646,23.646,0,0,1-7.068,1.285Zm-6.228-13.342c-1.708,5-1.5,8.778.592,10.92,2.264,2.314,6.723,2.559,12.559.691,15.086-4.833,35.628-22.112,45.795-38.518,5.184-8.365,6.874-15.3,4.638-19.029a1.282,1.282,0,0,0-1.047-.578c-2.286-.229-6.745,2.5-10.132,6.2l-17.659,19.335-.174-.158.174.158a26.017,26.017,0,0,1-6.179,5.006l-28.568,15.97Z" transform="translate(-102.909 -128.772)" fill="url(#linear-gradient)"/>
          <path id="Trazado_106294" data-name="Trazado 106294" d="M116.171,212.869c-3.1,0-5.451-.866-6.93-2.582-2.286-2.652-2.257-7.069.083-12.778l.034-.083L139.37,182.76a25.494,25.494,0,0,0,6.467-4.745l19.277-19.262c3.817-3.814,8.545-6.347,11-5.9a1.781,1.781,0,0,1,1.381,1.008c1.977,4.413-.328,11.943-6.323,20.658-11.614,16.884-33.707,33.733-49.251,37.561a24.343,24.343,0,0,1-5.745.783Zm-6.447-15.1c-2.236,5.494-2.28,9.715-.128,12.212,2.166,2.512,6.387,3.082,12.207,1.649,15.449-3.8,37.42-20.568,48.976-37.371,5.9-8.577,8.19-15.94,6.282-20.2a1.311,1.311,0,0,0-1.038-.739c-2.276-.419-6.923,2.113-10.578,5.766l-19.277,19.264-.165-.165.165.165a26.008,26.008,0,0,1-6.592,4.835l-29.852,14.587Z" transform="translate(-92.232 -131.044)" fill="url(#linear-gradient)"/>
          <path id="Trazado_106295" data-name="Trazado 106295" d="M104.88,216.692c-3.733,0-6.492-1.077-8.087-3.186-2.311-3.056-1.98-7.942.958-14.13l.038-.081,31.176-13.036a25.257,25.257,0,0,0,6.856-4.524l.158.174-.158-.174L156.7,162.7c4.069-3.708,8.969-6.017,11.4-5.365a1.84,1.84,0,0,1,1.361,1.236c1.581,4.953-1.37,12.877-8.095,21.736-13.041,17.182-36.521,33.334-52.34,36.006a25.054,25.054,0,0,1-4.151.377Zm-6.743-17.034c-2.781,5.9-3.127,10.713-.97,13.566,2.026,2.68,6.1,3.589,11.786,2.629,15.719-2.655,39.066-18.727,52.045-35.826,6.632-8.737,9.556-16.505,8.022-21.31a1.375,1.375,0,0,0-1.035-.926c-2.25-.6-7.069,1.707-10.966,5.258L136.138,182.08a25.7,25.7,0,0,1-6.989,4.611l-31.01,12.966Z" transform="translate(-81.706 -134.837)" fill="url(#linear-gradient)"/>
          <path id="Trazado_106296" data-name="Trazado 106296" d="M94.317,222c-4.523,0-7.778-1.344-9.485-3.94-2.273-3.458-1.575-8.975,1.965-15.534l.043-.08,32.193-11.164a24.623,24.623,0,0,0,7.222-4.25l22.461-18.63c4.291-3.559,9.341-5.608,11.742-4.766a1.948,1.948,0,0,1,1.342,1.491c1.141,5.5-2.488,13.791-9.953,22.74-14.489,17.368-39.29,32.635-55.284,34.03q-1.171.1-2.247.1Zm-7.15-19.171c-3.416,6.364-4.107,11.68-1.942,14.973,1.877,2.855,5.785,4.11,11.3,3.629,15.887-1.386,40.544-16.577,54.965-33.862,7.374-8.839,10.966-16.984,9.853-22.346a1.48,1.48,0,0,0-1.037-1.144c-2.26-.792-7.113,1.222-11.287,4.684l-22.461,18.63a25.125,25.125,0,0,1-7.367,4.332l-32.021,11.1Z" transform="translate(-71.627 -140.171)" fill="url(#linear-gradient)"/>
          <path id="Trazado_106297" data-name="Trazado 106297" d="M84.284,228.852h-.009c-5.5,0-9.358-1.693-11.159-4.89-2.226-3.953-1.121-9.98,3.113-16.972l.048-.08,33.046-9.039a23.8,23.8,0,0,0,7.562-3.916l24-18.045c4.55-3.422,9.6-5.147,12.011-4.1a2.1,2.1,0,0,1,1.316,1.779c.655,6.055-3.678,14.677-11.891,23.656-15.944,17.432-41.978,31.612-58.038,31.612Zm-7.7-21.541c-4.1,6.806-5.189,12.635-3.058,16.418,1.713,3.042,5.43,4.651,10.751,4.653h.009c15.946,0,41.823-14.11,57.692-31.46,8.122-8.879,12.411-17.367,11.77-23.288a1.629,1.629,0,0,0-1.037-1.4c-2.229-.967-7.19.775-11.542,4.047l-24,18.045-.141-.188.141.188a24.3,24.3,0,0,1-7.72,3.993l-32.865,8.989Z" transform="translate(-61.74 -147.08)" fill="url(#linear-gradient)"/>
          <path id="Trazado_106298" data-name="Trazado 106298" d="M75.127,237.4q-1.388,0-2.684-.122c-5.276-.5-8.915-2.568-10.524-5.971-2.126-4.5-.56-11.042,4.41-18.425l.054-.08,33.71-6.656a22.745,22.745,0,0,0,7.87-3.523l25.481-17.266c4.7-3.186,9.833-4.607,12.2-3.378a2.289,2.289,0,0,1,1.283,2.1c.125,6.609-4.942,15.526-13.9,24.465-16.467,16.431-41.683,28.854-57.9,28.855Zm-8.462-24.176c-4.832,7.206-6.367,13.555-4.321,17.882,1.534,3.246,5.041,5.218,10.144,5.7,15.874,1.515,42.891-11.313,60.214-28.6,8.869-8.849,13.885-17.642,13.763-24.124a1.823,1.823,0,0,0-1.03-1.7c-2.19-1.135-7.23.3-11.725,3.351l-25.481,17.266-.131-.194.131.194a23.257,23.257,0,0,1-8.042,3.594l-33.521,6.619Z" transform="translate(-52.307 -155.684)" fill="url(#linear-gradient)"/>
          <path id="Trazado_106299" data-name="Trazado 106299" d="M66.993,247.549a29.535,29.535,0,0,1-5.789-.53c-5.037-1.01-8.435-3.462-9.829-7.091-1.957-5.094.125-12.149,5.864-19.865l.06-.081,34.167-4.015a21.537,21.537,0,0,0,8.142-3.068l26.89-16.282c4.89-2.961,9.953-4.03,12.317-2.6a2.531,2.531,0,0,1,1.236,2.471c-.451,7.159-6.272,16.329-15.971,25.155-16.73,15.225-40.82,25.9-57.084,25.9Zm-9.439-27.123c-5.594,7.551-7.632,14.415-5.742,19.335,1.333,3.47,4.613,5.822,9.485,6.8C76.981,249.7,105,238.372,123.762,221.3c9.61-8.745,15.376-17.8,15.82-24.838a2.063,2.063,0,0,0-1.011-2.039c-2.183-1.323-7.159-.231-11.831,2.6L99.85,213.3a22.038,22.038,0,0,1-8.33,3.132l-33.966,3.992Z" transform="translate(-43.444 -165.849)" fill="url(#linear-gradient)"/>
          <path id="Trazado_106300" data-name="Trazado 106300" d="M60.022,259.553a31.093,31.093,0,0,1-9.379-1.289c-4.786-1.525-7.925-4.383-9.077-8.266-1.7-5.733.954-13.283,7.475-21.255l.067-.083L83.5,227.551A20.252,20.252,0,0,0,91.872,225l28.206-15.084c4.96-2.653,10.037-3.379,12.347-1.769a2.829,2.829,0,0,1,1.173,2.885c-1.072,7.7-7.669,17.072-18.1,25.709-16.69,13.822-39.352,22.808-55.48,22.808Zm-10.685-30.43c-6.371,7.818-8.97,15.181-7.321,20.742,1.105,3.727,4.138,6.477,8.77,7.952,15.346,4.889,44.243-4.727,64.416-21.434,10.34-8.563,16.876-17.825,17.932-25.413a2.356,2.356,0,0,0-.977-2.437c-2.136-1.49-7.123-.735-11.859,1.8L92.093,225.415l-.111-.206.111.206a20.707,20.707,0,0,1-8.577,2.6l-34.18,1.1Z" transform="translate(-35.216 -177.779)" fill="url(#linear-gradient)"/>
          <path id="Trazado_106301" data-name="Trazado 106301" d="M54.393,273.351A32.912,32.912,0,0,1,40.9,270.872c-4.53-2.056-7.387-5.35-8.263-9.523-1.343-6.406,1.938-14.413,9.238-22.551l.075-.084,34.365,2.056a18.838,18.838,0,0,0,8.555-1.965l29.412-13.661c4.989-2.317,10.043-2.684,12.293-.894a3.182,3.182,0,0,1,1.087,3.355c-1.737,8.231-9.123,17.749-20.262,26.111-16.316,12.247-37.256,19.637-53.009,19.637ZM42.15,239.194C35,247.188,31.79,255.019,33.1,261.252c.843,4.022,3.609,7.2,8,9.193,14.855,6.745,44.475-.929,66.026-17.106,11.05-8.294,18.369-17.71,20.086-25.832a2.7,2.7,0,0,0-.92-2.891c-2.116-1.683-6.97-1.292-11.8.953L85.07,239.23a19.335,19.335,0,0,1-8.78,2.008L42.152,239.2Z" transform="translate(-27.737 -191.346)" fill="url(#linear-gradient)"/>
          <path id="Trazado_106302" data-name="Trazado 106302" d="M50.2,288.778c-7.193,0-13.5-1.349-18.133-4.19a14.7,14.7,0,0,1-7.373-10.894c-.869-7.091,3.087-15.507,11.141-23.7l.085-.087L69.98,255.39a17.463,17.463,0,0,0,8.684-1.316l30.491-12.005c5.053-1.99,9.936-1.984,12.15.016a3.61,3.61,0,0,1,.971,3.884c-2.448,8.744-10.632,18.345-22.455,26.342-15.58,10.538-34.547,16.467-49.626,16.468ZM36.082,250.41c-7.9,8.062-11.774,16.306-10.926,23.227a14.244,14.244,0,0,0,7.152,10.551c14.208,8.708,44.375,3.206,67.25-12.267,11.732-7.937,19.848-17.442,22.266-26.08a3.163,3.163,0,0,0-.833-3.408c-2.085-1.883-6.773-1.854-11.665.073L78.835,254.512a17.92,17.92,0,0,1-8.931,1.343L36.08,250.41Z" transform="translate(-21.073 -206.32)" fill="url(#linear-gradient)"/>
          <path id="Trazado_106303" data-name="Trazado 106303" d="M47.454,306.037c-9.514,0-17.777-2.118-23.237-6.511a16.339,16.339,0,0,1-6.386-12.415c-.273-7.764,4.4-16.517,13.154-24.643l.1-.088,33.464,9.165a16.089,16.089,0,0,0,8.755-.6l31.423-10.111c5.076-1.633,9.755-1.258,11.921.957a4.109,4.109,0,0,1,.819,4.475c-3.2,9.231-12.187,18.849-24.66,26.387-14.487,8.755-31.283,13.387-45.348,13.387ZM31.21,262.9C22.615,270.909,18.031,279.5,18.3,287.1a15.886,15.886,0,0,0,6.211,12.066c13.391,10.773,43.916,7.672,68.049-6.913,12.381-7.482,21.3-17.011,24.459-26.139a3.665,3.665,0,0,0-.711-3.993c-2.011-2.056-6.609-2.392-11.441-.837L73.444,271.39a16.553,16.553,0,0,1-9.023.608L31.21,262.9Z" transform="translate(-15.283 -222.823)" fill="url(#linear-gradient)"/>
          <path id="Trazado_106304" data-name="Trazado 106304" d="M46.081,296.807c-12.078,0-22.546-3.164-28.653-9.533a18.546,18.546,0,0,1-5.268-14.121c.44-8.4,5.853-17.39,15.241-25.322l.108-.091,32.546,13.1a14.84,14.84,0,0,0,8.764.177L101,253.043c4.981-1.233,9.536-.48,11.6,1.918a4.748,4.748,0,0,1,.621,5.132c-3.989,9.688-13.78,19.25-26.861,26.23a87.84,87.84,0,0,1-40.285,10.481ZM27.6,248.281c-9.221,7.825-14.534,16.662-14.967,24.9a18.089,18.089,0,0,0,5.138,13.772c12.4,12.931,43.072,12.465,68.378-1.038,12.988-6.93,22.7-16.406,26.649-26a4.251,4.251,0,0,0-.543-4.648c-1.954-2.266-6.324-2.961-11.135-1.77L68.934,261.47l-.057-.228.057.228a15.309,15.309,0,0,1-9.053-.2L27.6,248.28Z" transform="translate(-10.405 -212.459)" fill="url(#linear-gradient)"/>
          <path id="Trazado_106305" data-name="Trazado 106305" d="M45.736,271.251c-14.794,0-27.653-4.563-34.141-13.337-8.884-12.012-3.51-28.78,13.371-41.722l.121-.093,31.289,17.272a13.735,13.735,0,0,0,8.706,1.02l32.756-5.584c4.923-.84,9.217.271,11.2,2.9a5.444,5.444,0,0,1,.367,5.86C104.59,247.674,94,257.1,80.365,263.416a83.676,83.676,0,0,1-34.63,7.835ZM25.129,216.658C8.563,229.421,3.272,245.874,11.972,257.637c5.389,7.287,15.477,11.864,28.4,12.89a81.177,81.177,0,0,0,39.792-7.535c13.543-6.275,24.046-15.615,28.817-25.628a4.936,4.936,0,0,0-.319-5.376c-1.851-2.448-6.071-3.515-10.749-2.717l-32.756,5.584-.04-.231.04.231a14.2,14.2,0,0,1-9.01-1.071L25.131,216.66Z" transform="translate(-6.308 -185.325)" fill="url(#linear-gradient)"/>
          <path id="Trazado_106306" data-name="Trazado 106306" d="M46.541,244.877c-17.548,0-32.887-6.4-39.413-17.981-7.794-13.832-.981-31.463,16.954-43.871l.137-.1L53.89,204.6a12.831,12.831,0,0,0,8.575,1.927l.021.234-.021-.234,33.118-2.942c4.759-.423,8.869,1.065,10.722,3.884a6.256,6.256,0,0,1,.047,6.656c-5.678,10.489-17.044,19.687-31.182,25.238a78.942,78.942,0,0,1-28.627,5.511Zm-22.33-61.37C6.59,195.764-.112,213.091,7.537,226.667c4.735,8.4,14.385,14.316,27.172,16.651,12.817,2.34,27.123.78,40.288-4.388,14.037-5.511,25.316-14.633,30.943-25.024a5.806,5.806,0,0,0-.026-6.175c-1.759-2.674-5.7-4.081-10.289-3.674L62.507,207a13.3,13.3,0,0,1-8.892-2.015l-29.4-21.474Z" transform="translate(-3.378 -156.879)" fill="url(#linear-gradient)"/>
          <path id="Trazado_106307" data-name="Trazado 106307" d="M48.189,217.841a64.451,64.451,0,0,1-18.4-2.606C17.115,211.455,7.91,204.04,3.87,194.356c-6.551-15.7,1.77-34.13,20.708-45.86l.154-.1,27.676,26.282a12.253,12.253,0,0,0,8.367,2.9v0l33.248-.048h.024c4.561,0,8.446,1.868,10.144,4.882a7.19,7.19,0,0,1-.355,7.512c-6.569,10.817-18.694,19.7-33.264,24.372a73.583,73.583,0,0,1-22.381,3.543ZM24.669,148.99C6.043,160.6-2.141,178.739,4.3,194.176c3.986,9.551,13.085,16.871,25.62,20.61,12.559,3.745,26.944,3.414,40.507-.934,14.463-4.637,26.494-13.446,33.006-24.168a6.742,6.742,0,0,0,.346-7.039c-1.615-2.865-5.343-4.643-9.735-4.643h-.024l-33.249.048h-.024a12.62,12.62,0,0,1-8.666-3.026L24.669,148.991Z" transform="translate(-1.422 -127.266)" fill="url(#linear-gradient)"/>
          <path id="Trazado_106308" data-name="Trazado 106308" d="M50.03,190.319a61.53,61.53,0,0,1-24.311-4.859C13.426,180.168,4.9,171.27,1.724,160.407c-5.155-17.6,4.739-36.759,24.62-47.663l.171-.094L51.8,143.735a11.749,11.749,0,0,0,8.078,3.929L93,150.762c4.43.414,8,2.616,9.549,5.892a8.375,8.375,0,0,1-.849,8.418c-7.487,11.089-20.339,19.56-35.262,23.239a68.676,68.676,0,0,1-16.41,2.009ZM26.4,113.25C6.831,124.061-2.9,142.938,2.173,160.276,5.313,171,13.741,179.794,25.9,185.03c12.182,5.245,26.538,6.248,40.425,2.824,14.811-3.651,27.564-12.051,34.986-23.045a7.815,7.815,0,0,0,.813-7.955c-1.478-3.124-4.906-5.226-9.168-5.625l-33.126-3.1a12.222,12.222,0,0,1-8.4-4.1Z" transform="translate(-0.32 -96.607)" fill="url(#linear-gradient)"/>
          <path id="Trazado_106309" data-name="Trazado 106309" d="M52.044,162.43a58.723,58.723,0,0,1-29.678-7.844C10.583,147.693,2.873,137.256.653,125.2c-3.6-19.537,7.927-39.328,28.674-49.25l.189-.09L52,111.917a11.644,11.644,0,0,0,7.7,5.023l32.73,6.491a11.639,11.639,0,0,1,8.871,6.925,9.632,9.632,0,0,1-1.448,9.352c-8.425,11.3-21.968,19.252-37.156,21.821a63.817,63.817,0,0,1-10.649.9Zm-22.7-85.966C8.9,86.321-2.433,105.847,1.114,125.115c2.195,11.92,9.826,22.243,21.488,29.066a59.59,59.59,0,0,0,40.014,6.887c15.071-2.549,28.5-10.437,36.859-21.639a9.174,9.174,0,0,0,1.387-8.9,11.17,11.17,0,0,0-8.523-6.633L59.609,117.4a12.118,12.118,0,0,1-8.011-5.234Z" transform="translate(-0.001 -65.057)" fill="url(#linear-gradient)"/>
          <path id="Trazado_106310" data-name="Trazado 106310" d="M53.974,134.327a56.19,56.19,0,0,1-34.411-11.568C8.431,114.182,1.661,102.158.5,88.9c-1.88-21.483,11.322-41.812,32.851-50.587l.206-.084.094.2L52.809,79.4a11.876,11.876,0,0,0,7.237,6.173h0l32.041,10.13a12.171,12.171,0,0,1,8.137,8,11.05,11.05,0,0,1-2.162,10.285A56.817,56.817,0,0,1,59.142,134.1q-2.593.226-5.168.226ZM33.324,38.834C12.108,47.575-.887,67.652.969,88.86c1.148,13.125,7.854,25.031,18.882,33.528A56.05,56.05,0,0,0,59.1,133.633a56.342,56.342,0,0,0,38.6-19.939,10.594,10.594,0,0,0,2.075-9.855,11.7,11.7,0,0,0-7.83-7.689L59.905,86.021A12.345,12.345,0,0,1,52.385,79.6Z" transform="translate(-0.278 -32.786)" fill="url(#linear-gradient)"/>
          <path id="Trazado_106311" data-name="Trazado 106311" d="M55.509,106.2A54.479,54.479,0,0,1,38.161.074L38.383,0,53.97,46.4a12.475,12.475,0,0,0,6.678,7.378l31.035,14a12.831,12.831,0,0,1,7.348,9.147,12.655,12.655,0,0,1-2.989,11.178A54.608,54.608,0,0,1,55.509,106.2ZM38.088.594a54.009,54.009,0,1,0,57.6,87.2A12.185,12.185,0,0,0,98.57,77.027a12.367,12.367,0,0,0-7.082-8.817l-31.035-14a12.951,12.951,0,0,1-6.928-7.657Z" transform="translate(-0.883)" fill="url(#linear-gradient)"/>
        </g>
        <g id="Grupo_39509-2" data-name="Grupo 39509" transform="translate(2589.683 112.95)">
          <g id="Grupo_39367" data-name="Grupo 39367" transform="translate(0 0)">
            <g id="Rectángulo_23108" data-name="Rectángulo 23108" transform="translate(-0.252 0.055)" stroke="#46474a" stroke-width="1" fill="url(#linear-gradient-22)">
              <rect width="34" height="13" rx="6.5" stroke="none"/>
              <rect x="0.5" y="0.5" width="33" height="12" rx="6" fill="none"/>
            </g>
          </g>
          <text id="Beta" transform="translate(5.748 9.055)" fill="#313131" font-size="9" font-family="Roboto-Bold, Roboto" font-weight="700"><tspan x="0" y="0">Beta</tspan></text>
        </g>
      </g>
    </g>
  </g>
</svg>
