<svg xmlns="http://www.w3.org/2000/svg" xmlns:xlink="http://www.w3.org/1999/xlink" width="129.921" height="169" viewBox="0 0 129.921 169">
  <defs>
    <linearGradient id="linear-gradient" y1="0.5" x2="1" y2="0.5" gradientUnits="objectBoundingBox">
      <stop offset="0" stop-color="#3ddeed"/>
      <stop offset="1" stop-color="#cb00dd"/>
    </linearGradient>
    <linearGradient id="linear-gradient-22" x1="0.5" x2="0.5" y2="1" gradientUnits="objectBoundingBox">
      <stop offset="0" stop-color="#f5f4f8"/>
      <stop offset="1" stop-color="#d6d7d9"/>
    </linearGradient>
  </defs>
  <g id="Grupo_39850" data-name="Grupo 39850" transform="translate(-8197 -1829)">
    <g id="Unión_8" data-name="Unión 8" transform="translate(8192 1829)">
      <path d="M 125.0000991821289 168.0002136230469 L 14.00040626525879 168.0002136230469 C 12.34592819213867 168.0002136230469 10.99990653991699 166.6541900634766 10.99990653991699 164.9997100830078 L 10.99990653991699 106.0955963134766 C 10.99990653991699 104.4415969848633 12.34592819213867 103.0959930419922 14.00040626525879 103.0959930419922 L 16.67023277282715 103.0959930419922 L 18.58877563476562 103.0959930419922 L 17.48997116088867 101.5232696533203 C 9.973427772521973 90.76466369628906 6.000406265258789 78.11637878417969 6.000406265258789 64.94579315185547 C 6.000406265258789 56.31275177001953 7.691340923309326 47.93846893310547 11.02625370025635 40.05557632446289 C 12.62914562225342 36.26675033569336 14.61312389373779 32.61233901977539 16.9231014251709 29.19388198852539 C 19.21131896972656 25.80762100219727 21.83921051025391 22.62329483032227 24.7337760925293 19.72936058044434 C 27.62834167480469 16.83542442321777 30.81336212158203 14.20812129974365 34.20038604736328 11.92040348052979 C 37.61962509155273 9.610925674438477 41.27486419677734 7.627359867095947 45.06455993652344 6.024816513061523 C 52.94927597045898 2.690599203109741 61.32551574707031 1.000012278556824 69.96060180664062 1.000012278556824 C 78.59547424316406 1.000012278556824 86.97158050537109 2.690599203109741 94.85625457763672 6.024795055389404 C 98.64595031738281 7.627359867095947 102.3011856079102 9.610925674438477 105.7204284667969 11.92040348052979 C 109.1074676513672 14.20812129974365 112.2925186157227 16.83544731140137 115.1871032714844 19.7293815612793 C 118.0817108154297 22.62329483032227 120.7096252441406 25.80762100219727 122.9978866577148 29.19388198852539 C 125.3079071044922 32.61236190795898 127.2919311523438 36.26677322387695 128.8948364257812 40.05557632446289 C 132.2298431396484 47.93849182128906 133.9208221435547 56.31277465820312 133.9208221435547 64.94579315185547 C 133.9208221435547 78.11627197265625 129.9476928710938 90.76455688476562 122.4309692382812 101.5232696533203 L 121.332145690918 103.0959930419922 L 123.2507095336914 103.0959930419922 L 125.0000991821289 103.0959930419922 C 126.6540985107422 103.0959930419922 127.9997100830078 104.4415969848633 127.9997100830078 106.0955963134766 L 127.9997100830078 164.9997100830078 C 127.9997100830078 166.6541900634766 126.6540985107422 168.0002136230469 125.0000991821289 168.0002136230469 Z" stroke="none"/>
      <path d="M 125.0000991821289 167.0001831054688 C 126.1026916503906 167.0001831054688 126.9997177124023 166.102783203125 126.9997177124023 164.9997100830078 L 126.9997177124023 106.0955963134766 C 126.9997177124023 104.993034362793 126.1026916503906 104.0960083007812 125.0000991821289 104.0960083007812 L 119.4136047363281 104.0960083007812 L 121.611213684082 100.950553894043 C 129.010009765625 90.36061859130859 132.9208068847656 77.91039276123047 132.9208068847656 64.94580078125 C 132.9208068847656 56.44737243652344 131.2564239501953 48.20418930053711 127.973876953125 40.44521331787109 C 126.3961029052734 36.71587371826172 124.4431686401367 33.11875915527344 122.169303894043 29.75378036499023 C 119.9166946411133 26.42025756835938 117.3296737670898 23.28548622131348 114.4800796508789 20.43655395507812 C 111.630485534668 17.58762168884277 108.494987487793 15.00119018554688 105.1607131958008 12.749098777771 C 101.7949447631836 10.47573566436768 98.19699096679688 8.523235321044922 94.46678161621094 6.945849418640137 C 86.70600891113281 3.664031028747559 78.46094512939453 2.000008344650269 69.96060180664062 2.000008344650269 C 61.46005630493164 2.000008344650269 53.21485137939453 3.664031028747559 45.45403289794922 6.945849418640137 C 41.72380447387695 8.523235321044922 38.12585067749023 10.47573566436768 34.76010131835938 12.74907684326172 C 31.42582893371582 15.00119018554688 28.29035186767578 17.58762168884277 25.4407844543457 20.43655395507812 C 22.59123802185059 23.28548622131348 20.00423812866211 26.42023468017578 17.75167083740234 29.75375747680664 C 15.47785186767578 33.11873626708984 13.52494239807129 36.71585083007812 11.94721508026123 40.44521331787109 C 8.664737701416016 48.20414352416992 7.000397205352783 56.44734954833984 7.000397205352783 64.94580078125 C 7.000397205352783 77.91048431396484 10.91110134124756 90.36071014404297 18.30971527099609 100.9505767822266 L 20.50728416442871 104.0960083007812 L 14.00039768218994 104.0960083007812 C 12.89732933044434 104.0960083007812 11.99989700317383 104.993034362793 11.99989700317383 106.0955963134766 L 11.99989700317383 164.9997100830078 C 11.99989700317383 166.102783203125 12.89732933044434 167.0001831054688 14.00039768218994 167.0001831054688 L 125.0000991821289 167.0001831054688 M 125.0000991821289 169.0001831054688 L 14.00039768218994 169.0001831054688 C 11.79089736938477 169.0001831054688 9.999897003173828 167.2091827392578 9.999897003173828 164.9997100830078 L 9.999897003173828 106.0955963134766 C 9.999897003173828 103.8870086669922 11.79089736938477 102.0960083007812 14.00039768218994 102.0960083007812 L 16.67021560668945 102.0960083007812 C 9.315852165222168 91.56951141357422 5.000397205352783 78.76028442382812 5.000397205352783 64.94580078125 C 5.000397205352783 29.07721328735352 34.08389663696289 8.273037565231789e-06 69.96060180664062 8.273037565231789e-06 C 105.8363952636719 8.273037565231789e-06 134.9208068847656 29.07721328735352 134.9208068847656 64.94580078125 C 134.9208068847656 78.76028442382812 130.6051940917969 91.56951141357422 123.2507171630859 102.0960083007812 L 125.0000991821289 102.0960083007812 C 127.209602355957 102.0960083007812 128.9997100830078 103.8870086669922 128.9997100830078 106.0955963134766 L 128.9997100830078 164.9997100830078 C 128.9997100830078 167.2091827392578 127.209602355957 169.0001831054688 125.0000991821289 169.0001831054688 Z" stroke="none" fill="#fff"/>
    </g>
    <g id="Grupo_39848" data-name="Grupo 39848" transform="translate(3 -4)">
      <g id="Grupo_39847" data-name="Grupo 39847">
        <circle id="Elipse_504" data-name="Elipse 504" cx="58" cy="58" r="58" transform="translate(8201 1839)"/>
        <g id="Grupo_39839" data-name="Grupo 39839" transform="translate(5940.679 1519.526)">
          <g id="Grupo_39815" data-name="Grupo 39815" transform="translate(2270.625 324.98)">
            <g id="concierge02">
              <path id="Trazado_106291" data-name="Trazado 106291" d="M151.208,204.666a6.454,6.454,0,0,1-4.108-1.229c-1.939-1.541-2.53-4.435-1.707-8.363l.017-.084,23.729-16.679a22.681,22.681,0,0,0,4.792-4.683h0l13.253-17.488c2.627-3.467,6.425-6.308,8.645-6.469a1.658,1.658,0,0,1,1.343.405c2.671,2.629,2.145,8.35-1.442,15.7-6.923,14.175-23.167,30.621-36.21,36.661a20.65,20.65,0,0,1-8.311,2.234Zm-5.41-9.422c-.761,3.717-.218,6.432,1.571,7.856,2.3,1.828,6.549,1.451,11.969-1.059,12.967-6,29.119-22.361,36-36.46,3.5-7.169,4.057-12.708,1.526-15.2a1.252,1.252,0,0,0-1.009-.282c-2.111.153-5.771,2.921-8.333,6.3l-13.253,17.488a23.132,23.132,0,0,1-4.887,4.775L145.8,195.242Z" transform="translate(-126.071 -130.096)" fill="url(#linear-gradient)"/>
              <path id="Trazado_106292" data-name="Trazado 106292" d="M139.184,204.457a6.9,6.9,0,0,1-4.755-1.532c-2-1.807-2.42-5.064-1.208-9.421l.022-.08,25.089-15.81A23.172,23.172,0,0,0,163.515,173l14.727-17.681c2.917-3.5,6.924-6.226,9.178-6.187a1.6,1.6,0,0,1,1.311.566c2.424,3.091,1.4,9.222-2.806,16.824-8.131,14.691-25.746,30.958-39.265,36.264a21.11,21.11,0,0,1-7.474,1.676ZM133.612,193.7c-1.137,4.148-.757,7.227,1.1,8.906,2.191,1.977,6.376,1.9,11.785-.225,13.441-5.274,30.958-21.456,39.047-36.071,4.12-7.443,5.156-13.4,2.844-16.35a1.2,1.2,0,0,0-.979-.4c-2.1-.022-6,2.619-8.841,6.032l-14.727,17.681-.165-.137.165.137a23.609,23.609,0,0,1-5.283,4.707Z" transform="translate(-115.214 -129.63)" fill="url(#linear-gradient)"/>
              <path id="Trazado_106293" data-name="Trazado 106293" d="M127.2,205.549a7.371,7.371,0,0,1-5.481-1.922c-2.057-2.1-2.27-5.749-.617-10.544l.026-.077,26.37-14.741a23.4,23.4,0,0,0,5.566-4.511L169.272,156c3.191-3.495,7.435-6.057,9.663-5.834a1.591,1.591,0,0,1,1.288.739c2.139,3.565.586,10.1-4.261,17.917-9.379,15.136-28.345,31.081-42.278,35.546a21.711,21.711,0,0,1-6.489,1.179ZM121.478,193.3c-1.568,4.593-1.381,8.059.544,10.025,2.079,2.124,6.172,2.349,11.53.634,13.849-4.437,32.709-20.3,42.042-35.361,4.759-7.68,6.311-14.047,4.258-17.47a1.178,1.178,0,0,0-.961-.531c-2.1-.21-6.192,2.291-9.3,5.7l-16.212,17.751-.159-.145.159.145a23.887,23.887,0,0,1-5.673,4.6L121.478,193.3Z" transform="translate(-104.309 -130.525)" fill="url(#linear-gradient)"/>
              <path id="Trazado_106294" data-name="Trazado 106294" d="M115.465,207.947c-2.845,0-5-.795-6.362-2.37-2.1-2.434-2.072-6.49.076-11.731l.031-.076,27.552-13.464a23.4,23.4,0,0,0,5.937-4.356l17.7-17.684c3.5-3.5,7.844-5.827,10.095-5.413a1.635,1.635,0,0,1,1.268.926c1.815,4.052-.3,10.964-5.8,18.965-10.662,15.5-30.945,30.969-45.215,34.483a22.348,22.348,0,0,1-5.274.719Zm-5.919-13.861c-2.053,5.044-2.093,8.919-.118,11.211s5.864,2.829,11.207,1.514c14.183-3.492,34.353-18.883,44.963-34.309,5.417-7.874,7.519-14.634,5.767-18.544a1.2,1.2,0,0,0-.953-.679c-2.089-.384-6.355,1.94-9.711,5.294L143,176.258l-.152-.152.152.152a23.879,23.879,0,0,1-6.052,4.439l-27.406,13.392Z" transform="translate(-93.487 -132.827)" fill="url(#linear-gradient)"/>
              <path id="Trazado_106295" data-name="Trazado 106295" d="M104.093,211.819c-3.427,0-5.96-.988-7.425-2.925-2.122-2.806-1.817-7.291.88-12.972l.035-.075,28.622-11.968a23.19,23.19,0,0,0,6.294-4.154l.145.159-.145-.159,19.171-17.472c3.735-3.4,8.234-5.524,10.468-4.925a1.689,1.689,0,0,1,1.25,1.135c1.451,4.547-1.258,11.822-7.431,19.955-11.972,15.774-33.529,30.6-48.051,33.055a23,23,0,0,1-3.811.346ZM97.9,196.181c-2.553,5.414-2.871,9.836-.89,12.454,1.86,2.461,5.6,3.295,10.82,2.414,14.431-2.437,35.865-17.192,47.781-32.891,6.089-8.021,8.773-15.153,7.365-19.564a1.262,1.262,0,0,0-.951-.85c-2.066-.553-6.49,1.568-10.067,4.827l-19.171,17.472a23.59,23.59,0,0,1-6.417,4.233L97.9,196.181Z" transform="translate(-82.818 -136.672)" fill="url(#linear-gradient)"/>
              <path id="Trazado_106296" data-name="Trazado 106296" d="M93.432,217.2c-4.152,0-7.141-1.234-8.707-3.618-2.087-3.174-1.446-8.239,1.8-14.261l.039-.073L116.123,189a22.605,22.605,0,0,0,6.63-3.9l20.62-17.1c3.939-3.267,8.575-5.149,10.78-4.376a1.788,1.788,0,0,1,1.232,1.369c1.047,5.052-2.284,12.661-9.137,20.877-13.3,15.945-36.07,29.961-50.754,31.242q-1.075.094-2.063.094Zm-6.564-17.6c-3.136,5.843-3.771,10.723-1.783,13.746,1.723,2.621,5.311,3.773,10.373,3.331,14.585-1.272,37.222-15.218,50.461-31.088,6.77-8.115,10.067-15.592,9.046-20.515a1.359,1.359,0,0,0-.952-1.05c-2.075-.727-6.53,1.122-10.362,4.3l-20.62,17.1a23.067,23.067,0,0,1-6.763,3.977L86.869,199.6Z" transform="translate(-72.601 -142.079)" fill="url(#linear-gradient)"/>
              <path id="Trazado_106297" data-name="Trazado 106297" d="M83.277,224.153h-.008c-5.048,0-8.591-1.555-10.245-4.49-2.043-3.629-1.029-9.162,2.858-15.582l.044-.073,30.338-8.3a21.849,21.849,0,0,0,6.942-3.6l22.032-16.566c4.177-3.142,8.815-4.725,11.027-3.767a1.924,1.924,0,0,1,1.208,1.633c.6,5.559-3.377,13.474-10.917,21.717-14.638,16-38.539,29.022-53.282,29.022Zm-7.07-19.776c-3.767,6.248-4.764,11.6-2.807,15.073,1.573,2.793,4.985,4.27,9.87,4.271h.008c14.639,0,38.4-12.954,52.964-28.882,7.456-8.152,11.394-15.944,10.806-21.38a1.5,1.5,0,0,0-.952-1.284c-2.046-.888-6.6.711-10.6,3.716l-22.032,16.566-.129-.173.129.173a22.307,22.307,0,0,1-7.087,3.666l-30.172,8.252Z" transform="translate(-62.581 -149.081)" fill="url(#linear-gradient)"/>
              <path id="Trazado_106298" data-name="Trazado 106298" d="M73.969,232.82q-1.275,0-2.464-.112c-4.844-.462-8.184-2.357-9.662-5.482-1.952-4.13-.514-10.138,4.049-16.915l.05-.073,30.948-6.111a20.882,20.882,0,0,0,7.225-3.235l23.393-15.851c4.317-2.925,9.028-4.229,11.2-3.1a2.1,2.1,0,0,1,1.178,1.931c.115,6.068-4.537,14.253-12.762,22.46-15.118,15.085-38.268,26.489-53.159,26.491ZM66.2,210.625c-4.436,6.615-5.845,12.444-3.967,16.417,1.408,2.98,4.628,4.79,9.313,5.237,14.574,1.391,39.377-10.386,55.28-26.254,8.143-8.124,12.747-16.2,12.635-22.148a1.674,1.674,0,0,0-.945-1.557c-2.011-1.042-6.638.28-10.764,3.076l-23.393,15.851-.12-.178.12.178a21.352,21.352,0,0,1-7.383,3.3L66.2,210.625Z" transform="translate(-53.019 -157.802)" fill="url(#linear-gradient)"/>
              <path id="Trazado_106299" data-name="Trazado 106299" d="M65.655,243.111a27.116,27.116,0,0,1-5.315-.486c-4.624-.927-7.744-3.178-9.024-6.51-1.8-4.677.115-11.154,5.384-18.237l.055-.075,31.367-3.686A19.772,19.772,0,0,0,95.6,211.3l24.687-14.948c4.49-2.718,9.137-3.7,11.308-2.386a2.324,2.324,0,0,1,1.135,2.268c-.414,6.572-5.758,14.991-14.663,23.094-15.359,13.978-37.476,23.781-52.406,23.781Zm-8.666-24.9c-5.136,6.932-7.006,13.234-5.271,17.751,1.224,3.186,4.235,5.345,8.707,6.242,14.4,2.887,40.124-7.516,57.347-23.191,8.822-8.029,14.116-16.34,14.524-22.8a1.894,1.894,0,0,0-.928-1.872c-2-1.215-6.572-.212-10.862,2.386L95.819,211.67a20.232,20.232,0,0,1-7.647,2.875Z" transform="translate(-44.036 -168.106)" fill="url(#linear-gradient)"/>
              <path id="Trazado_106300" data-name="Trazado 106300" d="M58.469,255.272a28.545,28.545,0,0,1-8.611-1.183c-4.394-1.4-7.276-4.024-8.333-7.588-1.562-5.264.876-12.194,6.863-19.513l.061-.076,31.574-1.02a18.593,18.593,0,0,0,7.686-2.339L113.6,209.7c4.554-2.436,9.215-3.1,11.335-1.624a2.6,2.6,0,0,1,1.077,2.649c-.984,7.07-7.04,15.673-16.615,23.6-15.323,12.69-36.128,20.939-50.934,20.939Zm-9.809-27.937c-5.849,7.178-8.235,13.937-6.721,19.042,1.015,3.421,3.8,5.946,8.051,7.3,14.089,4.488,40.617-4.339,59.138-19.678,9.493-7.861,15.493-16.365,16.463-23.331a2.163,2.163,0,0,0-.9-2.237c-1.961-1.368-6.54-.675-10.887,1.65L87.912,223.93l-.1-.19.1.19a19.01,19.01,0,0,1-7.875,2.39l-31.379,1.013Z" transform="translate(-35.695 -180.198)" fill="url(#linear-gradient)"/>
              <path id="Trazado_106301" data-name="Trazado 106301" d="M52.586,269.235A30.214,30.214,0,0,1,40.2,266.959c-4.159-1.888-6.782-4.912-7.586-8.743-1.233-5.881,1.779-13.232,8.481-20.7l.069-.077,31.549,1.888a17.294,17.294,0,0,0,7.854-1.8l27-12.542c4.58-2.127,9.22-2.464,11.286-.821a2.922,2.922,0,0,1,1,3.08c-1.6,7.557-8.375,16.294-18.6,23.971-14.979,11.244-34.2,18.028-48.666,18.028Zm-11.24-31.358c-6.561,7.338-9.511,14.528-8.311,20.25.774,3.692,3.313,6.61,7.342,8.439,13.638,6.192,40.83-.852,60.615-15.7,10.144-7.614,16.864-16.259,18.44-23.715a2.483,2.483,0,0,0-.845-2.654c-1.943-1.545-6.4-1.186-10.836.875l-27,12.542a17.751,17.751,0,0,1-8.06,1.844l-31.341-1.875Z" transform="translate(-28.114 -193.95)" fill="url(#linear-gradient)"/>
              <path id="Trazado_106302" data-name="Trazado 106302" d="M48.1,284.829c-6.6,0-12.393-1.238-16.647-3.846a13.5,13.5,0,0,1-6.768-10c-.8-6.51,2.834-14.236,10.228-21.758l.078-.08,31.272,5.034a16.031,16.031,0,0,0,7.973-1.208l27.993-11.021c4.639-1.826,9.122-1.821,11.155.014a3.314,3.314,0,0,1,.892,3.565c-2.247,8.027-9.761,16.842-20.615,24.183-14.3,9.675-31.716,15.118-45.559,15.119ZM35.139,249.6c-7.248,7.4-10.81,14.97-10.03,21.324a13.077,13.077,0,0,0,6.566,9.686c13.044,7.995,40.739,2.943,61.74-11.262,10.77-7.286,18.221-16.013,20.441-23.943a2.9,2.9,0,0,0-.765-3.129c-1.914-1.728-6.218-1.7-10.709.067L74.388,253.37a16.451,16.451,0,0,1-8.2,1.233l-31.052-5Z" transform="translate(-21.36 -209.128)" fill="url(#linear-gradient)"/>
              <path id="Trazado_106303" data-name="Trazado 106303" d="M45.026,302.251c-8.735,0-16.32-1.944-21.333-5.978a15,15,0,0,1-5.862-11.4c-.251-7.128,4.037-15.163,12.077-22.623l.088-.081,30.721,8.414a14.77,14.77,0,0,0,8.038-.553L97.6,260.749c4.66-1.5,8.956-1.154,10.944.879a3.772,3.772,0,0,1,.752,4.108c-2.936,8.475-11.189,17.3-22.639,24.225-13.3,8.038-28.72,12.29-41.632,12.29Zm-14.914-39.6c-7.89,7.352-12.1,15.235-11.852,22.212a14.584,14.584,0,0,0,5.7,11.078c12.294,9.891,40.318,7.043,62.473-6.346,11.367-6.869,19.551-15.617,22.455-24a3.365,3.365,0,0,0-.652-3.666c-1.846-1.888-6.068-2.2-10.5-.769l-28.848,9.283A15.2,15.2,0,0,1,60.6,271l-30.49-8.352Z" transform="translate(-15.491 -225.855)" fill="url(#linear-gradient)"/>
              <path id="Trazado_106304" data-name="Trazado 106304" d="M43.3,292.787c-11.088,0-20.7-2.9-26.305-8.752a17.027,17.027,0,0,1-4.836-12.964c.4-7.708,5.373-15.965,13.992-23.247l.1-.084,29.88,12.026a13.623,13.623,0,0,0,8.046.162l29.546-7.319c4.573-1.132,8.754-.441,10.653,1.761a4.359,4.359,0,0,1,.57,4.712c-3.662,8.894-12.651,17.672-24.66,24.081A80.642,80.642,0,0,1,43.3,292.785Zm-16.97-44.55c-8.465,7.184-13.343,15.3-13.741,22.856a16.606,16.606,0,0,0,4.717,12.644c11.382,11.871,39.543,11.444,62.775-.953,11.924-6.362,20.84-15.061,24.466-23.865a3.9,3.9,0,0,0-.5-4.267c-1.794-2.08-5.806-2.718-10.223-1.625l-29.546,7.319-.052-.209.052.209a14.053,14.053,0,0,1-8.311-.18L26.331,248.236Z" transform="translate(-10.546 -215.35)" fill="url(#linear-gradient)"/>
              <path id="Trazado_106305" data-name="Trazado 106305" d="M42.591,266.732c-13.581,0-25.387-4.189-31.344-12.244-8.156-11.028-3.223-26.421,12.275-38.3l.111-.085,28.725,15.856a12.609,12.609,0,0,0,7.992.936l30.072-5.126c4.52-.771,8.462.248,10.284,2.659a5,5,0,0,1,.337,5.38c-4.422,9.281-14.14,17.932-26.662,23.733a76.819,76.819,0,0,1-31.792,7.193Zm-18.918-50.12C8.464,228.33,3.607,243.434,11.594,254.233c4.947,6.69,14.209,10.892,26.076,11.833A74.526,74.526,0,0,0,74.2,259.149c12.433-5.76,22.076-14.336,26.455-23.528a4.531,4.531,0,0,0-.293-4.935c-1.7-2.247-5.573-3.227-9.868-2.495l-30.072,5.126-.037-.212.037.212a13.04,13.04,0,0,1-8.272-.983l-28.478-15.72Z" transform="translate(-6.394 -187.847)" fill="url(#linear-gradient)"/>
              <path id="Trazado_106306" data-name="Trazado 106306" d="M43.05,239.8c-16.11,0-30.192-5.873-36.184-16.507-7.155-12.7-.9-28.885,15.565-40.276l.126-.088,27.24,19.9a11.779,11.779,0,0,0,7.872,1.769l.02.214-.02-.214,30.4-2.7c4.369-.388,8.143.978,9.843,3.565a5.743,5.743,0,0,1,.043,6.111c-5.213,9.629-15.647,18.074-28.627,23.17A72.474,72.474,0,0,1,43.05,239.8Zm-20.5-56.342C6.372,194.712.22,210.62,7.242,223.083c4.347,7.715,13.206,13.143,24.945,15.286a68.928,68.928,0,0,0,36.987-4.028c12.887-5.06,23.242-13.434,28.407-22.974a5.33,5.33,0,0,0-.024-5.669c-1.615-2.455-5.234-3.747-9.446-3.373l-30.4,2.7a12.21,12.21,0,0,1-8.163-1.85L22.552,183.462Z" transform="translate(-3.424 -159.014)" fill="url(#linear-gradient)"/>
              <path id="Trazado_106307" data-name="Trazado 106307" d="M44.376,212.151a59.169,59.169,0,0,1-16.894-2.393C15.849,206.288,7.4,199.481,3.689,190.59c-6.014-14.413,1.625-31.333,19.011-42.1l.141-.088,25.408,24.128a11.249,11.249,0,0,0,7.681,2.661v0l30.524-.044h.022c4.188,0,7.754,1.715,9.313,4.482a6.6,6.6,0,0,1-.326,6.9C89.432,196.454,78.3,204.609,64.925,208.9a67.554,67.554,0,0,1-20.547,3.253ZM22.783,148.941C5.684,159.6-1.83,176.253,4.085,190.425c3.659,8.769,12.012,15.489,23.52,18.921,11.53,3.438,24.736,3.134,37.188-.858,13.278-4.257,24.323-12.345,30.3-22.188a6.19,6.19,0,0,0,.318-6.462c-1.483-2.631-4.905-4.262-8.937-4.262h-.022l-30.524.044h-.022a11.585,11.585,0,0,1-7.956-2.778l-25.168-23.9Z" transform="translate(-1.441 -128.998)" fill="url(#linear-gradient)"/>
              <path id="Trazado_106308" data-name="Trazado 106308" d="M45.961,183.955a56.488,56.488,0,0,1-22.319-4.461c-11.286-4.858-19.109-13.027-22.029-23-4.733-16.162,4.351-33.747,22.6-43.758l.157-.086,23.212,28.538A10.787,10.787,0,0,0,55,144.8l30.412,2.844c4.067.38,7.344,2.4,8.766,5.409a7.688,7.688,0,0,1-.779,7.728c-6.873,10.181-18.672,17.957-32.373,21.334a63.048,63.048,0,0,1-15.065,1.845ZM24.266,113.2c-17.964,9.926-26.9,27.256-22.24,43.173,2.883,9.847,10.62,17.918,21.785,22.725,11.184,4.815,24.364,5.736,37.112,2.593,13.6-3.352,25.3-11.063,32.119-21.156a7.175,7.175,0,0,0,.747-7.3c-1.357-2.868-4.5-4.8-8.417-5.164L54.96,145.224a11.221,11.221,0,0,1-7.71-3.765Z" transform="translate(-0.324 -97.922)" fill="url(#linear-gradient)"/>
              <path id="Trazado_106309" data-name="Trazado 106309" d="M47.78,155.336a53.911,53.911,0,0,1-27.246-7.2C9.716,141.807,2.638,132.225.6,121.156-2.7,103.22,7.877,85.051,26.924,75.942l.174-.082,20.637,33.1a10.69,10.69,0,0,0,7.072,4.611l30.048,5.959A10.685,10.685,0,0,1,93,125.891a8.843,8.843,0,0,1-1.33,8.586C83.935,144.849,71.5,152.151,57.558,154.51a58.59,58.59,0,0,1-9.777.826ZM26.937,76.414C8.175,85.464-2.234,103.39,1.023,121.079c2.015,10.943,9.021,20.42,19.727,26.684a54.707,54.707,0,0,0,36.736,6.323c13.836-2.34,26.169-9.582,33.838-19.866a8.423,8.423,0,0,0,1.273-8.174,10.255,10.255,0,0,0-7.825-6.09L54.725,114a11.125,11.125,0,0,1-7.354-4.8Z" transform="translate(-0.001 -65.942)" fill="url(#linear-gradient)"/>
              <path id="Trazado_106310" data-name="Trazado 106310" d="M49.578,126.453a51.586,51.586,0,0,1-31.591-10.62C7.767,107.958,1.551,96.92.487,84.749-1.239,65.027,10.881,46.363,30.646,38.307l.19-.077.086.186L48.508,76.028A10.9,10.9,0,0,0,55.153,81.7h0L84.568,91a11.174,11.174,0,0,1,7.471,7.346,10.145,10.145,0,0,1-1.985,9.442,52.162,52.162,0,0,1-35.731,18.462q-2.381.208-4.745.208ZM30.62,38.784C11.143,46.809-.788,65.241.916,84.711c1.054,12.049,7.21,22.98,17.335,30.78a51.458,51.458,0,0,0,36.035,10.325,51.725,51.725,0,0,0,35.436-18.305,9.726,9.726,0,0,0,1.9-9.047A10.745,10.745,0,0,0,84.438,91.4l-29.415-9.3a11.334,11.334,0,0,1-6.9-5.9Z" transform="translate(-0.282 -33.232)" fill="url(#linear-gradient)"/>
              <path id="Trazado_106311" data-name="Trazado 106311" d="M51.045,97.495A50.015,50.015,0,0,1,35.118.068l.2-.068,14.31,42.6a11.453,11.453,0,0,0,6.13,6.774L84.254,62.229A11.78,11.78,0,0,1,91,70.626a11.618,11.618,0,0,1-2.744,10.262A50.133,50.133,0,0,1,51.045,97.495ZM35.051.545A49.583,49.583,0,1,0,87.935,80.6a11.187,11.187,0,0,0,2.642-9.885,11.353,11.353,0,0,0-6.5-8.094L55.583,49.764a11.889,11.889,0,0,1-6.361-7.03Z" transform="translate(-0.895)" fill="url(#linear-gradient)"/>
            </g>
            <g id="Grupo_39536" data-name="Grupo 39536" transform="translate(62.392 58.366)">
              <g id="Grupo_39367" data-name="Grupo 39367" transform="translate(0)">
                <g id="Rectángulo_23108" data-name="Rectángulo 23108" stroke="#46474a" stroke-width="0.5" fill="url(#linear-gradient-22)">
                  <rect width="30.893" height="11.442" rx="5.721" stroke="none"/>
                  <rect x="0.25" y="0.25" width="30.393" height="10.942" rx="5.471" fill="none"/>
                </g>
              </g>
              <text id="Beta" transform="translate(7.398 8.485)" fill="#313131" font-size="7" font-family="Roboto-Bold, Roboto" font-weight="700"><tspan x="0" y="0">Beta</tspan></text>
            </g>
          </g>
        </g>
      </g>
      <g id="Grupo_39849" data-name="Grupo 39849" transform="translate(0 -3)">
        <rect id="Rectángulo_23311" data-name="Rectángulo 23311" width="103" height="51" rx="4" transform="translate(8207 1948)"/>
        <text id="Chatea_con_Concierge" data-name="Chatea con
Concierge" transform="translate(8259 1966)" fill="#fff" font-size="20" font-family="Roboto-Light, Roboto" font-weight="300"><tspan x="-49.751" y="0">Chatea con</tspan><tspan x="-44.224" y="26">Concierge</tspan></text>
      </g>
    </g>
  </g>
</svg>
