<svg xmlns="http://www.w3.org/2000/svg" xmlns:xlink="http://www.w3.org/1999/xlink" width="45" height="45.993" viewBox="0 0 45 45.993">
  <defs>
    <linearGradient id="linear-gradient" y1="0.5" x2="1" y2="0.5" gradientUnits="objectBoundingBox">
      <stop offset="0" stop-color="#3ddeed"/>
      <stop offset="1" stop-color="#cb00dd"/>
    </linearGradient>
  </defs>
  <g id="concierge02" transform="translate(-0.001)">
    <path id="Trazado_106291" data-name="Trazado 106291" d="M147.946,175.61a3.045,3.045,0,0,1-1.938-.58c-.915-.727-1.193-2.092-.805-3.945l.008-.039,11.194-7.868a10.7,10.7,0,0,0,2.26-2.209h0l6.252-8.25c1.239-1.636,3.031-2.976,4.078-3.052a.782.782,0,0,1,.633.191c1.26,1.24,1.012,3.939-.68,7.4-3.266,6.687-10.929,14.445-17.082,17.295a9.742,9.742,0,0,1-3.921,1.054Zm-2.552-4.445c-.359,1.753-.1,3.034.741,3.706,1.084.862,3.089.685,5.646-.5,6.117-2.833,13.737-10.549,16.985-17.2,1.652-3.382,1.914-5.995.72-7.171a.591.591,0,0,0-.476-.133c-1,.072-2.722,1.378-3.931,2.972l-6.252,8.25a10.912,10.912,0,0,1-2.305,2.252l-11.129,7.822Z" transform="translate(-136.087 -140.433)" fill="url(#linear-gradient)"/>
    <path id="Trazado_106292" data-name="Trazado 106292" d="M135.676,175.228a3.253,3.253,0,0,1-2.243-.723c-.944-.852-1.142-2.389-.57-4.444l.01-.038,11.836-7.459a10.931,10.931,0,0,0,2.445-2.178l6.947-8.341c1.376-1.652,3.266-2.937,4.33-2.919a.756.756,0,0,1,.619.267c1.143,1.458.661,4.351-1.324,7.937-3.836,6.931-12.145,14.6-18.523,17.107a9.958,9.958,0,0,1-3.526.791Zm-2.629-5.075c-.537,1.957-.357,3.409.521,4.2,1.034.933,3.008.895,5.559-.106,6.341-2.488,14.6-10.122,18.42-17.017,1.943-3.511,2.432-6.322,1.341-7.713a.565.565,0,0,0-.462-.189c-.992-.01-2.829,1.235-4.171,2.846l-6.947,8.341-.078-.065.078.065a11.137,11.137,0,0,1-2.492,2.22Z" transform="translate(-124.368 -139.929)" fill="url(#linear-gradient)"/>
    <path id="Trazado_106293" data-name="Trazado 106293" d="M123.393,176.287a3.477,3.477,0,0,1-2.585-.907c-.97-.992-1.071-2.712-.291-4.974l.012-.036,12.44-6.954a11.04,11.04,0,0,0,2.626-2.128l7.648-8.374c1.506-1.649,3.508-2.857,4.558-2.752a.75.75,0,0,1,.608.348c1.009,1.682.276,4.763-2.01,8.452-4.425,7.14-13.371,14.662-19.944,16.769a10.241,10.241,0,0,1-3.061.556Zm-2.7-5.778c-.739,2.167-.651,3.8.257,4.729.981,1,2.912,1.108,5.439.3,6.533-2.093,15.43-9.576,19.833-16.682,2.245-3.623,2.977-6.627,2.009-8.241a.555.555,0,0,0-.453-.25c-.99-.1-2.921,1.081-4.388,2.687l-7.648,8.374-.075-.068.075.068a11.268,11.268,0,0,1-2.676,2.168L120.7,170.51Z" transform="translate(-112.596 -140.895)" fill="url(#linear-gradient)"/>
    <path id="Trazado_106294" data-name="Trazado 106294" d="M111.283,178.818a3.78,3.78,0,0,1-3-1.118c-.99-1.148-.978-3.062.036-5.534l.015-.036,13-6.351a11.042,11.042,0,0,0,2.8-2.055l8.349-8.342c1.653-1.652,3.7-2.749,4.762-2.553a.771.771,0,0,1,.6.437c.856,1.911-.142,5.172-2.738,8.947-5.03,7.312-14.6,14.609-21.33,16.267a10.542,10.542,0,0,1-2.488.339Zm-2.792-6.539c-.968,2.379-.987,4.208-.056,5.289s2.766,1.335,5.287.714c6.691-1.647,16.206-8.908,21.211-16.185,2.555-3.715,3.547-6.9,2.721-8.748a.568.568,0,0,0-.45-.32c-.986-.181-3,.915-4.581,2.5l-8.349,8.343-.072-.072.072.072a11.264,11.264,0,0,1-2.855,2.094l-12.929,6.318Z" transform="translate(-100.914 -143.381)" fill="url(#linear-gradient)"/>
    <path id="Trazado_106295" data-name="Trazado 106295" d="M99.434,182.981a4.156,4.156,0,0,1-3.5-1.38c-1-1.324-.857-3.44.415-6.12l.017-.035,13.5-5.646a10.939,10.939,0,0,0,2.969-1.959l.068.075-.068-.075,9.044-8.242c1.762-1.606,3.884-2.606,4.938-2.323a.8.8,0,0,1,.59.535c.685,2.145-.593,5.577-3.506,9.414-5.648,7.441-15.817,14.437-22.668,15.594a10.849,10.849,0,0,1-1.8.163Zm-2.92-7.377c-1.2,2.554-1.354,4.64-.42,5.875.878,1.161,2.642,1.554,5.1,1.139,6.808-1.15,16.919-8.11,22.54-15.516,2.872-3.784,4.138-7.148,3.474-9.229a.6.6,0,0,0-.448-.4c-.974-.261-3.062.739-4.749,2.277l-9.044,8.242a11.128,11.128,0,0,1-3.027,2L96.514,175.6Z" transform="translate(-89.397 -147.531)" fill="url(#linear-gradient)"/>
    <path id="Trazado_106296" data-name="Trazado 106296" d="M88.2,188.806c-1.959,0-3.369-.582-4.108-1.707-.984-1.5-.682-3.887.851-6.728l.019-.035L98.9,175.5a10.664,10.664,0,0,0,3.128-1.84l9.728-8.068c1.858-1.541,4.045-2.429,5.085-2.064a.843.843,0,0,1,.581.646c.494,2.383-1.077,5.973-4.311,9.848-6.275,7.522-17.016,14.134-23.943,14.738q-.507.044-.973.044Zm-3.1-8.3c-1.48,2.756-1.779,5.059-.841,6.485.813,1.237,2.505,1.78,4.893,1.572,6.881-.6,17.559-7.179,23.8-14.665,3.194-3.828,4.749-7.356,4.267-9.678a.641.641,0,0,0-.449-.5c-.979-.343-3.081.529-4.888,2.029l-9.728,8.068a10.882,10.882,0,0,1-3.191,1.876L85.1,180.5Z" transform="translate(-78.369 -153.367)" fill="url(#linear-gradient)"/>
    <path id="Trazado_106297" data-name="Trazado 106297" d="M77.316,196.341h0c-2.381,0-4.053-.733-4.833-2.118-.964-1.712-.485-4.322,1.348-7.351l.021-.035,14.312-3.915a10.307,10.307,0,0,0,3.275-1.7l10.394-7.815c1.971-1.482,4.158-2.229,5.2-1.777a.907.907,0,0,1,.57.77c.284,2.622-1.593,6.356-5.15,10.245-6.905,7.55-18.18,13.691-25.136,13.691Zm-3.335-9.329c-1.777,2.948-2.247,5.472-1.324,7.111.742,1.317,2.352,2.014,4.656,2.015h0c6.906,0,18.113-6.111,24.986-13.625,3.517-3.846,5.375-7.521,5.1-10.086a.705.705,0,0,0-.449-.606c-.965-.419-3.114.336-5,1.753l-10.394,7.815-.061-.081.061.081a10.524,10.524,0,0,1-3.343,1.729L73.98,187.011Z" transform="translate(-67.552 -160.926)" fill="url(#linear-gradient)"/>
    <path id="Trazado_106298" data-name="Trazado 106298" d="M67.115,205.729q-.6,0-1.163-.053c-2.285-.218-3.861-1.112-4.558-2.586-.921-1.948-.242-4.782,1.91-7.98l.023-.035,14.6-2.883a9.851,9.851,0,0,0,3.408-1.526l11.036-7.478c2.037-1.38,4.259-2,5.285-1.463a.991.991,0,0,1,.556.911c.054,2.862-2.14,6.724-6.02,10.6-7.132,7.116-18.053,12.5-25.078,12.5Zm-3.665-10.47c-2.093,3.121-2.758,5.87-1.871,7.745.664,1.406,2.183,2.26,4.393,2.471,6.875.656,18.576-4.9,26.078-12.385,3.841-3.833,6.013-7.64,5.96-10.448a.79.79,0,0,0-.446-.735c-.949-.492-3.131.132-5.078,1.451l-11.036,7.478-.057-.084.057.084a10.072,10.072,0,0,1-3.483,1.557L63.45,195.259Z" transform="translate(-57.231 -170.34)" fill="url(#linear-gradient)"/>
    <path id="Trazado_106299" data-name="Trazado 106299" d="M57.733,216.846a12.792,12.792,0,0,1-2.507-.229c-2.181-.437-3.653-1.5-4.257-3.071-.847-2.206.054-5.262,2.54-8.6l.026-.035,14.8-1.739a9.327,9.327,0,0,0,3.526-1.329L83.5,194.788c2.118-1.282,4.311-1.745,5.334-1.126a1.1,1.1,0,0,1,.535,1.07c-.2,3.1-2.716,7.072-6.917,10.895-7.246,6.594-17.679,11.218-24.722,11.218ZM53.645,205.1c-2.423,3.27-3.305,6.243-2.487,8.374.577,1.5,2,2.521,4.108,2.944,6.792,1.362,18.928-3.546,27.053-10.94,4.162-3.788,6.659-7.708,6.852-10.757a.893.893,0,0,0-.438-.883c-.946-.573-3.1-.1-5.124,1.126l-11.646,7.051a9.544,9.544,0,0,1-3.607,1.356L53.645,205.1Z" transform="translate(-47.533 -181.463)" fill="url(#linear-gradient)"/>
    <path id="Trazado_106300" data-name="Trazado 106300" d="M49.274,229.93a13.466,13.466,0,0,1-4.062-.558,5.513,5.513,0,0,1-3.931-3.58c-.737-2.483.413-5.753,3.237-9.205l.029-.036,14.895-.481a8.771,8.771,0,0,0,3.626-1.1l12.216-6.533c2.148-1.149,4.347-1.464,5.347-.766a1.225,1.225,0,0,1,.508,1.25c-.464,3.335-3.321,7.394-7.838,11.134-7.228,5.986-17.043,9.878-24.028,9.878Zm-4.628-13.179c-2.759,3.386-3.885,6.575-3.171,8.983a5.319,5.319,0,0,0,3.8,3.444c6.646,2.117,19.161-2.047,27.9-9.283,4.478-3.709,7.309-7.72,7.766-11.006a1.02,1.02,0,0,0-.423-1.055c-.925-.645-3.085-.318-5.136.778l-12.216,6.533-.048-.089.048.089a8.968,8.968,0,0,1-3.715,1.127l-14.8.478Z" transform="translate(-38.53 -194.515)" fill="url(#linear-gradient)"/>
    <path id="Trazado_106301" data-name="Trazado 106301" d="M41.893,244.875a14.254,14.254,0,0,1-5.844-1.074,5.859,5.859,0,0,1-3.578-4.124c-.582-2.774.839-6.242,4-9.766l.033-.036,14.883.891a8.158,8.158,0,0,0,3.7-.851L67.83,224c2.161-1,4.349-1.163,5.324-.387a1.378,1.378,0,0,1,.471,1.453c-.752,3.565-3.951,7.687-8.775,11.308-7.066,5.3-16.135,8.5-22.958,8.5Zm-5.3-14.793c-3.095,3.462-4.487,6.853-3.921,9.553a5.663,5.663,0,0,0,3.464,3.981c6.433,2.921,19.262-.4,28.595-7.409,4.785-3.592,7.956-7.67,8.7-11.187a1.171,1.171,0,0,0-.4-1.252c-.917-.729-3.018-.559-5.112.413L55.178,230.1a8.374,8.374,0,0,1-3.8.87l-14.785-.884Z" transform="translate(-30.347 -209.359)" fill="url(#linear-gradient)"/>
    <path id="Trazado_106302" data-name="Trazado 106302" d="M35.67,261.455a15.143,15.143,0,0,1-7.853-1.815,6.367,6.367,0,0,1-3.193-4.718c-.376-3.071,1.337-6.716,4.825-10.264l.037-.038,14.752,2.375a7.563,7.563,0,0,0,3.761-.57l13.206-5.2c2.188-.862,4.3-.859,5.262.007a1.563,1.563,0,0,1,.421,1.682c-1.06,3.787-4.6,7.945-9.725,11.408-6.747,4.564-14.962,7.132-21.492,7.132Zm-6.113-16.617c-3.419,3.491-5.1,7.062-4.732,10.059a6.169,6.169,0,0,0,3.1,4.57c6.153,3.771,19.218,1.388,29.125-5.313,5.081-3.437,8.6-7.554,9.643-11.295a1.37,1.37,0,0,0-.361-1.476c-.9-.815-2.933-.8-5.052.031l-13.206,5.2a7.761,7.761,0,0,1-3.868.582l-14.649-2.358Z" transform="translate(-23.056 -225.743)" fill="url(#linear-gradient)"/>
    <path id="Trazado_106303" data-name="Trazado 106303" d="M30.654,279.839c-4.121,0-7.7-.917-10.064-2.82a7.076,7.076,0,0,1-2.766-5.377c-.118-3.363,1.9-7.153,5.7-10.672l.041-.038L38.056,264.9a6.968,6.968,0,0,0,3.792-.261l13.609-4.379c2.2-.707,4.225-.545,5.163.414a1.779,1.779,0,0,1,.355,1.938c-1.385,4-5.278,8.163-10.68,11.428a39.584,39.584,0,0,1-19.64,5.8Zm-7.035-18.682c-3.722,3.468-5.708,7.187-5.591,10.478a6.88,6.88,0,0,0,2.69,5.226c5.8,4.666,19.02,3.323,29.471-2.994,5.362-3.24,9.223-7.367,10.593-11.321a1.587,1.587,0,0,0-.308-1.729c-.871-.891-2.862-1.036-4.955-.363L41.91,264.833A7.169,7.169,0,0,1,38,265.1l-14.384-3.94Z" transform="translate(-16.72 -243.799)" fill="url(#linear-gradient)"/>
    <path id="Trazado_106304" data-name="Trazado 106304" d="M26.835,268.991c-5.231,0-9.765-1.37-12.409-4.129a8.032,8.032,0,0,1-2.281-6.116c.191-3.636,2.535-7.531,6.6-10.967l.047-.039,14.1,5.673a6.427,6.427,0,0,0,3.8.076l13.938-3.453c2.157-.534,4.13-.208,5.025.831a2.056,2.056,0,0,1,.269,2.223c-1.728,4.2-5.968,8.337-11.633,11.36a38.042,38.042,0,0,1-17.447,4.539ZM18.83,247.974c-3.994,3.389-6.295,7.216-6.482,10.782a7.834,7.834,0,0,0,2.225,5.965c5.37,5.6,18.654,5.4,29.614-.45,5.625-3,9.831-7.105,11.541-11.258A1.841,1.841,0,0,0,55.493,251c-.846-.981-2.739-1.282-4.822-.767l-13.938,3.453-.025-.1.025.1a6.63,6.63,0,0,1-3.921-.085L18.83,247.974Z" transform="translate(-11.383 -232.46)" fill="url(#linear-gradient)"/>
    <path id="Trazado_106305" data-name="Trazado 106305" d="M23.978,239.985c-6.407,0-11.976-1.976-14.786-5.776-3.847-5.2-1.52-12.464,5.791-18.069l.052-.04,13.551,7.48a5.948,5.948,0,0,0,3.77.442L46.542,221.6c2.132-.364,3.992.117,4.851,1.255a2.358,2.358,0,0,1,.159,2.538c-2.086,4.378-6.67,8.46-12.578,11.2a36.239,36.239,0,0,1-15,3.393Zm-8.925-23.644c-7.175,5.527-9.466,12.653-5.7,17.747,2.334,3.156,6.7,5.138,12.3,5.582a35.157,35.157,0,0,0,17.234-3.263c5.865-2.717,10.414-6.763,12.48-11.1a2.138,2.138,0,0,0-.138-2.328c-.8-1.06-2.629-1.522-4.655-1.177l-14.186,2.418-.017-.1.017.1a6.152,6.152,0,0,1-3.9-.464l-13.434-7.416Z" transform="translate(-6.901 -202.772)" fill="url(#linear-gradient)"/>
    <path id="Trazado_106306" data-name="Trazado 106306" d="M22.39,209.759c-7.6,0-14.243-2.77-17.07-7.787-3.376-5.991-.425-13.626,7.343-19l.059-.041,12.85,9.386a5.557,5.557,0,0,0,3.714.835l.009.1-.009-.1,14.343-1.274c2.061-.183,3.841.461,4.644,1.682a2.709,2.709,0,0,1,.02,2.883c-2.459,4.542-7.381,8.526-13.5,10.93a34.188,34.188,0,0,1-12.4,2.387ZM12.719,183.18C5.087,188.488,2.185,195.992,5.5,201.872c2.051,3.64,6.23,6.2,11.768,7.211a32.516,32.516,0,0,0,17.448-1.9c6.079-2.387,10.964-6.337,13.4-10.838a2.514,2.514,0,0,0-.011-2.674c-.762-1.158-2.469-1.768-4.456-1.591L29.3,193.354a5.76,5.76,0,0,1-3.851-.873l-12.734-9.3Z" transform="translate(-3.695 -171.648)" fill="url(#linear-gradient)"/>
    <path id="Trazado_106307" data-name="Trazado 106307" d="M21.81,178.474a27.912,27.912,0,0,1-7.97-1.129C8.352,175.708,4.366,172.5,2.616,168.3c-2.837-6.8.767-14.781,8.968-19.862l.067-.041,11.986,11.382a5.307,5.307,0,0,0,3.623,1.255v0l14.4-.021h.01a4.916,4.916,0,0,1,4.393,2.114,3.114,3.114,0,0,1-.154,3.253c-2.845,4.685-8.1,8.532-14.406,10.555a31.868,31.868,0,0,1-9.693,1.535ZM11.624,148.655C3.557,153.683.012,161.54,2.8,168.225c1.726,4.137,5.667,7.307,11.1,8.926a30.018,30.018,0,0,0,17.543-.4c6.264-2.008,11.474-5.823,14.295-10.467a2.92,2.92,0,0,0,.15-3.049,4.718,4.718,0,0,0-4.216-2.011h-.01l-14.4.021h-.01A5.465,5.465,0,0,1,23.5,159.93L11.624,148.656Z" transform="translate(-1.555 -139.247)" fill="url(#linear-gradient)"/>
    <path id="Trazado_106308" data-name="Trazado 106308" d="M21.879,146.288a26.648,26.648,0,0,1-10.529-2.1c-5.324-2.292-9.015-6.145-10.392-10.85-2.233-7.624,2.053-15.92,10.663-20.642l.074-.041,10.95,13.463a5.089,5.089,0,0,0,3.5,1.7l14.347,1.341a4.908,4.908,0,0,1,4.135,2.552,3.627,3.627,0,0,1-.368,3.646c-3.242,4.8-8.809,8.471-15.272,10.064a29.742,29.742,0,0,1-7.107.87ZM11.644,112.91c-8.474,4.682-12.69,12.858-10.492,20.367,1.36,4.645,5.01,8.453,10.277,10.721a27.744,27.744,0,0,0,17.507,1.223c6.414-1.581,11.937-5.219,15.152-9.98a3.385,3.385,0,0,0,.352-3.445,4.71,4.71,0,0,0-3.971-2.436l-14.347-1.341a5.293,5.293,0,0,1-3.637-1.776Z" transform="translate(-0.349 -105.702)" fill="url(#linear-gradient)"/>
    <path id="Trazado_106309" data-name="Trazado 106309" d="M22.54,113.352a25.432,25.432,0,0,1-12.853-3.4,18.77,18.77,0,0,1-9.4-12.727C-1.275,88.767,3.716,80.2,12.7,75.9l.082-.039,9.736,15.616a5.043,5.043,0,0,0,3.336,2.175l14.175,2.811a5.041,5.041,0,0,1,3.842,3,4.172,4.172,0,0,1-.627,4.05,25.349,25.349,0,0,1-16.092,9.451,27.639,27.639,0,0,1-4.612.39ZM12.708,76.122C3.857,80.391-1.053,88.847.483,97.192A18.571,18.571,0,0,0,9.789,109.78a25.808,25.808,0,0,0,17.33,2.983,25.146,25.146,0,0,0,15.963-9.372,3.973,3.973,0,0,0,.6-3.856,4.838,4.838,0,0,0-3.691-2.873L25.817,93.851a5.248,5.248,0,0,1-3.469-2.267Z" transform="translate(0 -71.181)" fill="url(#linear-gradient)"/>
    <path id="Trazado_106310" data-name="Trazado 106310" d="M23.559,79.849a24.335,24.335,0,0,1-14.9-5.01A20.726,20.726,0,0,1,.4,60.175c-.814-9.3,4.9-18.108,14.227-21.909l.089-.036.041.088,8.3,17.744a5.143,5.143,0,0,0,3.134,2.674h0l13.877,4.387a5.271,5.271,0,0,1,3.524,3.466,4.786,4.786,0,0,1-.936,4.454A24.607,24.607,0,0,1,25.8,79.751q-1.123.1-2.238.1ZM14.616,38.492C5.428,42.277-.2,50.972.6,60.157a20.525,20.525,0,0,0,8.178,14.52,24.275,24.275,0,0,0,17,4.871A24.4,24.4,0,0,0,42.5,70.913a4.588,4.588,0,0,0,.9-4.268A5.069,5.069,0,0,0,40,63.315L26.128,58.928a5.347,5.347,0,0,1-3.257-2.781Z" transform="translate(-0.304 -35.872)" fill="url(#linear-gradient)"/>
    <path id="Trazado_106311" data-name="Trazado 106311" d="M24.624,45.993A23.594,23.594,0,0,1,17.111.032l.1-.032,6.75,20.1a5.4,5.4,0,0,0,2.892,3.2l13.441,6.065a5.557,5.557,0,0,1,3.182,3.961,5.481,5.481,0,0,1-1.295,4.841A23.65,23.65,0,0,1,24.624,45.993ZM17.079.257A23.391,23.391,0,1,0,42.027,38.023a5.277,5.277,0,0,0,1.246-4.663,5.356,5.356,0,0,0-3.067-3.818L26.765,23.476a5.609,5.609,0,0,1-3-3.316Z" transform="translate(-0.966)" fill="url(#linear-gradient)"/>
  </g>
</svg>
