<svg id="Grupo_39401" data-name="Grupo 39401" xmlns="http://www.w3.org/2000/svg" xmlns:xlink="http://www.w3.org/1999/xlink" width="23.212" height="36.064" viewBox="0 0 23.212 36.064">
  <defs>
    <clipPath id="clip-path">
      <rect id="Rectángulo_23157" data-name="Rectángulo 23157" width="23.212" height="36.064" fill="none"/>
    </clipPath>
  </defs>
  <g id="Grupo_39400" data-name="Grupo 39400" clip-path="url(#clip-path)">
    <path id="Trazado_106442" data-name="Trazado 106442" d="M16.029,121.491a1.057,1.057,0,0,0-.989-1.055,1.542,1.542,0,0,0-2.235-1.824,1.544,1.544,0,0,0-2.2,1.906,1.6,1.6,0,0,0,.573,3.144,2.114,2.114,0,0,0,3.944-1.125,1.057,1.057,0,0,0,.911-1.047" transform="translate(-8.291 -105.64)" fill="#caeded"/>
    <path id="Trazado_106443" data-name="Trazado 106443" d="M48.736,121.491a1.057,1.057,0,0,0-.989-1.055,1.542,1.542,0,0,0-2.235-1.824,1.544,1.544,0,0,0-2.2,1.906,1.6,1.6,0,0,0,.573,3.144,2.114,2.114,0,0,0,3.944-1.125,1.057,1.057,0,0,0,.911-1.047" transform="translate(-37.473 -105.64)" fill="#dcf7f6"/>
    <path id="Trazado_106444" data-name="Trazado 106444" d="M81.442,121.491a1.057,1.057,0,0,0-.989-1.055,1.542,1.542,0,0,0-2.235-1.824,1.544,1.544,0,0,0-2.2,1.906,1.6,1.6,0,0,0,.573,3.144,2.114,2.114,0,0,0,3.944-1.125,1.057,1.057,0,0,0,.911-1.047" transform="translate(-66.654 -105.64)" fill="#caeded"/>
    <path id="Trazado_106445" data-name="Trazado 106445" d="M114.149,121.491a1.057,1.057,0,0,0-.989-1.055,1.543,1.543,0,0,0-2.235-1.824,1.544,1.544,0,0,0-2.2,1.906,1.6,1.6,0,0,0,.573,3.144,2.114,2.114,0,0,0,3.944-1.125,1.057,1.057,0,0,0,.911-1.047" transform="translate(-95.836 -105.64)" fill="#dcf7f6"/>
    <path id="Trazado_106446" data-name="Trazado 106446" d="M146.854,121.491a1.057,1.057,0,0,0-.989-1.055,1.542,1.542,0,0,0-2.235-1.824,1.544,1.544,0,0,0-2.2,1.906,1.6,1.6,0,0,0,.573,3.144,2.114,2.114,0,0,0,3.944-1.125,1.057,1.057,0,0,0,.911-1.047" transform="translate(-125.016 -105.64)" fill="#caeded"/>
    <path id="Trazado_106447" data-name="Trazado 106447" d="M11.605,147.715v20.142H3.59L0,147.715Z" transform="translate(0 -131.794)" fill="#bce0e2"/>
    <path id="Trazado_106448" data-name="Trazado 106448" d="M119.283,147.711l-3.591,20.143h-8.015V147.711Z" transform="translate(-96.072 -131.79)" fill="#a6c9c9"/>
    <path id="Trazado_106449" data-name="Trazado 106449" d="M34.587,49.462a1.109,1.109,0,0,0-1.038-1.107A1.619,1.619,0,0,0,31.2,46.44a1.621,1.621,0,0,0-2.314,2,1.677,1.677,0,0,0,.6,3.3,2.219,2.219,0,0,0,4.14-1.181,1.11,1.11,0,0,0,.957-1.1" transform="translate(-24.55 -41.237)" fill="#caeded"/>
    <path id="Trazado_106450" data-name="Trazado 106450" d="M47.808,62.386a1.125,1.125,0,0,0-2.048-.646,1.125,1.125,0,0,0-.621,2.152,1.125,1.125,0,0,0,2.167-.57,1.125,1.125,0,0,0,.5-.936" transform="translate(-39.641 -54.657)" fill="#edae0f"/>
    <path id="Trazado_106451" data-name="Trazado 106451" d="M53.588,68.787a3.546,3.546,0,1,0,.136.548.6.6,0,0,0-.136-.548" transform="translate(-46.63 -61.196)" fill="#e88d0a"/>
    <path id="Trazado_106452" data-name="Trazado 106452" d="M129.04,66.939a.716.716,0,0,0-.424-.882,1.526,1.526,0,0,0-2.884-.849,1.082,1.082,0,0,0-.269,2.147,1.431,1.431,0,0,0,2.776.075.716.716,0,0,0,.8-.491" transform="translate(-111.097 -57.179)" fill="#caeded"/>
    <path id="Trazado_106453" data-name="Trazado 106453" d="M138.47,76.546a4.3,4.3,0,1,0-.489.479.726.726,0,0,0,.489-.479" transform="translate(-121.582 -67.453)" fill="#edae0f"/>
    <path id="Trazado_106454" data-name="Trazado 106454" d="M141.566,79.535a2.287,2.287,0,1,0-.023.364.386.386,0,0,0,.023-.364" transform="translate(-125.395 -70.761)" fill="#e88d0a"/>
    <path id="Trazado_106455" data-name="Trazado 106455" d="M94.416.35a.879.879,0,0,0-1.191.17,1.283,1.283,0,0,0-2.31.651,1.285,1.285,0,0,0,.245,2.412,1.329,1.329,0,0,0,2.415,1.112,1.758,1.758,0,0,0,1.118-3.223A.879.879,0,0,0,94.416.35" transform="translate(-80.458 0)" fill="#caeded"/>
    <path id="Trazado_106456" data-name="Trazado 106456" d="M105.231,11.071a.892.892,0,0,0-1.351,1.035,1.166,1.166,0,1,0,1.73-.283.891.891,0,0,0-.379-.751" transform="translate(-92.445 -9.733)" fill="#edae0f"/>
    <path id="Trazado_106457" data-name="Trazado 106457" d="M109.237,19.074a.474.474,0,0,0-.165.89.475.475,0,0,0,.933.149.882.882,0,0,0-.768-1.039" transform="translate(-97.091 -17.015)" fill="#e88d0a"/>
    <path id="Trazado_106458" data-name="Trazado 106458" d="M18.6,167.857H17.267L14.32,147.715H16.6Z" transform="translate(-12.777 -131.794)" fill="#f2501d"/>
    <path id="Trazado_106459" data-name="Trazado 106459" d="M57.068,167.857H55.207l-1.593-20.142h2.392Z" transform="translate(-47.835 -131.794)" fill="#f2501d"/>
    <path id="Trazado_106460" data-name="Trazado 106460" d="M161.315,167.857h1.334l2.947-20.142h-2.282Z" transform="translate(-143.928 -131.794)" fill="#e22303"/>
    <path id="Trazado_106461" data-name="Trazado 106461" d="M129.694,167.857h1.861l1.593-20.142h-2.392Z" transform="translate(-115.715 -131.794)" fill="#e22303"/>
    <path id="Trazado_106462" data-name="Trazado 106462" d="M99.435,167.858H97.688l-.228-20.143h2.2Z" transform="translate(-86.956 -131.794)" fill="#e22303"/>
  </g>
</svg>
