<svg xmlns="http://www.w3.org/2000/svg" width="36.933" height="32.352" viewBox="0 0 36.933 32.352">
  <g id="_3d-glasses" data-name="3d-glasses" transform="translate(0 -31.75)">
    <g id="Grupo_39461" data-name="Grupo 39461" transform="translate(0.541 32.291)">
      <g id="Grupo_39452" data-name="Grupo 39452" transform="translate(5.614)">
        <path id="Trazado_106551" data-name="Trazado 106551" d="M107.418,46.632a2.16,2.16,0,0,0-2.965-.94.142.142,0,0,1-.209-.093c-.18-.872-1.874-1.153-1.874-1.153a1.7,1.7,0,0,0-1.52,1.016.145.145,0,0,1-.217.046,3.032,3.032,0,0,0-1.7-.727,2.555,2.555,0,0,0-2.526,2.4.145.145,0,0,1-.191.123,3.591,3.591,0,0,0-.887-.169A2.089,2.089,0,0,0,93.4,48.677a.142.142,0,0,1-.157.091,4.32,4.32,0,0,0-1.016.124,2.041,2.041,0,0,0-1.977,2.178c-.07,1.558,1.736,2.824,3.279,2.824,1.42,0,16.145-.336,16.8-.336,1.309,0,4.021.242,4.172-1.026a2.589,2.589,0,0,0,.018-.306,2.558,2.558,0,0,0-2.558-2.558q-.1,0-.191.007a.145.145,0,0,1-.152-.169,2.225,2.225,0,0,0-.009-.695,2.239,2.239,0,0,0-2.986-1.722Z" transform="translate(-89.894 -44.072)" fill="#ffbf54"/>
        <path id="Trazado_106552" data-name="Trazado 106552" d="M87.726,47.856c-1.682,0-1.9-3.554,1.182-3.356a.432.432,0,0,0,.418-.254,2.238,2.238,0,0,1,2.442-1.256.434.434,0,0,0,.513-.344,2.309,2.309,0,0,1,2.341-2.023,2.246,2.246,0,0,1,1.286.38.433.433,0,0,0,.58-.083,2.319,2.319,0,0,1,1.72-.842,2.012,2.012,0,0,1,1.468.7,1.919,1.919,0,0,0-3.558-.537.145.145,0,0,1-.217.046,2.637,2.637,0,0,0-4.246,1.83.145.145,0,0,1-.191.123,2.24,2.24,0,0,0-2.8,1.356.142.142,0,0,1-.157.09,2.718,2.718,0,1,0-.46,5.4c1.42,0,18.694.879,19.346.879a2.558,2.558,0,0,0,2.54-2.253c-6.532.045-21.1.147-22.2.147Z" transform="translate(-85.326 -39.25)" fill="#ffa442"/>
      </g>
      <g id="Grupo_39453" data-name="Grupo 39453" transform="translate(6.023 11.289)">
        <path id="Trazado_106553" data-name="Trazado 106553" d="M117.84,206.616H98.522L97,196.95l.055-.289,23.2-.007.12.3-1.321,8.079Z" transform="translate(-96.567 -196.59)" fill="#f7f3f1"/>
        <path id="Trazado_106554" data-name="Trazado 106554" d="M93.354,203.887l-1.272-7.777-.533-.361-.549.361,2.171,13.273h19.463l.849-5.194H93.71A.361.361,0,0,1,93.354,203.887Z" transform="translate(-91 -195.75)" fill="#eae2df"/>
      </g>
      <g id="Grupo_39454" data-name="Grupo 39454" transform="translate(10.784 11.355)">
        <path id="Trazado_106555" data-name="Trazado 106555" d="M169.4,210.226H158.88l-1.087-5.194L157,196.953l.233-.289,13.727-.007.322.3-.793,8.079Z" transform="translate(-157 -196.658)" fill="#fc5461"/>
        <path id="Trazado_106556" data-name="Trazado 106556" d="M180.178,317.944l.51-5.194h-12.7l.51,5.194Z" transform="translate(-167.198 -304.376)" fill="#dd3652"/>
      </g>
      <g id="Grupo_39455" data-name="Grupo 39455" transform="translate(15.545 11.338)">
        <path id="Trazado_106557" data-name="Trazado 106557" d="M227.038,206.4h-3.315l-.458-1.587L223,196.739l.138-.289,4.25-.023.373.312-.264,8.079Z" transform="translate(-223 -196.427)" fill="#f7f3f1"/>
        <path id="Trazado_106558" data-name="Trazado 106558" d="M230.726,317.944l.17-5.194h-4.232l.17,5.194Z" transform="translate(-226.4 -304.359)" fill="#eae2df"/>
      </g>
      <g id="Grupo_39456" data-name="Grupo 39456" transform="translate(4.977 9.486)">
        <path id="Trazado_106559" data-name="Trazado 106559" d="M104.512,172.6l-22.478.023a3.139,3.139,0,0,1-1.424-.642c0-.335-.252-.778-.014-.977a1.078,1.078,0,0,1,.691-.25H105.02a1.082,1.082,0,0,1,1.082,1.082C106.1,172.43,105.11,172.6,104.512,172.6Z" transform="translate(-80.205 -170.75)" fill="#fc5461"/>
        <path id="Trazado_106560" data-name="Trazado 106560" d="M76.891,174.211a1.082,1.082,0,0,0,.691,1.914h23.732a1.082,1.082,0,0,0,1.082-1.082H77.943A1.082,1.082,0,0,1,76.891,174.211Z" transform="translate(-76.5 -173.961)" fill="#dd3652"/>
      </g>
      <g id="Grupo_39458" data-name="Grupo 39458" transform="translate(0 20.811)">
        <path id="Trazado_106561" data-name="Trazado 106561" d="M9.572,329.7,9.5,336.262a1.8,1.8,0,0,0,1.8,1.8H23.778a1.9,1.9,0,0,0,1.8-.938,1.8,1.8,0,0,0,.144-.576l.12-1.484a1.446,1.446,0,0,1,1.442-1.33c.754,0,1.546.28,1.607,1.031l.1,1.639a1.8,1.8,0,0,0,1.8,1.658l12.4-.049a1.989,1.989,0,0,0,1.87-.888,1.8,1.8,0,0,0,.15-.721v-6.853a1.8,1.8,0,0,0-1.8-1.8H11.159a1.8,1.8,0,0,0-.7.142l-.019.009a1.866,1.866,0,0,0-.866,1.8Z" transform="translate(-9.356 -327.75)" fill="#f7f3f1"/>
        <g id="Grupo_39457" data-name="Grupo 39457" transform="translate(0 0.15)">
          <path id="Trazado_106562" data-name="Trazado 106562" d="M8.582,338.34v-8.506A1.8,1.8,0,0,0,7.5,331.487v6.853a1.8,1.8,0,0,0,1.8,1.8H22.067a1.8,1.8,0,0,0,1.653-1.082H9.3A.721.721,0,0,1,8.582,338.34Z" transform="translate(-7.5 -329.834)" fill="#eae2df"/>
          <path id="Trazado_106563" data-name="Trazado 106563" d="M258.725,413.474l-.11-1.4a1.443,1.443,0,0,0-1.439-1.33H256a1.446,1.446,0,0,1,1.442,1.33l.12,1.484a1.8,1.8,0,0,0,1.8,1.658h12.763a1.8,1.8,0,0,0,1.653-1.082H259.444A.721.721,0,0,1,258.725,413.474Z" transform="translate(-238.075 -404.911)" fill="#eae2df"/>
        </g>
      </g>
      <g id="Grupo_39459" data-name="Grupo 39459" transform="translate(3.607 22.975)">
        <path id="Trazado_106564" data-name="Trazado 106564" d="M69.31,363.737h-9.45a.361.361,0,0,1-.361-.361v-5.122a.361.361,0,0,1,.361-.361l.577-.144h9.017a.361.361,0,0,1,.361.361V362.8l-.144.577A.361.361,0,0,1,69.31,363.737Z" transform="translate(-59.356 -357.75)" fill="#8e73ff"/>
        <path id="Trazado_106565" data-name="Trazado 106565" d="M58.943,362.8a.361.361,0,0,1-.361-.361V357.75h-.721a.361.361,0,0,0-.361.361v5.41a.361.361,0,0,0,.361.361H67.6a.361.361,0,0,0,.361-.361V362.8Z" transform="translate(-57.5 -357.75)" fill="#7d67e5"/>
      </g>
      <g id="Grupo_39460" data-name="Grupo 39460" transform="translate(21.785 22.975)">
        <path id="Trazado_106566" data-name="Trazado 106566" d="M321.31,363.737h-9.45a.361.361,0,0,1-.361-.361v-5.122a.361.361,0,0,1,.361-.361l.577-.144h9.017a.361.361,0,0,1,.361.361V362.8l-.144.577A.361.361,0,0,1,321.31,363.737Z" transform="translate(-311.356 -357.75)" fill="#fc5461"/>
        <path id="Trazado_106567" data-name="Trazado 106567" d="M310.943,362.8a.361.361,0,0,1-.361-.361V357.75h-.721a.361.361,0,0,0-.361.361v5.41a.361.361,0,0,0,.361.361H319.6a.361.361,0,0,0,.361-.361V362.8Z" transform="translate(-309.5 -357.75)" fill="#dd3652"/>
      </g>
    </g>
    <g id="Grupo_39462" data-name="Grupo 39462" transform="translate(0 31.75)">
      <path id="Trazado_106568" data-name="Trazado 106568" d="M36.392,57.291a.541.541,0,0,0,.541-.541V54.905a2.347,2.347,0,0,0-2.344-2.344H29.507L30.842,44.4a1.622,1.622,0,0,0,.306-2.943,3.1,3.1,0,0,0-2.708-4.1,2.773,2.773,0,0,0-.039-.412,2.778,2.778,0,0,0-3.227-2.27,2.252,2.252,0,0,0-1.238-.437,2.7,2.7,0,0,0-3.044-.988,2.462,2.462,0,0,0-4.179-.582,3.178,3.178,0,0,0-4.692,2,2.792,2.792,0,0,0-.429-.033,2.763,2.763,0,0,0-2.483,1.527,3.258,3.258,0,0,0-2.9,5.128,1.623,1.623,0,0,0-.12,3.116l1.335,8.161H2.344A2.347,2.347,0,0,0,0,54.905v6.853A2.347,2.347,0,0,0,2.344,64.1H15.108a2.357,2.357,0,0,0,2.337-2.156l.12-1.484a.905.905,0,0,1,1.805,0l.12,1.484A2.357,2.357,0,0,0,21.826,64.1H34.589a2.347,2.347,0,0,0,2.344-2.344V59.274a.541.541,0,1,0-1.082,0v2.484a1.264,1.264,0,0,1-1.262,1.262H21.825a1.269,1.269,0,0,1-1.258-1.161l-.12-1.484a1.987,1.987,0,0,0-3.962,0l-.12,1.484a1.269,1.269,0,0,1-1.258,1.161H2.344a1.264,1.264,0,0,1-1.262-1.262V54.905a1.264,1.264,0,0,1,1.262-1.262H34.589a1.264,1.264,0,0,1,1.262,1.262V56.75A.541.541,0,0,0,36.392,57.291Zm-11.086-4.73.793-8.079h3.634l-1.321,8.079Zm-4.2,0,.264-8.079h3.641l-.793,8.079Zm-4.274-2.367a.541.541,0,1,0-1.081.035l.076,2.332H12.715l-.793-8.079h3.641l.105,3.22a.541.541,0,0,0,.54.523h.018a.541.541,0,0,0,.523-.558l-.1-3.184h3.643l-.264,8.079H16.909ZM6.6,42.318H21.492a.541.541,0,1,0,0-1.082H7.7a2.177,2.177,0,0,1-1-1.931,2.177,2.177,0,0,1,2.638-2.026.541.541,0,0,0,.632-.37,1.7,1.7,0,0,1,2.291-1.062.541.541,0,0,0,.754-.485,2.1,2.1,0,0,1,3.493-1.515.541.541,0,0,0,.857-.187A1.378,1.378,0,0,1,20,34.073a.541.541,0,0,0,.842.4,1.617,1.617,0,0,1,1.923.084,2.122,2.122,0,0,0-.822.934.541.541,0,1,0,.986.445,1.046,1.046,0,0,1,2,.521.574.574,0,0,0,.54.588A.541.541,0,0,0,26,36.546a2.125,2.125,0,0,0-.087-.817,1.715,1.715,0,0,1,1.421,1.394,1.692,1.692,0,0,1-.02.67.541.541,0,0,0,.606.657,2.041,2.041,0,0,1,.3-.022,2.016,2.016,0,0,1,1.855,2.808H24.016a.541.541,0,1,0,0,1.082h6.316a.541.541,0,1,1,0,1.082H6.6a.541.541,0,0,1,0-1.082Zm.6,2.164h3.634l.793,8.079H8.522Z" transform="translate(0 -31.75)"/>
      <path id="Trazado_106569" data-name="Trazado 106569" d="M55.212,356.381a.541.541,0,0,0,0,1.082H61a.541.541,0,0,0,.541-.541v-6.131A.541.541,0,0,0,61,350.25H50.541a.541.541,0,0,0-.541.541v6.131a.541.541,0,0,0,.541.541h2.146a.541.541,0,0,0,0-1.082H51.082v-5.049H60.46v5.049Z" transform="translate(-46.393 -327.275)"/>
      <path id="Trazado_106570" data-name="Trazado 106570" d="M302.541,350.25a.541.541,0,0,0-.541.541v6.131a.541.541,0,0,0,.541.541H313a.541.541,0,0,0,.541-.541v-6.131a.541.541,0,0,0-.541-.541Zm9.919,6.131h-9.378v-5.049h9.378Z" transform="translate(-280.215 -327.275)"/>
      <path id="Trazado_106571" data-name="Trazado 106571" d="M302.1,110.77a.992.992,0,0,1,1.713.118.541.541,0,0,0,.66.274.649.649,0,0,1,.855.535.581.581,0,0,0,.6.471.541.541,0,0,0,.471-.6,1.734,1.734,0,0,0-1.72-1.52q-.061,0-.123,0a2.074,2.074,0,0,0-3.355.115.541.541,0,1,0,.9.606Z" transform="translate(-279.389 -103.66)"/>
      <path id="Trazado_106572" data-name="Trazado 106572" d="M185.337,94.44l-.057,0a2.272,2.272,0,0,0-4.158.37.541.541,0,1,0,1.028.338,1.191,1.191,0,0,1,2.1-.324,1.729,1.729,0,0,0-.505.671.541.541,0,0,0,1,.422.649.649,0,0,1,1.248.253.541.541,0,1,0,1.082,0A1.733,1.733,0,0,0,185.337,94.44Z" transform="translate(-168.032 -88.814)"/>
      <path id="Trazado_106573" data-name="Trazado 106573" d="M124.845,119.668a1.582,1.582,0,0,0-.467,1.688.541.541,0,1,0,1.029-.336.5.5,0,0,1,.857-.486.541.541,0,0,0,.817-.71A1.586,1.586,0,0,0,124.845,119.668Z" transform="translate(-115.333 -112.966)"/>
    </g>
  </g>
</svg>
