<svg id="watch" xmlns="http://www.w3.org/2000/svg" width="33.775" height="34.677" viewBox="0 0 33.775 34.677">
  <path id="Trazado_106639" data-name="Trazado 106639" d="M97.514,9.811V8.5a1,1,0,1,0-1.995,0V9.811Zm0,0" transform="translate(-89.05 -6.992)" fill="#4c78a0"/>
  <path id="Trazado_106640" data-name="Trazado 106640" d="M375.694,9.811V8.5a1,1,0,1,0-1.995,0V9.811Zm0,0" transform="translate(-348.389 -6.992)" fill="#4c78a0"/>
  <path id="Trazado_106641" data-name="Trazado 106641" d="M88.84,46.588H65.154a.677.677,0,0,1-.677-.677V32.755a.677.677,0,0,1,.677-.677H88.84a.677.677,0,0,1,.677.677V45.911A.677.677,0,0,1,88.84,46.588Zm0,0" transform="translate(-60.11 -29.905)" fill="#235872"/>
  <path id="Trazado_106642" data-name="Trazado 106642" d="M89.517,32.755v12.2H64.477v-12.2a.677.677,0,0,1,.677-.677H88.84A.677.677,0,0,1,89.517,32.755Zm0,0" transform="translate(-60.11 -29.905)" fill="#60daff"/>
  <path id="Trazado_106643" data-name="Trazado 106643" d="M105.542,32.078,92.66,44.96H90.242l12.882-12.882Zm0,0" transform="translate(-84.13 -29.905)" fill="#a0ecff"/>
  <path id="Trazado_106644" data-name="Trazado 106644" d="M162.676,32.078,149.793,44.96h-4.949l12.883-12.882Zm0,0" transform="translate(-135.034 -29.905)" fill="#a0ecff"/>
  <path id="Trazado_106645" data-name="Trazado 106645" d="M91.639,247.847H83.348v-4.421a2.481,2.481,0,0,1,2.481-2.481h3.33a2.481,2.481,0,0,1,2.481,2.481Zm0,0" transform="translate(-77.703 -224.626)" fill="#f55"/>
  <path id="Trazado_106646" data-name="Trazado 106646" d="M284.361,251.765H276.07v-4.421a2.481,2.481,0,0,1,2.481-2.481h3.329a2.481,2.481,0,0,1,2.481,2.481Zm0,0" transform="translate(-257.372 -228.279)" fill="#1ee5ed"/>
  <path id="Trazado_106647" data-name="Trazado 106647" d="M104.559,145.77a3.446,3.446,0,0,1-.056.62c-.013.068-.027.136-.044.2a3.408,3.408,0,0,1-6.683-1.285c.01-.073.022-.144.036-.215a3.362,3.362,0,0,1,.238-.735,3.407,3.407,0,0,1,6.506,1.3C104.559,145.7,104.559,145.733,104.559,145.77Zm0,0" transform="translate(-91.126 -132.721)" fill="#336686"/>
  <path id="Trazado_106648" data-name="Trazado 106648" d="M290.652,155.759H288.3a2.294,2.294,0,0,1-2.214-2.9l.457-1.675a3.041,3.041,0,0,1,5.868,0l.457,1.675A2.294,2.294,0,0,1,290.652,155.759Zm0,0" transform="translate(-266.632 -138.857)" fill="#b08989"/>
  <path id="Trazado_106649" data-name="Trazado 106649" d="M44.294,464.773a1.076,1.076,0,0,1-1.076-1.076v-1.81H45.37v1.81A1.076,1.076,0,0,1,44.294,464.773Zm0,0" transform="translate(-40.292 -430.603)" fill="#4c78a0"/>
  <path id="Trazado_106650" data-name="Trazado 106650" d="M424.763,464.773a1.076,1.076,0,0,1-1.076-1.076v-1.81h2.151v1.81A1.076,1.076,0,0,1,424.763,464.773Zm0,0" transform="translate(-394.992 -430.603)" fill="#4c78a0"/>
  <path id="Trazado_106651" data-name="Trazado 106651" d="M38.636,392.515H9.123A1.623,1.623,0,0,1,7.5,390.892v-2.327a1.623,1.623,0,0,1,1.623-1.623H38.636a1.623,1.623,0,0,1,1.623,1.623v2.327A1.623,1.623,0,0,1,38.636,392.515Zm0,0" transform="translate(-6.992 -360.734)" fill="#cbd359"/>
  <path id="Trazado_106652" data-name="Trazado 106652" d="M65.554,272.038v6.431a.663.663,0,0,1-.664.663H37.421a.663.663,0,0,1-.664-.663v-6.431a2.909,2.909,0,0,1,2.909-2.909H62.644A2.909,2.909,0,0,1,65.554,272.038Zm0,0" transform="translate(-34.268 -250.901)" fill="#e6f072"/>
  <path id="Trazado_106653" data-name="Trazado 106653" d="M164.487,276.468a1.464,1.464,0,0,1-.793,1.162l-.731.374a1.471,1.471,0,0,1-1.588-.161l-.812-.648a1.835,1.835,0,0,1-.415-.467,1.971,1.971,0,0,1-.931-.715l-4.312-6.115a1.969,1.969,0,0,1-.328-.769h4.616l3.249,4.609a1.974,1.974,0,0,1,.236.445,1.8,1.8,0,0,1,.188.129l1.075.86A1.462,1.462,0,0,1,164.487,276.468Zm0,0" transform="translate(-144.109 -250.901)" fill="#cbd359"/>
  <path id="Trazado_106654" data-name="Trazado 106654" d="M65.557,272.042v1.895a2.909,2.909,0,0,0-2.909-2.909H39.671a2.909,2.909,0,0,0-2.909,2.909v-1.895a2.909,2.909,0,0,1,2.909-2.909H62.648A2.909,2.909,0,0,1,65.557,272.042Zm0,0" transform="translate(-34.272 -250.905)" fill="#cbd359"/>
  <path id="Trazado_106655" data-name="Trazado 106655" d="M171.563,254.987a1.16,1.16,0,0,1-.95-.492L166.3,248.38a1.161,1.161,0,1,1,1.9-1.338l4.312,6.115a1.162,1.162,0,0,1-.948,1.831Zm0,0" transform="translate(-154.839 -229.851)" fill="#f55"/>
  <path id="Trazado_106656" data-name="Trazado 106656" d="M245.111,353.542l.812.649a.658.658,0,0,0,.71.072l.731-.374a.658.658,0,0,0,.111-1.1l-1.075-.859a1.032,1.032,0,1,0-1.288,1.612Zm0,0" transform="translate(-228.148 -327.884)" fill="#ffb38c"/>
  <path id="Trazado_106657" data-name="Trazado 106657" d="M31.793,25.705V24.253a.508.508,0,0,0-1.016,0v3.314a.156.156,0,0,1-.156.156H3.153A.156.156,0,0,1,3,27.568v-6.43a2.4,2.4,0,0,1,2.4-2.4h5.592c.018.029,4.368,6.2,4.368,6.2a1.674,1.674,0,0,0,.889.638,1.535,1.535,0,0,0,.4.481l.812.649a1.168,1.168,0,0,0,1.259.127l.731-.374a1.166,1.166,0,0,0,.2-1.949l-1.075-.859a1.542,1.542,0,0,0-.25-.163,1.666,1.666,0,0,0-.232-.474l-3.016-4.277H28.376a2.4,2.4,0,0,1,2.4,2.4v.8a.508.508,0,1,0,1.016,0v-.8a3.421,3.421,0,0,0-3.417-3.417h-1.2a2.973,2.973,0,0,0-.341-.529h1.9a1.187,1.187,0,0,0,1.185-1.185V7.93a.508.508,0,0,0-1.016,0v6.616H26.823a2.823,2.823,0,0,0-.1-.677L26.268,12.2a3.549,3.549,0,0,0-6.848,0l-.457,1.675a2.838,2.838,0,0,0-.1.677H13.643a3.887,3.887,0,0,0,.265-2,3.141,3.141,0,0,0,.5-.184.508.508,0,1,0-.434-.919,2.12,2.12,0,0,1-.324.12A3.914,3.914,0,1,0,6.41,14.547H4.875V2.85a.169.169,0,0,1,.169-.169H28.731a.169.169,0,0,1,.169.169V5.615a.508.508,0,0,0,1.016,0V2.85a1.187,1.187,0,0,0-1.185-1.185h-.918V1.505a1.505,1.505,0,1,0-3.011,0v.159H8.972V1.505a1.505,1.505,0,1,0-3.011,0v.159H5.044A1.187,1.187,0,0,0,3.859,2.85V16.006a1.187,1.187,0,0,0,1.185,1.185h.565a2.927,2.927,0,0,0-.271.53,3.42,3.42,0,0,0-3.357,3.416v4.568A2.134,2.134,0,0,0,0,27.831v2.327a2.134,2.134,0,0,0,2.131,2.131h.288v.8a1.584,1.584,0,0,0,3.167,0v-.8H7.061a.508.508,0,1,0,0-1.016H2.131a1.117,1.117,0,0,1-1.115-1.115V27.831a1.116,1.116,0,0,1,.966-1.1v.841a1.173,1.173,0,0,0,1.172,1.172H30.622a1.173,1.173,0,0,0,1.172-1.172v-.841a1.116,1.116,0,0,1,.966,1.1v2.327a1.117,1.117,0,0,1-1.115,1.115H9.375a.508.508,0,1,0,0,1.016H28.188v.8a1.584,1.584,0,1,0,3.167,0v-.8h.288a2.134,2.134,0,0,0,2.131-2.131V27.831A2.134,2.134,0,0,0,31.793,25.705Zm-5.975-24.2a.489.489,0,0,1,.979,0v.159h-.979Zm-18.841,0a.489.489,0,1,1,.979,0v.159H6.978V1.505Zm4.9,16.731a.647.647,0,0,1-.119-.405.508.508,0,0,0-1.007-.111H6.477a1.987,1.987,0,0,1,1.649-.893h.837l.034,0a3.9,3.9,0,0,0,2.073,0,.535.535,0,0,0,.072.006h.314a1.984,1.984,0,0,1,1.7.968c.01.016,3.959,5.6,3.959,5.6a1.532,1.532,0,0,0-.948.922ZM19.009,25.3a.15.15,0,0,1-.025.25l-.731.374a.15.15,0,0,1-.162-.016l-.812-.648a.524.524,0,0,1,.269-.93.556.556,0,0,1,.059,0,.52.52,0,0,1,.326.115Zm-5.037-8.112h4.879a3,3,0,0,0-.341.529H14.354S13.986,17.211,13.973,17.191Zm5.765.529a1.983,1.983,0,0,1,.832-.532,2.806,2.806,0,0,0,1.1.221h2.354a2.807,2.807,0,0,0,1.1-.221,1.976,1.976,0,0,1,.832.532ZM28.9,16.006a.17.17,0,0,1-.169.169H26.343a2.81,2.81,0,0,0,.313-.612H28.9Zm-8.957-1.868.457-1.675a2.533,2.533,0,0,1,4.888,0l.457,1.675a1.786,1.786,0,0,1-1.723,2.256H21.666a1.787,1.787,0,0,1-1.724-2.256Zm-.912,1.425a2.809,2.809,0,0,0,.312.612H12.955a.52.52,0,0,0-.068.005,3.037,3.037,0,0,0-.324-.153,3.954,3.954,0,0,0,.461-.464Zm-9-5.413a2.9,2.9,0,1,1-2.9,2.9A2.9,2.9,0,0,1,10.027,10.15ZM4.875,16.006v-.443H7.029a4,4,0,0,0,.333.35,3,3,0,0,0-.667.268.532.532,0,0,0-.075-.006H5.044A.169.169,0,0,1,4.875,16.006Zm-.3,17.088a.568.568,0,0,1-1.136,0v-.805H4.571Zm25.769,0a.568.568,0,0,1-1.136,0v-.805H30.34Zm0,0"/>
</svg>
