<svg xmlns="http://www.w3.org/2000/svg" width="30.471" height="26.394" viewBox="0 0 30.471 26.394">
  <g id="friendship" transform="translate(0 -34.25)">
    <g id="Grupo_39506" data-name="Grupo 39506" transform="translate(0.446 34.701)">
      <path id="Trazado_106742" data-name="Trazado 106742" d="M72.476,353.749H58.4a2.723,2.723,0,0,0-2.723,2.723v4.21H66.76v-4.193h5.715Z" transform="translate(-52.805 -335.185)" fill="#80b4fb"/>
      <path id="Trazado_106743" data-name="Trazado 106743" d="M59.662,353.753a2.723,2.723,0,0,0-2.723,2.723v4.211H55.673v-4.211a2.723,2.723,0,0,1,2.723-2.723Z" transform="translate(-52.806 -335.189)" fill="#5490f9"/>
      <g id="Grupo_39503" data-name="Grupo 39503" transform="translate(12.756 0.484)">
        <path id="Trazado_106744" data-name="Trazado 106744" d="M278.377,353.749h-5.642a2.723,2.723,0,0,0-2.723,2.723v4.21H281.1v-4.21A2.723,2.723,0,0,0,278.377,353.749Z" transform="translate(-267.145 -335.669)" fill="#dd636e"/>
        <path id="Trazado_106745" data-name="Trazado 106745" d="M273.923,353.753a2.723,2.723,0,0,0-2.723,2.723v4.211h-1.188v-4.211a2.723,2.723,0,0,1,2.723-2.723Z" transform="translate(-267.145 -335.673)" fill="#da4a54"/>
        <path id="Trazado_106746" data-name="Trazado 106746" d="M340.46,310.627v2.562a1.534,1.534,0,0,1-3.068,0v-2.562Z" transform="translate(-330.515 -295.113)" fill="#c38959"/>
        <g id="Grupo_39501" data-name="Grupo 39501" transform="translate(0 10.163)">
          <path id="Trazado_106747" data-name="Trazado 106747" d="M339.429,314.638a1.536,1.536,0,0,1-2.035-1.45v-2.562h1v2.562A1.534,1.534,0,0,0,339.429,314.638Z" transform="translate(-330.517 -305.276)" fill="#b17a4a"/>
          <path id="Trazado_106748" data-name="Trazado 106748" d="M223.845,223.944a2,2,0,0,1-1.953-2.446.989.989,0,0,1,1.953.218h12.817a.989.989,0,0,1,1.953-.218,2,2,0,0,1-1.953,2.446" transform="translate(-221.842 -220.726)" fill="#b17a4a"/>
          <path id="Trazado_106749" data-name="Trazado 106749" d="M337.393,310.627h3.068v2.36h-3.068Z" transform="translate(-330.516 -305.277)" fill="#b17a4a"/>
        </g>
        <path id="Trazado_106750" data-name="Trazado 106750" d="M255.49,130.792v7.58a4.671,4.671,0,0,0,4.671,4.671h3.475a4.671,4.671,0,0,0,4.671-4.671v-7.58" transform="translate(-253.487 -125.981)" fill="#c38959"/>
        <path id="Trazado_106751" data-name="Trazado 106751" d="M263.1,143.042h-2.942a4.671,4.671,0,0,1-4.671-4.671v-7.58h2.942v7.58A4.671,4.671,0,0,0,263.1,143.042Z" transform="translate(-253.488 -125.98)" fill="#b17a4a"/>
        <g id="Grupo_39502" data-name="Grupo 39502" transform="translate(3.587 12.085)">
          <ellipse id="Elipse_471" data-name="Elipse 471" cx="1.049" cy="0.638" rx="1.049" ry="0.638" transform="translate(7.55)" fill="#e490b7"/>
          <ellipse id="Elipse_472" data-name="Elipse 472" cx="1.049" cy="0.638" rx="1.049" ry="0.638" fill="#e490b7"/>
        </g>
        <path id="Trazado_106752" data-name="Trazado 106752" d="M267,49.956H256.8a1.308,1.308,0,0,0-1.308,1.308V58.7a1.326,1.326,0,0,0,1.326-1.326V55.749h10.164V57.37a1.326,1.326,0,0,0,1.326,1.326V51.264A1.308,1.308,0,0,0,267,49.956Z" transform="translate(-253.487 -49.956)" fill="#544f57"/>
        <path id="Trazado_106753" data-name="Trazado 106753" d="M259.806,49.955a1.307,1.307,0,0,0-1.308,1.308v4.486h-1.682v1.621A1.325,1.325,0,0,1,255.49,58.7V51.263a1.307,1.307,0,0,1,1.308-1.308Z" transform="translate(-253.487 -49.955)" fill="#454045"/>
        <path id="Trazado_106754" data-name="Trazado 106754" d="M404.467,355.831h-.453a.815.815,0,0,1-.815-.815v-1.268h1.313a.769.769,0,0,1,.769.769v.5A.815.815,0,0,1,404.467,355.831Z" transform="translate(-392.407 -335.669)" fill="#ffcbbe"/>
      </g>
      <path id="Trazado_106755" data-name="Trazado 106755" d="M30.554,52.473l-10.254,0H15.808c-.586-2.427-2.013-7.907,2.684-9.979a9.708,9.708,0,0,1,7.322.138S33.961,41.054,30.554,52.473Z" transform="translate(-14.684 -41.824)" fill="#f4dd45"/>
      <path id="Trazado_106756" data-name="Trazado 106756" d="M19.755,50.977l.546,1.5H15.808c-.586-2.427-2.013-7.907,2.684-9.979a9.708,9.708,0,0,1,7.322.138C19,42.637,18.583,48.531,19.755,50.977Z" transform="translate(-14.684 -41.824)" fill="#eab14d"/>
      <path id="Trazado_106757" data-name="Trazado 106757" d="M126.118,310.627v2.562a1.534,1.534,0,0,1-3.068,0v-2.562Z" transform="translate(-116.173 -294.629)" fill="#ffcbbe"/>
      <g id="Grupo_39504" data-name="Grupo 39504" transform="translate(0 10.647)">
        <path id="Trazado_106758" data-name="Trazado 106758" d="M125.087,314.638a1.536,1.536,0,0,1-2.035-1.45v-2.562h1v2.562A1.534,1.534,0,0,0,125.087,314.638Z" transform="translate(-116.175 -305.276)" fill="#eaac9d"/>
        <path id="Trazado_106759" data-name="Trazado 106759" d="M9.5,223.944A2,2,0,0,1,7.549,221.5a.989.989,0,0,1,1.953.218H22.319a.989.989,0,0,1,1.953-.218,2,2,0,0,1-1.953,2.446" transform="translate(-7.5 -220.726)" fill="#eaac9d"/>
        <path id="Trazado_106760" data-name="Trazado 106760" d="M123.05,310.627h3.068v2.36H123.05Z" transform="translate(-116.173 -305.277)" fill="#eaac9d"/>
      </g>
      <path id="Trazado_106761" data-name="Trazado 106761" d="M53.963,150.786v3.267a4.671,4.671,0,0,1-4.671,4.671H45.817a4.671,4.671,0,0,1-4.671-4.671v-3.175c.984-.134,2.031-.313,3.069-.547,2.516-.568,4.98-1.466,6.38-2.866C50.595,147.465,51.483,150.418,53.963,150.786Z" transform="translate(-39.144 -141.178)" fill="#ffcbbe"/>
      <path id="Trazado_106762" data-name="Trazado 106762" d="M48.885,204.006H45.817a4.671,4.671,0,0,1-4.671-4.671V196.16c.984-.134,2.031-.313,3.069-.547v3.722A4.671,4.671,0,0,0,48.885,204.006Z" transform="translate(-39.144 -186.46)" fill="#eaac9d"/>
      <g id="Grupo_39505" data-name="Grupo 39505" transform="translate(3.587 12.569)">
        <ellipse id="Elipse_473" data-name="Elipse 473" cx="1.049" cy="0.638" rx="1.049" ry="0.638" transform="translate(7.55)" fill="#e490b7"/>
        <ellipse id="Elipse_474" data-name="Elipse 474" cx="1.049" cy="0.638" rx="1.049" ry="0.638" fill="#e490b7"/>
      </g>
    </g>
    <g id="Grupo_39507" data-name="Grupo 39507" transform="translate(0 34.25)">
      <path id="Trazado_106763" data-name="Trazado 106763" d="M298.349,214.093c-.334,0-.606.451-.606,1.005s.272,1.005.606,1.005.606-.451.606-1.005S298.683,214.093,298.349,214.093Z" transform="translate(-280.023 -203.39)"/>
      <path id="Trazado_106764" data-name="Trazado 106764" d="M408.833,216.1c.334,0,.606-.451.606-1.005s-.272-1.005-.606-1.005-.606.451-.606,1.005S408.5,216.1,408.833,216.1Z" transform="translate(-383.932 -203.39)"/>
      <path id="Trazado_106765" data-name="Trazado 106765" d="M338.3,260.208a.446.446,0,0,0-.585.238.872.872,0,0,1-1.608,0,.446.446,0,0,0-.823.347,1.765,1.765,0,0,0,3.253,0A.446.446,0,0,0,338.3,260.208Z" transform="translate(-315.298 -246.727)"/>
      <path id="Trazado_106766" data-name="Trazado 106766" d="M23.594,52.687A5.126,5.126,0,0,0,28.265,49a2.451,2.451,0,0,0,2.146-2.978,1.4,1.4,0,0,0-1.559-1.11,1.533,1.533,0,0,0-.383.093V36.493a1.756,1.756,0,0,0-1.754-1.754h-10.2a1.755,1.755,0,0,0-1.469.8,6.12,6.12,0,0,0-3.409-.483,10.023,10.023,0,0,0-7.561-.085A5.8,5.8,0,0,0,.5,40.08a15.24,15.24,0,0,0,.521,4.885A1.4,1.4,0,0,0,.06,46.021,2.451,2.451,0,0,0,2.206,49a5.127,5.127,0,0,0,4.671,3.687v.132h-.84a3.171,3.171,0,0,0-3,2.144.446.446,0,1,0,.845.289,2.278,2.278,0,0,1,2.156-1.54h.893a1.98,1.98,0,0,0,3.856,0h5.805a3.163,3.163,0,0,0-.938,1.847H14.4a.446.446,0,0,0-.446.446v3.747H5.839v-2.48a.446.446,0,0,0-.893,0v2.48H3.76V56.88a.446.446,0,1,0-.893,0V60.2a.446.446,0,0,0,.446.446H14.4a.446.446,0,0,0,.446-.446V56.451h.775V60.2a.446.446,0,0,0,.446.446H27.158A.446.446,0,0,0,27.6,60.2V55.987A3.179,3.179,0,0,0,26.4,53.5a1.216,1.216,0,0,0-1.093-.686H23.594v-.132Zm-3.068.006H22.7v.567a1.088,1.088,0,1,1-2.175,0v-.567Zm7.942-6.355a.542.542,0,0,1,1.072-.119,1.558,1.558,0,0,1-1.1,1.842c.015-.159.024-.321.024-.484ZM16.513,35.631h10.2a.861.861,0,0,1,.861.861v6.865a.88.88,0,0,1-.433-.758V40.978a.446.446,0,0,0-.446-.446h-1.53a.446.446,0,1,0,0,.893H26.25V42.6a1.775,1.775,0,0,0,1.326,1.715v3.261A4.224,4.224,0,0,1,23.352,51.8H19.876a4.248,4.248,0,0,1-4-2.865,2.452,2.452,0,0,0,1.778-2.913,1.408,1.408,0,0,0-.781-.991,18.99,18.99,0,0,0,.684-3.606h5.8a.459.459,0,0,0,.465-.433.446.446,0,0,0-.446-.46H17.595a5.813,5.813,0,0,0-1.292-4.05,4.149,4.149,0,0,0-.5-.47.862.862,0,0,1,.715-.38ZM16.194,45.8a.519.519,0,0,1,.589.42,1.558,1.558,0,0,1-1.1,1.842c.015-.159.024-.321.024-.484V46.337h0A.519.519,0,0,1,16.194,45.8ZM1.385,40.164a4.9,4.9,0,0,1,3.049-4.38,9.327,9.327,0,0,1,6.953.134.449.449,0,0,0,.273.034c.025,0,2.544-.463,3.986,1.134A4.521,4.521,0,0,1,16.674,39.8a14.779,14.779,0,0,1-.7,5.125,1.507,1.507,0,0,0-.262.074v-.7a.446.446,0,0,0-.381-.442c-2.164-.321-3-2.982-3.006-3.008a.446.446,0,0,0-.743-.187c-1.073,1.073-3.538,2.514-9.193,3.286A.446.446,0,0,0,2,44.4V45l-.064-.022a15.032,15.032,0,0,1-.554-4.819Zm-.492,6.4a1.566,1.566,0,0,1,.038-.345.519.519,0,0,1,.589-.42A.519.519,0,0,1,2,46.335v1.241c0,.163.009.325.024.484a1.559,1.559,0,0,1-1.133-1.5Zm2,1.013V44.789c2.963-.433,6.669-1.3,8.822-3.04a6.881,6.881,0,0,0,.566,1.013,4.438,4.438,0,0,0,2.537,1.912v2.9A4.229,4.229,0,0,1,10.595,51.8H7.12A4.229,4.229,0,0,1,2.9,47.576Zm5.962,6.772A1.089,1.089,0,0,1,7.77,53.26v-.567H9.945v.567A1.089,1.089,0,0,1,8.857,54.348Zm1.98-1.529v-.132a5.125,5.125,0,0,0,4.4-2.957,5.112,5.112,0,0,0,4.4,2.957v.132h-8.8Zm15.874,6.933H25.584V57.39a.446.446,0,1,0-.893,0v2.362H18.536V57.39a.446.446,0,1,0-.893,0v2.362H16.516V55.988a2.279,2.279,0,0,1,2.277-2.276h.893a1.98,1.98,0,0,0,3.856,0h.008v.821a1.263,1.263,0,0,0,1.261,1.261h.453a1.263,1.263,0,0,0,1.192-.852,2.275,2.275,0,0,1,.256,1.046Zm-1.08-5.718v.5a.369.369,0,0,1-.369.369h-.453a.369.369,0,0,1-.369-.369v-.821h.867A.323.323,0,0,1,25.632,54.034Z" transform="translate(0 -34.25)"/>
      <path id="Trazado_106767" data-name="Trazado 106767" d="M345.632,239.312h1.248a.446.446,0,0,0,0-.893h-1.248a.446.446,0,0,0,0,.893Z" transform="translate(-324.643 -226.268)"/>
      <path id="Trazado_106768" data-name="Trazado 106768" d="M84.006,214.093c-.334,0-.606.451-.606,1.005s.272,1.005.606,1.005.606-.451.606-1.005S84.34,214.093,84.006,214.093Z" transform="translate(-78.437 -203.39)"/>
      <path id="Trazado_106769" data-name="Trazado 106769" d="M194.49,216.1c.334,0,.606-.451.606-1.005s-.272-1.005-.606-1.005-.606.451-.606,1.005S194.156,216.1,194.49,216.1Z" transform="translate(-182.345 -203.39)"/>
      <path id="Trazado_106770" data-name="Trazado 106770" d="M122.569,261.872a1.762,1.762,0,0,0,1.627-1.08.446.446,0,0,0-.823-.347.872.872,0,0,1-1.608,0,.446.446,0,1,0-.823.347A1.762,1.762,0,0,0,122.569,261.872Z" transform="translate(-113.711 -246.726)"/>
      <path id="Trazado_106771" data-name="Trazado 106771" d="M131.289,239.312h1.248a.446.446,0,1,0,0-.893h-1.248a.446.446,0,1,0,0,.893Z" transform="translate(-123.056 -226.268)"/>
    </g>
  </g>
</svg>
