<svg xmlns="http://www.w3.org/2000/svg" width="70.057" height="70.055" viewBox="0 0 70.057 70.055">
  <g id="chat_1_" data-name="chat (1)" transform="translate(0 -0.006)">
    <g id="Grupo_39523" data-name="Grupo 39523" transform="translate(0 21.213)">
      <g id="Grupo_39522" data-name="Grupo 39522">
        <path id="Trazado_106789" data-name="Trazado 106789" d="M28.87,155C13.027,155,0,165.893,0,179.286A22.619,22.619,0,0,0,5.885,194.3L.507,200.442a2.053,2.053,0,0,0,1.545,3.4h28.87c11.7,0,26.818-10.073,26.818-24.56C57.741,165.893,44.714,155,28.87,155Zm-12.451,28.05a4.1,4.1,0,1,1,4.1-4.1A4.11,4.11,0,0,1,16.419,183.048Zm12.451,0a4.1,4.1,0,1,1,4.1-4.1A4.11,4.11,0,0,1,28.87,183.048Zm12.451,0a4.1,4.1,0,1,1,4.1-4.1A4.11,4.11,0,0,1,41.322,183.048Z" transform="translate(0 -154.998)" fill="#fff"/>
      </g>
    </g>
    <g id="Grupo_39525" data-name="Grupo 39525" transform="translate(16.773 0.006)">
      <g id="Grupo_39524" data-name="Grupo 39524">
        <path id="Trazado_106790" data-name="Trazado 106790" d="M175.37,41.769l-4.832-5.638a20.388,20.388,0,0,0,5.327-13.549c0-12.449-11.97-22.576-26.681-22.576-13.3,0-24.605,8.29-26.6,19.081a37.975,37.975,0,0,1,12.1-1.978c17.973,0,32.739,12.553,32.955,28.05h6.177A2.055,2.055,0,0,0,175.37,41.769Z" transform="translate(-122.583 -0.006)" fill="#fff"/>
      </g>
    </g>
  </g>
</svg>
