<svg xmlns="http://www.w3.org/2000/svg" width="37.18" height="30.747" viewBox="0 0 37.18 30.747">
  <g id="family" transform="translate(0 -44.29)">
    <g id="Grupo_39499" data-name="Grupo 39499" transform="translate(0.545 44.835)">
      <g id="Grupo_39498" data-name="Grupo 39498">
        <g id="Grupo_39492" data-name="Grupo 39492">
          <path id="Trazado_106707" data-name="Trazado 106707" d="M30.182,60h.753V59.3a1.1,1.1,0,0,1,1.1-1.1H38.1a1.1,1.1,0,0,1,1.1,1.1V60h.753a1.727,1.727,0,0,1,1.375.683V58.05a6.259,6.259,0,0,0-12.518,0v2.629A1.727,1.727,0,0,1,30.182,60Z" transform="translate(-27.26 -51.791)" fill="#685e68"/>
          <g id="Grupo_39489" data-name="Grupo 39489" transform="translate(8.301 0.021)">
            <path id="Trazado_106708" data-name="Trazado 106708" d="M121.814,52.085a6.259,6.259,0,0,1,3.709,5.716v2.469h.681a1.727,1.727,0,0,1,1.375.683V58.323A6.258,6.258,0,0,0,121.814,52.085Z" transform="translate(-121.814 -52.085)" fill="#554e56"/>
          </g>
          <path id="Trazado_106709" data-name="Trazado 106709" d="M23.113,277.564H8.235a.735.735,0,0,1-.735-.735V266.187a2.925,2.925,0,0,1,2.925-2.925h9.762a2.925,2.925,0,0,1,2.925,2.925v11.376Z" transform="translate(-7.5 -247.906)" fill="#ffe177"/>
          <g id="Grupo_39490" data-name="Grupo 39490" transform="translate(0 27.533)">
            <path id="Trazado_106710" data-name="Trazado 106710" d="M7.5,430.947v1.39a.735.735,0,0,0,.735.735H23.113v-2.125H7.5Z" transform="translate(-7.5 -430.947)" fill="#ffd15b"/>
          </g>
          <g id="Grupo_39491" data-name="Grupo 39491" transform="translate(1.121 8.133)">
            <path id="Trazado_106711" data-name="Trazado 106711" d="M25.492,163.79h-.754a1.8,1.8,0,1,0,0,3.6h.754Z" transform="translate(-22.936 -163.79)" fill="#ffcebf"/>
          </g>
          <path id="Trazado_106712" data-name="Trazado 106712" d="M62.783,147.435h-2.93a2.738,2.738,0,0,1-2.738-2.738v-4.46a1.174,1.174,0,0,1,1.174-1.174h6.06a1.174,1.174,0,0,1,1.174,1.174v4.46A2.738,2.738,0,0,1,62.783,147.435Z" transform="translate(-53.512 -132.726)" fill="#ffdfcf"/>
          <path id="Trazado_106713" data-name="Trazado 106713" d="M62.783,147.435h-2.93a2.738,2.738,0,0,1-2.738-2.738v-4.46a1.174,1.174,0,0,1,1.174-1.174h6.06a1.174,1.174,0,0,1,1.174,1.174v4.46A2.738,2.738,0,0,1,62.783,147.435Z" transform="translate(-53.512 -132.726)" fill="#ffdfcf"/>
          <path id="Trazado_106714" data-name="Trazado 106714" d="M172.626,163.79h-.754v3.6h.754a1.8,1.8,0,1,0,0-3.6Z" transform="translate(-159.936 -155.657)" fill="#ffb09e"/>
          <path id="Trazado_106715" data-name="Trazado 106715" d="M92.99,252.994H90.06a2.682,2.682,0,0,1-.373-.027v1.54a1.838,1.838,0,1,0,3.676,0v-1.54A2.665,2.665,0,0,1,92.99,252.994Z" transform="translate(-83.719 -238.358)" fill="#ffb09e"/>
          <path id="Trazado_106716" data-name="Trazado 106716" d="M109.025,139.063h-1V144.7a2.738,2.738,0,0,1-2.738,2.738h2.17A2.738,2.738,0,0,0,110.2,144.7v-4.46A1.174,1.174,0,0,0,109.025,139.063Z" transform="translate(-98.189 -132.726)" fill="#ffcebf"/>
        </g>
        <path id="Trazado_106717" data-name="Trazado 106717" d="M315.3,82.784v-1.1a4.192,4.192,0,0,0,3.529,0v1.1a6.016,6.016,0,0,1,4.495,2.086V74.212a6.259,6.259,0,0,0-12.518,0V84.869A6.017,6.017,0,0,1,315.3,82.784Z" transform="translate(-288.781 -66.779)" fill="#685e68"/>
        <g id="Grupo_39493" data-name="Grupo 39493" transform="translate(30.123 1.449)">
          <path id="Trazado_106718" data-name="Trazado 106718" d="M422.318,71.739a6.246,6.246,0,0,1,2.365,4.9v10.2a6.063,6.063,0,0,1,2.056,1.542V77.723A6.261,6.261,0,0,0,422.318,71.739Z" transform="translate(-422.318 -71.739)" fill="#554e56"/>
        </g>
        <path id="Trazado_106719" data-name="Trazado 106719" d="M304.377,284.882H289.5v-7.625a6.1,6.1,0,0,1,6.1-6.1h3.4a6.1,6.1,0,0,1,6.1,6.1v6.889A.735.735,0,0,1,304.377,284.882Z" transform="translate(-269.022 -255.225)" fill="#fd6930"/>
        <path id="Trazado_106720" data-name="Trazado 106720" d="M373.525,255.832a4.1,4.1,0,0,1-1.838-.433v1.364a1.838,1.838,0,0,0,3.676,0V255.4A4.1,4.1,0,0,1,373.525,255.832Z" transform="translate(-345.241 -240.614)" fill="#ffb09e"/>
        <path id="Trazado_106721" data-name="Trazado 106721" d="M302.535,286.618v9.745a.735.735,0,0,1-.735.735H289.5v2.125h14.877a.735.735,0,0,0,.735-.735V291.6A6.1,6.1,0,0,0,302.535,286.618Z" transform="translate(-269.022 -269.566)" fill="#fd5426"/>
        <g id="Grupo_39494" data-name="Grupo 39494" transform="translate(21.599 8.759)">
          <path id="Trazado_106722" data-name="Trazado 106722" d="M307.491,174.739v-2.326s0,0,0,0h-.754a1.8,1.8,0,1,0,0,3.6h.956A4.112,4.112,0,0,1,307.491,174.739Z" transform="translate(-304.936 -172.409)" fill="#ffcebf"/>
        </g>
        <path id="Trazado_106723" data-name="Trazado 106723" d="M343.834,131.934a1.956,1.956,0,0,1-1.739,1.061h-1.806a1.174,1.174,0,0,0-1.174,1.174v2.326a4.2,4.2,0,1,0,8.407,0v-3.278a2.047,2.047,0,0,0-2.047-2.047h-.39a1.408,1.408,0,0,0-1.252.764Z" transform="translate(-315.034 -125.406)" fill="#ffdfcf"/>
        <path id="Trazado_106724" data-name="Trazado 106724" d="M452.051,172.409H451.3v2.33a4.111,4.111,0,0,1-.2,1.273h.956a1.8,1.8,0,1,0,0-3.6Z" transform="translate(-418.883 -163.65)" fill="#ffb09e"/>
        <path id="Trazado_106725" data-name="Trazado 106725" d="M376.454,131.171h-.124v4.949a4.2,4.2,0,0,1-3.811,4.185A4.2,4.2,0,0,0,378.5,136.5v-3.278A2.047,2.047,0,0,0,376.454,131.171Z" transform="translate(-346.013 -125.407)" fill="#ffcebf"/>
        <g id="Grupo_39497" data-name="Grupo 39497" transform="translate(10.691 12.856)">
          <path id="Trazado_106726" data-name="Trazado 106726" d="M164.475,350.561a4.7,4.7,0,0,1-4.789,0,6.073,6.073,0,0,0-4.96,5.969v1.993h14.708V356.53A6.074,6.074,0,0,0,164.475,350.561Z" transform="translate(-154.727 -341.721)" fill="#0593fc"/>
          <path id="Trazado_106727" data-name="Trazado 106727" d="M154.73,430.947c0,.044,0,.088,0,.132v1.993h14.708v-1.993c0-.044,0-.088,0-.132Z" transform="translate(-154.727 -416.27)" fill="#0182fc"/>
          <path id="Trazado_106728" data-name="Trazado 106728" d="M235.134,355.86a4.69,4.69,0,0,1-1.634-.293v1.121a1.634,1.634,0,1,0,3.268,0v-1.121A4.688,4.688,0,0,1,235.134,355.86Z" transform="translate(-227.78 -346.365)" fill="#ffb09e"/>
          <g id="Grupo_39496" data-name="Grupo 39496" transform="translate(2.57)">
            <path id="Trazado_106729" data-name="Trazado 106729" d="M199.41,262.7a5.062,5.062,0,0,1-2.827-1.08.435.435,0,0,0-.612.073,5.106,5.106,0,0,1-5.729,1.668l-.1.044a4.837,4.837,0,0,0-.03.532,4.784,4.784,0,1,0,9.427-1.156Z" transform="translate(-190.117 -259.155)" fill="#ffdfcf"/>
            <g id="Grupo_39495" data-name="Grupo 39495" transform="translate(3.106 3.009)">
              <path id="Trazado_106730" data-name="Trazado 106730" d="M236.945,270.27a4.787,4.787,0,0,1-4.053,6.256,4.785,4.785,0,0,0,6.321-5.636,5.153,5.153,0,0,1-2.268-.619Z" transform="translate(-232.892 -270.27)" fill="#ffcebf"/>
            </g>
            <path id="Trazado_106731" data-name="Trazado 106731" d="M195.287,228.832a4.784,4.784,0,0,0-4.754,4.252,5.183,5.183,0,0,0,5.882-1.667.362.362,0,0,1,.509-.06,5.157,5.157,0,0,0,3.006,1.1A4.785,4.785,0,0,0,195.287,228.832Z" transform="translate(-190.503 -228.832)" fill="#685e68"/>
            <path id="Trazado_106732" data-name="Trazado 106732" d="M252.107,231.841a5.155,5.155,0,0,0,2.269.62,4.78,4.78,0,0,0-5.133-3.6A4.8,4.8,0,0,1,252.107,231.841Z" transform="translate(-244.949 -228.832)" fill="#554e56"/>
          </g>
        </g>
      </g>
    </g>
    <g id="Grupo_39500" data-name="Grupo 39500" transform="translate(0 44.29)">
      <path id="Trazado_106733" data-name="Trazado 106733" d="M87.041,166.438v-.391a.545.545,0,0,0-1.089,0v.391a.545.545,0,1,0,1.089,0Z" transform="translate(-79.71 -156.7)"/>
      <path id="Trazado_106734" data-name="Trazado 106734" d="M129.593,165.5a.545.545,0,0,0-.545.545v.391a.545.545,0,0,0,1.089,0v-.391A.545.545,0,0,0,129.593,165.5Z" transform="translate(-119.677 -156.7)"/>
      <path id="Trazado_106735" data-name="Trazado 106735" d="M94.961,203.909a.981.981,0,0,1-1.387,0,.545.545,0,1,0-.77.77,2.07,2.07,0,0,0,2.928,0,.545.545,0,1,0-.77-.77Z" transform="translate(-85.917 -192.17)"/>
      <path id="Trazado_106736" data-name="Trazado 106736" d="M369.04,172.136v-.391a.545.545,0,1,0-1.089,0v.391a.545.545,0,1,0,1.089,0Z" transform="translate(-341.232 -161.984)"/>
      <path id="Trazado_106737" data-name="Trazado 106737" d="M411.594,171.2a.545.545,0,0,0-.545.545v.391a.545.545,0,1,0,1.089,0v-.391A.545.545,0,0,0,411.594,171.2Z" transform="translate(-381.2 -161.984)"/>
      <path id="Trazado_106738" data-name="Trazado 106738" d="M376.96,209.608a.981.981,0,0,1-1.387,0,.545.545,0,0,0-.77.77,2.073,2.073,0,0,0,2.928,0,.545.545,0,0,0-.77-.77Z" transform="translate(-347.438 -197.456)"/>
      <path id="Trazado_106739" data-name="Trazado 106739" d="M227.762,307.332a.545.545,0,0,0-.545.545v.218a.545.545,0,0,0,1.089,0v-.218A.545.545,0,0,0,227.762,307.332Z" transform="translate(-210.717 -288.231)"/>
      <path id="Trazado_106740" data-name="Trazado 106740" d="M270.327,307.332a.545.545,0,0,0-.545.545v.218a.545.545,0,0,0,1.089,0v-.218A.545.545,0,0,0,270.327,307.332Z" transform="translate(-250.191 -288.231)"/>
      <path id="Trazado_106741" data-name="Trazado 106741" d="M35.632,62.608V56.741a2.338,2.338,0,0,0,0-2.692V52.267a6.8,6.8,0,0,0-10.188-5.9.545.545,0,1,0,.543.944,5.713,5.713,0,0,1,8.556,4.957V53.2a2.335,2.335,0,0,0-.831-.152h-.136v-.4a2.594,2.594,0,0,0-2.591-2.591H30.6a1.945,1.945,0,0,0-1.736,1.059,1.406,1.406,0,0,1-1.255.766H25.8a1.721,1.721,0,0,0-1.628,1.17h-.226a2.333,2.333,0,0,0-.831.152v-.934a5.666,5.666,0,0,1,1.135-3.418.545.545,0,1,0-.872-.652,6.747,6.747,0,0,0-1.351,4.07v1.781a2.338,2.338,0,0,0,0,2.692v1.665a5.321,5.321,0,0,0-8,1.331,3.46,3.46,0,0,0-.789-.091H11.458a3.287,3.287,0,0,0,1.626-2.531h.151a2.344,2.344,0,0,0,1.92-3.692V51.094a6.8,6.8,0,0,0-13.607,0v2.329a2.344,2.344,0,0,0,1.92,3.692h.151a3.287,3.287,0,0,0,1.626,2.531H3.47A3.474,3.474,0,0,0,0,63.116v3.22a.545.545,0,1,0,1.089,0v-3.22A2.384,2.384,0,0,1,3.47,60.736h2.5v.248a2.383,2.383,0,0,0,4.765,0v-.248h2.5a2.4,2.4,0,0,1,.315.021,5.284,5.284,0,0,0-.249,1.1l0,.012a5.3,5.3,0,0,0,1.622,4.461A6.641,6.641,0,0,0,10.691,72.5v1.448H1.28a.191.191,0,0,1-.191-.191V68.878a.545.545,0,1,0-1.089,0v4.879a1.281,1.281,0,0,0,1.28,1.28H31.443a.545.545,0,0,0,0-1.089H26.489V72.5a6.641,6.641,0,0,0-4.227-6.168,5.313,5.313,0,0,0,1.657-3.857c0-.048,0-.095,0-.142a5.489,5.489,0,0,1,2.559-.984,2.383,2.383,0,0,0,4.709,0,5.559,5.559,0,0,1,4.907,5.519v6.889a.191.191,0,0,1-.191.191H33.985a.545.545,0,0,0,0,1.089H35.9a1.281,1.281,0,0,0,1.28-1.28V66.868a6.6,6.6,0,0,0-1.547-4.26ZM14.492,54.769a1.258,1.258,0,0,1-1.257,1.257H13.1V53.512h.136A1.258,1.258,0,0,1,14.492,54.769ZM3.6,56.026H3.467a1.257,1.257,0,1,1,0-2.514H3.6v2.514Zm0-3.68v.077H3.467a2.335,2.335,0,0,0-.831.152V51.094a5.714,5.714,0,0,1,11.429,0v1.482a2.333,2.333,0,0,0-.831-.152H13.1v-.077a1.72,1.72,0,0,0-1.718-1.718H5.321A1.72,1.72,0,0,0,3.6,52.346Zm6.041,8.638a1.293,1.293,0,0,1-2.587,0v-.9H9.644ZM9.816,59H6.886a2.2,2.2,0,0,1-2.194-2.194v-4.46a.63.63,0,0,1,.629-.629h6.06a.63.63,0,0,1,.629.629v4.46A2.2,2.2,0,0,1,9.816,59Zm8.774-.764a4.245,4.245,0,0,1,3.835,2.434,4.591,4.591,0,0,1-1.861-.881.907.907,0,0,0-1.275.152,4.636,4.636,0,0,1-4.839,1.626,4.246,4.246,0,0,1,4.14-3.331ZM25.4,72.5v1.448H11.78V72.5A5.543,5.543,0,0,1,16,67.131q.2.111.409.205v.679a2.178,2.178,0,0,0,4.357,0v-.679q.21-.094.409-.205A5.543,5.543,0,0,1,25.4,72.5Zm-7.9-4.484v-.324a5.337,5.337,0,0,0,2.178,0v.324a1.089,1.089,0,0,1-2.178,0Zm1.089-1.3a4.244,4.244,0,0,1-4.235-4.049,5.728,5.728,0,0,0,5.677-1.913,5.669,5.669,0,0,0,2.748,1.079,4.241,4.241,0,0,1-4.191,4.883Zm4.1-11.319a1.258,1.258,0,0,1,1.257-1.257h.136v1.785a4.764,4.764,0,0,0,.056.729h-.192A1.258,1.258,0,0,1,22.688,55.4Zm3.758,4.86a6.562,6.562,0,0,0-2.7.887,5.3,5.3,0,0,0-.635-1.477V57.589a2.333,2.333,0,0,0,.831.152h.5a4.776,4.776,0,0,0,2,2.286Zm3.676.729a1.293,1.293,0,1,1-2.587,0v-.493a4.724,4.724,0,0,0,2.587,0Zm-1.293-1.4a3.663,3.663,0,0,1-3.659-3.659V53.6s0-.005,0-.007h0a.63.63,0,0,1,.629-.625H27.6a2.491,2.491,0,0,0,2.224-1.357h0a.86.86,0,0,1,.768-.468h.39a1.5,1.5,0,0,1,1.5,1.5v3.278A3.663,3.663,0,0,1,28.829,59.582Zm5.714,1.987a6.6,6.6,0,0,0-3.332-1.311v-.23a4.776,4.776,0,0,0,2-2.286h.5a2.333,2.333,0,0,0,.831-.152Zm-.83-4.917h-.192a4.765,4.765,0,0,0,.056-.729V54.138h.136a1.257,1.257,0,1,1,0,2.514Z" transform="translate(0 -44.29)"/>
    </g>
  </g>
</svg>
