<svg xmlns="http://www.w3.org/2000/svg" width="109.222" height="151.996" viewBox="0 0 109.222 151.996">
  <g id="Grupo_20871" data-name="Grupo 20871" transform="translate(5122 -8967.39)">
    <g id="Grupo_39521" data-name="Grupo 39521">
      <rect id="Rect치ngulo_18632" data-name="Rect치ngulo 18632" width="108.86" height="151.996" transform="translate(-5122 8967.39)" opacity="0.001"/>
      <rect id="Rect치ngulo_18633" data-name="Rect치ngulo 18633" width="108.86" height="22.551" transform="translate(-5121.638 9096.701)" fill="#d31f24"/>
      <g id="Grupo_39520" data-name="Grupo 39520" transform="translate(-5134.385 9096.834)">
        <text id="Ver_ahora" data-name="Ver ahora" transform="translate(29.747 15.867)" fill="#fff" font-size="13" font-family="Roboto-Medium, Roboto" font-weight="500" letter-spacing="0.01em"><tspan x="0" y="0">Ver ahora</tspan></text>
        <path id="play-button_1_" data-name="play-button (1)" d="M7.382,0a7.382,7.382,0,1,0,7.382,7.382A7.382,7.382,0,0,0,7.382,0ZM9.934,7.773,6.242,10.08a.461.461,0,0,1-.706-.391V5.075a.461.461,0,0,1,.706-.391L9.934,6.991a.461.461,0,0,1,0,.783Z" transform="translate(89.521 3.868)" fill="#fff" opacity="0.995"/>
      </g>
    </g>
  </g>
</svg>
