<svg xmlns="http://www.w3.org/2000/svg" width="16.769" height="32.584" viewBox="0 0 16.769 32.584">
  <g id="decree" transform="translate(141.019) rotate(90)">
    <path id="Trazado_106772" data-name="Trazado 106772" d="M12.6,207.1H8.52a1.02,1.02,0,0,1-1.02-1.02V196.9a1.02,1.02,0,0,1,1.02-1.02H12.6a1.02,1.02,0,0,1,1.02,1.02v9.183A1.02,1.02,0,0,1,12.6,207.1Z" transform="translate(-7.023 -67.07)" fill="#00c3ff"/>
    <path id="Trazado_106773" data-name="Trazado 106773" d="M12.506,204.645A1.977,1.977,0,0,0,12.5,203.4a2.031,2.031,0,0,0-3-1.1.306.306,0,0,1-.468-.26v-6.164h-.51A1.02,1.02,0,0,0,7.5,196.9v9.183a1.02,1.02,0,0,0,1.02,1.02H12.6a1.02,1.02,0,0,0,1.02-1.02v-1.02h-.829A.31.31,0,0,1,12.506,204.645Z" transform="translate(-7.024 -67.07)" fill="#00aaf0"/>
    <path id="Trazado_106774" data-name="Trazado 106774" d="M127.314,134.3h-9.337v-.51a2.041,2.041,0,0,0-2.041-2.041H113.9a7.142,7.142,0,0,0-3.785,1.086l-6.425,4.016v9.183l4.03,1.1a12.244,12.244,0,0,0,3.221.431h6.686a1.848,1.848,0,0,0,1.875-1.694,1.775,1.775,0,0,0-.561-1.387,1.774,1.774,0,0,0,1.02-3.061,1.781,1.781,0,0,0-.2-3.551h7.652a1.786,1.786,0,0,0,1.783-1.882A1.854,1.854,0,0,0,127.314,134.3Z" transform="translate(-97.094 -7.022)" fill="#f0c087"/>
    <circle id="Elipse_475" data-name="Elipse 475" cx="1.02" cy="1.02" r="1.02" transform="translate(2.518 135.951)" fill="#e4eaf8"/>
    <g id="Grupo_39508" data-name="Grupo 39508" transform="translate(6.599 125.748)">
      <path id="Trazado_106775" data-name="Trazado 106775" d="M315.66,308.1h-2.782a.765.765,0,1,0,0,1.53h1.24c-.006-.006-.011-.014-.018-.02A1.778,1.778,0,0,0,315.66,308.1Z" transform="translate(-298.849 -297.901)" fill="#e6af78"/>
      <path id="Trazado_106776" data-name="Trazado 106776" d="M324.186,260.007h-3.292a.765.765,0,0,0,0,1.53h1.75c-.006-.006-.011-.014-.018-.02A1.778,1.778,0,0,0,324.186,260.007Z" transform="translate(-306.355 -252.865)" fill="#e6af78"/>
      <path id="Trazado_106777" data-name="Trazado 106777" d="M320.894,203.895a.765.765,0,1,0,0,1.53h9.183a1.784,1.784,0,0,0,1.765-1.53Z" transform="translate(-306.355 -200.324)" fill="#e6af78"/>
      <path id="Trazado_106778" data-name="Trazado 106778" d="M275.6,148.8a2.019,2.019,0,0,0-.283-1.02H272.8a.765.765,0,1,0,0,1.53H275.6Z" transform="translate(-261.319 -147.782)" fill="#e6af78"/>
      <path id="Trazado_106779" data-name="Trazado 106779" d="M119.48,211.711h-8.339a12.244,12.244,0,0,1-3.591-.539h0a3.291,3.291,0,0,1-2.326-3.147v-6.135l-1.53.638v9.183l4.03,1.1a12.246,12.246,0,0,0,3.222.431h6.686A1.855,1.855,0,0,0,119.48,211.711Z" transform="translate(-103.693 -198.447)" fill="#e6af78"/>
    </g>
    <path id="Trazado_106780" data-name="Trazado 106780" d="M32.581,128.943A2.316,2.316,0,0,0,30.22,126.8H21.361v-.033a2.521,2.521,0,0,0-2.518-2.518H16.81a7.612,7.612,0,0,0-4.038,1.158L6.881,129.09a1.5,1.5,0,0,0-1.3-.759H1.5a1.5,1.5,0,0,0-1.5,1.5v9.183a1.5,1.5,0,0,0,1.5,1.5H5.579a1.5,1.5,0,0,0,1.376-.906l3.549.968a12.721,12.721,0,0,0,3.347.448h6.686a2.31,2.31,0,0,0,2.352-2.148,2.248,2.248,0,0,0-.25-1.149,2.252,2.252,0,0,0,1.022-3.062,2.253,2.253,0,0,0,.854-3.335h5.807a2.273,2.273,0,0,0,1.642-.705A2.244,2.244,0,0,0,32.581,128.943Zm-1.311,1.021a1.3,1.3,0,0,1-.949.408H22.669a.477.477,0,0,0,0,.955,1.3,1.3,0,0,1,.148,2.6.477.477,0,0,0-.273.821,1.3,1.3,0,0,1-.747,2.24.477.477,0,0,0-.273.821,1.289,1.289,0,0,1,.412,1.016,1.374,1.374,0,0,1-1.4,1.241H13.85a11.766,11.766,0,0,1-3.1-.415l-3.678-1V132.89a.477.477,0,1,0-.955,0v6.122a.544.544,0,0,1-.543.543H1.5a.544.544,0,0,1-.543-.543v-9.183a.544.544,0,0,1,.543-.543H5.579a.544.544,0,0,1,.543.543v1.02a.477.477,0,1,0,.955,0v-.756l6.2-3.876A6.658,6.658,0,0,1,16.81,125.2h2.033a1.565,1.565,0,0,1,1.563,1.563v.033H18.332a.477.477,0,1,0,0,.955H30.22a1.38,1.38,0,0,1,1.407,1.237A1.3,1.3,0,0,1,31.27,129.964Z" transform="translate(0 0)"/>
    <path id="Trazado_106781" data-name="Trazado 106781" d="M306.112,276.556h-1.02a.477.477,0,0,0,0,.955h1.02a.477.477,0,0,0,0-.955Z" transform="translate(-285.228 -142.613)"/>
    <path id="Trazado_106782" data-name="Trazado 106782" d="M306.112,220.443h-1.02a.477.477,0,1,0,0,.955h1.02a.477.477,0,0,0,0-.955Z" transform="translate(-285.228 -90.071)"/>
    <path id="Trazado_106783" data-name="Trazado 106783" d="M34.684,302.2a.477.477,0,0,0-.652.174.543.543,0,1,1-.471-.814.477.477,0,0,0,0-.955,1.5,1.5,0,1,0,1.3,2.247A.477.477,0,0,0,34.684,302.2Z" transform="translate(-30.023 -165.132)"/>
    <circle id="Elipse_476" data-name="Elipse 476" cx="0.477" cy="0.477" r="0.477" transform="translate(19.39 137.005)"/>
  </g>
</svg>
