<svg xmlns="http://www.w3.org/2000/svg" width="33.114" height="33.119" viewBox="0 0 33.114 33.119">
  <g id="entertainment" transform="translate(-16.105 -16)">
    <path id="Trazado_106658" data-name="Trazado 106658" d="M97.384,288,89.8,289.318a2.208,2.208,0,0,0-1.8,2.17V301.8h23.183V291.488a2.208,2.208,0,0,0-1.8-2.17L101.8,288Z" transform="translate(-66.934 -253.232)" fill="#b3947b"/>
    <path id="Trazado_106659" data-name="Trazado 106659" d="M49.923,306.738a1.1,1.1,0,0,1-1.1,1.1H40.263a1.379,1.379,0,0,1,1.952-1.915,1.656,1.656,0,0,1,2.844-.873,1.656,1.656,0,0,1,3.208.58c0,.052,0,.1-.008.153a1.1,1.1,0,0,1,1.664.951Z" transform="translate(-22.233 -268.106)" fill="#ffd33a"/>
    <path id="Trazado_106660" data-name="Trazado 106660" d="M221.52,232v1.656l-.552,3.864s-.017.552-2.208.552-2.208-.552-2.208-.552L216,233.656V232Z" transform="translate(-186.102 -201.096)" fill="#f0c6a4"/>
    <path id="Trazado_106661" data-name="Trazado 106661" d="M157.8,33.384H145.656L144,24h13.248a2.208,2.208,0,0,1,2.208,2.208Z" transform="translate(-119.07 -7.448)" fill="#734b39"/>
    <path id="Trazado_106662" data-name="Trazado 106662" d="M169.656,96,168,100.416l1.656,6.072a6.813,6.813,0,0,0,8.832,0l1.656-6.072L178.488,96Z" transform="translate(-141.414 -74.48)" fill="#f7cca9"/>
    <path id="Trazado_106663" data-name="Trazado 106663" d="M232,208h3.312s0,2.208-1.656,2.208S232,208,232,208Z" transform="translate(-200.999 -178.752)" fill="#eb423f"/>
    <path id="Trazado_106664" data-name="Trazado 106664" d="M49.936,360l-1.1,8.832H41.1L40,360Z" transform="translate(-22.246 -320.265)" fill="#eb423f"/>
    <path id="Trazado_106665" data-name="Trazado 106665" d="M360.832,298.208,360.28,296h-7.728L352,298.208Z" transform="translate(-312.719 -260.681)" fill="#e9eef2"/>
    <path id="Trazado_106666" data-name="Trazado 106666" d="M24.672,392h2.76a2.76,2.76,0,0,1,0,4.416h-2.76A4.916,4.916,0,0,1,24.672,392Z" transform="translate(-7.48 -350.057)" fill="#f7cca9"/>
    <path id="Trazado_106667" data-name="Trazado 106667" d="M368,328h6.624l-.552,11.04h-5.52Z" transform="translate(-327.615 -290.473)" fill="#2d85cc"/>
    <path id="Trazado_106668" data-name="Trazado 106668" d="M428.152,424h-2.76a2.76,2.76,0,0,0,0,4.416h2.76A4.916,4.916,0,0,0,428.152,424Z" transform="translate(-380.019 -379.849)" fill="#f7cca9"/>
    <path id="Trazado_106669" data-name="Trazado 106669" d="M226.208,203.312c1.746,0,2.208-1.805,2.208-2.76a.552.552,0,0,0-.552-.552h-3.312a.552.552,0,0,0-.552.552,4.114,4.114,0,0,0,.242,1.3A2.037,2.037,0,0,0,226.208,203.312Zm1.036-2.208a2.571,2.571,0,0,1-.1.358c-.251.668-.652.746-.932.746s-.672-.075-.924-.724a2.542,2.542,0,0,1-.112-.379Z" transform="translate(-193.551 -171.304)"/>
    <circle id="Elipse_468" data-name="Elipse 468" cx="1.104" cy="1.104" r="1.104" transform="translate(42.593 40.839)"/>
    <path id="Trazado_106670" data-name="Trazado 106670" d="M48.133,43.6h-.875l.276-5.52h.579a.552.552,0,0,0,.535-.686L48.1,35.186a.552.552,0,0,0-.535-.418H44.249V30.9A.552.552,0,0,0,44,30.444l-1.656-1.1a.552.552,0,1,0-.612.919l1.41.94v3.569H39.833a.551.551,0,0,0-.415.189l-3.61-.677.13-.908a9.556,9.556,0,0,0,1.469-.924.552.552,0,0,0,.2-.295l1.656-6.072c0-.007,0-.014,0-.021h0l1.656-7.176a.549.549,0,0,0,.014-.124A2.763,2.763,0,0,0,38.177,16H24.93a.552.552,0,0,0-.544.648l1.656,9.384h0c0,.017.005.033.009.05l1.656,6.072a.552.552,0,0,0,.158.261,6.98,6.98,0,0,0,1.515.994l.125.874-5.321,1.047a2.223,2.223,0,0,0-1.522.807,2.209,2.209,0,0,0-3,.912,1.931,1.931,0,0,0-2.382,2.4.551.551,0,0,0-.075.352l.2,1.587h-.213a.552.552,0,0,0-.489.3,5.443,5.443,0,0,0,.007,4.942.552.552,0,0,0,.482.282h.9l.216,1.724a.552.552,0,0,0,.548.484H48.133a.552.552,0,0,0,.482-.282,5.443,5.443,0,0,0,.007-4.942.552.552,0,0,0-.489-.3Zm-7.869-7.728H47.13l.276,1.1H39.988ZM38.177,17.1a1.658,1.658,0,0,1,1.655,1.6L38.6,24.027l-1.013-2.7a.552.552,0,0,0-.517-.358H28.242a.552.552,0,0,0-.517.358l-.947,2.524L25.588,17.1ZM27.165,25.963l1.459-3.891h8.067l1.459,3.891-1.559,5.716a6.258,6.258,0,0,1-5.556,1.188,6.709,6.709,0,0,1-2.306-1.17Zm3.523,7.953a6.969,6.969,0,0,0,4.066-.06l-.414,2.9a4.1,4.1,0,0,1-1.682.22,4.107,4.107,0,0,1-1.682-.22l-.411-2.876.122.037ZM29.9,37.043a.926.926,0,0,0,.585.7,5.149,5.149,0,0,0,2.171.333,5.149,5.149,0,0,0,2.171-.333.925.925,0,0,0,.585-.7l.239-1.67,3.438.645-.344,1.376a.552.552,0,0,0,.535.686h.579l.5,9.936H27.211L28.237,39.8a.552.552,0,0,0-.134-.434l-.024-.024a1.656,1.656,0,0,0-1.494-2.37h-.069a2.2,2.2,0,0,0-.467-.89l3.614-.711ZM19.134,38.079a.815.815,0,0,1,.507.175.552.552,0,0,0,.886-.348,1.1,1.1,0,0,1,1.9-.582.552.552,0,0,0,.92-.184,1.1,1.1,0,0,1,2.139.386c0,.032,0,.065-.005.1a.552.552,0,0,0,.829.529.545.545,0,0,1,.28-.077.552.552,0,0,1,0,1.1H18.353a.828.828,0,0,1,.781-1.1Zm2.282,7.244a3.509,3.509,0,0,0,.191-1.172,3.363,3.363,0,0,0-.363-1.571L21.1,40.287h3.241l-.483,7.728H21.584Zm-3.037-5.036H20l.07,1.117a.549.549,0,0,0-.114-.013H18.517Zm-.84,2.208h2.244a2.264,2.264,0,0,1,0,3.312H17.543A4.323,4.323,0,0,1,17.539,42.5Zm1.668,4.416h.744a.552.552,0,0,0,.263-.067,1.714,1.714,0,0,0,.183-.12l.081,1.291H19.345Zm6.891,1.1H24.965l.483-7.728h1.616Zm14.867-9.936h5.463l-.276,5.52h-.78a.551.551,0,0,0-.263.067,3.022,3.022,0,0,0-1.393,2.693,3.333,3.333,0,0,0,.409,1.656H41.462Zm6.816,9.936H45.541a2.264,2.264,0,0,1,0-3.312h2.244A4.323,4.323,0,0,1,47.782,48.015Z"/>
    <circle id="Elipse_469" data-name="Elipse 469" cx="0.552" cy="0.552" r="0.552" transform="translate(29.898 25.384)"/>
    <circle id="Elipse_470" data-name="Elipse 470" cx="0.552" cy="0.552" r="0.552" transform="translate(34.313 25.384)"/>
  </g>
</svg>
