<svg xmlns="http://www.w3.org/2000/svg" width="30.878" height="30.643" viewBox="0 0 30.878 30.643">
  <g id="procrastination" transform="translate(-0.01 -1.96)">
    <g id="Grupo_39371" data-name="Grupo 39371" transform="translate(0.492 2.441)">
      <path id="Trazado_106320" data-name="Trazado 106320" d="M17.6,79.24a2.189,2.189,0,0,0-3.088,0L8.647,85.107a2.238,2.238,0,0,0,0,3.158L14.5,94.115a.927.927,0,0,1,.282.677v5.237a.6.6,0,0,0,.6.6H29.716a.6.6,0,0,0,.6-.6V94.792a.924.924,0,0,1,.28-.677l5.849-5.849a2.238,2.238,0,0,0,0-3.158L30.582,79.24a2.185,2.185,0,0,0-3.09,3.09l4.132,4.131a.321.321,0,0,1,0,.452l-4.281,4.281a.312.312,0,0,1-.346.069c-.167-.068-.331-.138-.49-.212a2.4,2.4,0,0,1-1.414-2.219V86.85H20v1.982a2.4,2.4,0,0,1-1.414,2.219c-.159.075-.323.144-.49.212a.312.312,0,0,1-.344-.069l-4.281-4.281a.321.321,0,0,1,0-.452L17.6,82.33A2.192,2.192,0,0,0,17.6,79.24Z" transform="translate(-7.995 -74.462)" fill="#0593fc" fill-rule="evenodd"/>
      <path id="Trazado_106321" data-name="Trazado 106321" d="M142.41,17.911h12.866c0-3.123.492-5.441-2.944-5.738a.438.438,0,0,1-.371-.258.448.448,0,0,1,.04-.452l.573-.81a.452.452,0,0,0-.37-.712h-4.138c-2.923,0-5.656,1.868-5.656,5.008Z" transform="translate(-134.304 -9.94)" fill="#231915" fill-rule="evenodd"/>
      <path id="Trazado_106322" data-name="Trazado 106322" d="M143.538,123.38h10.609a1.133,1.133,0,0,1,1.13,1.13v1.439a1.131,1.131,0,0,1-1.13,1.128H143.538a1.13,1.13,0,0,1-1.128-1.128V124.51A1.131,1.131,0,0,1,143.538,123.38Z" transform="translate(-134.304 -116.539)" fill="#cb9968" fill-rule="evenodd"/>
      <path id="Trazado_106323" data-name="Trazado 106323" d="M194.811,215.35H199.9v1.982a2.4,2.4,0,0,0,.792,1.81,3.521,3.521,0,0,1-6.67,0,2.4,2.4,0,0,0,.792-1.81V215.35Z" transform="translate(-182.801 -202.962)" fill="#fbbd80" fill-rule="evenodd"/>
      <path id="Trazado_106324" data-name="Trazado 106324" d="M206.463,215.35h5.088v1.982a2.643,2.643,0,0,0,.042.462,5.332,5.332,0,0,1-2.493.615h-.214a5.332,5.332,0,0,1-2.466-.6,2.624,2.624,0,0,0,.043-.475Z" transform="translate(-194.453 -202.962)" fill="#e2aa73" fill-rule="evenodd"/>
      <path id="Trazado_106325" data-name="Trazado 106325" d="M179.536,85.793l.624.417a1.859,1.859,0,0,0,1.075.326h.364a1.4,1.4,0,0,1,1.394,1.394v3.031a4.437,4.437,0,0,1-4.425,4.425h-.214a4.437,4.437,0,0,1-4.425-4.425V87.931a1.4,1.4,0,0,1,1.394-1.394h.366a1.849,1.849,0,0,0,1.073-.326l.624-.417A1.9,1.9,0,0,1,179.536,85.793Z" transform="translate(-163.923 -80.905)" fill="#fbbd80" fill-rule="evenodd"/>
      <path id="Trazado_106326" data-name="Trazado 106326" d="M307.3,311.49a6.115,6.115,0,1,0-6.116-6.116A6.128,6.128,0,0,0,307.3,311.49Z" transform="translate(-283.498 -281.811)" fill="#ffd400" fill-rule="evenodd"/>
      <path id="Trazado_106327" data-name="Trazado 106327" d="M336.1,338.444a4.267,4.267,0,1,0-4.268-4.267A4.275,4.275,0,0,0,336.1,338.444Z" transform="translate(-312.3 -310.613)" fill="#fff" fill-rule="evenodd"/>
      <path id="Trazado_106328" data-name="Trazado 106328" d="M307.3,299.26c.146,0,.29,0,.434.015a6.115,6.115,0,0,0,0,12.2c-.144.01-.288.015-.434.015a6.115,6.115,0,1,1,0-12.23Z" transform="translate(-283.498 -281.811)" fill="#e6bf00" fill-rule="evenodd"/>
      <path id="Trazado_106329" data-name="Trazado 106329" d="M16.174,78.607a2.179,2.179,0,0,0-1.658.634L8.647,85.109a2.238,2.238,0,0,0,0,3.158L14.5,94.117a.927.927,0,0,1,.282.677v5.237a.6.6,0,0,0,.6.6H16.72a.6.6,0,0,1-.6-.6V94.794a.931.931,0,0,0-.28-.677L9.987,88.268a2.238,2.238,0,0,1,0-3.158l5.867-5.867a2.139,2.139,0,0,1,.267-.227C16.133,78.876,16.151,78.74,16.174,78.607Zm12.793,5.2,2.657,2.655a.321.321,0,0,1,0,.452L27.61,90.927a2.219,2.219,0,0,0,.237.126c.159.075.323.144.489.212a.314.314,0,0,0,.346-.069l4.281-4.281a.321.321,0,0,0,0-.452l-3.994-3.994v1.339Z" transform="translate(-7.995 -74.464)" fill="#0584e3" fill-rule="evenodd"/>
    </g>
    <path id="Trazado_106330" data-name="Trazado 106330" d="M26.187,19.686l3.1-3.1a2.715,2.715,0,0,0,0-3.837L23.42,6.879A2.648,2.648,0,0,0,21.659,6.1c-.02-.051-.04-.1-.062-.151C21.127,4.9,20.18,4.346,18.615,4.2l.537-.764a.933.933,0,0,0-.761-1.475H14.253A6.661,6.661,0,0,0,10.023,3.4,5.126,5.126,0,0,0,8.28,6.116a2.668,2.668,0,0,0-1.608.764L.8,12.749a2.715,2.715,0,0,0,0,3.836l5.85,5.85a.443.443,0,0,1,.139.336v5.237a1.087,1.087,0,0,0,1.086,1.086H18.462a6.6,6.6,0,1,0,7.726-9.408ZM20.336,9.765a.647.647,0,0,1,.646.648V11.85a.647.647,0,0,1-.646.647h-.289V9.765Zm-1.253-.3V12.5a3.927,3.927,0,0,1-.021.406.326.326,0,0,0,0,.035,3.946,3.946,0,0,1-1.7,2.816.5.5,0,0,0-.06.04,3.92,3.92,0,0,1-2.159.646h-.213a3.919,3.919,0,0,1-2.116-.618.506.506,0,0,0-.092-.059,3.947,3.947,0,0,1-1.711-2.825c0-.011,0-.024,0-.035a3.944,3.944,0,0,1-.021-.406V9.467a.914.914,0,0,1,.913-.913h.366A2.336,2.336,0,0,0,13.6,8.146l.627-.418a1.4,1.4,0,0,1,1.608,0h0l.625.417a2.339,2.339,0,0,0,1.342.408h.366a.915.915,0,0,1,.911.914ZM10.017,12.5H9.726a.647.647,0,0,1-.646-.647V10.412a.648.648,0,0,1,.646-.648h.291Zm-1.645.224a1.61,1.61,0,0,0,1.354.74h.386a4.915,4.915,0,0,0,1.908,2.989v.362a1.923,1.923,0,0,1-1.132,1.78c-.122.056-.244.109-.372.162L6.429,14.666ZM12.979,17a4.883,4.883,0,0,0,1.946.4h.213a4.88,4.88,0,0,0,1.975-.416,2.86,2.86,0,0,0,.7,1.75,3.038,3.038,0,0,1-5.544,0A2.861,2.861,0,0,0,12.979,17Zm5.094-.19v-.382a4.915,4.915,0,0,0,1.879-2.968h.385A1.61,1.61,0,0,0,21.7,12.7l1.963,1.963-4.088,4.088c-.136-.057-.258-.11-.368-.161A1.924,1.924,0,0,1,18.073,16.812ZM14.253,2.923h4.08l-.536.762a.933.933,0,0,0,.681,1.469c1.572.136,2.022.708,2.238,1.192A6.592,6.592,0,0,1,21,8.946a1.6,1.6,0,0,0-.666-.145h-.412a1.88,1.88,0,0,0-1.754-1.21H17.8A1.369,1.369,0,0,1,17,7.344l-.625-.417a2.37,2.37,0,0,0-2.68,0l-.627.418a1.366,1.366,0,0,1-.805.245h-.366A1.88,1.88,0,0,0,10.139,8.8H9.726a1.6,1.6,0,0,0-.646.136V7.449a4.711,4.711,0,0,1,.057-.739.5.5,0,0,0,.014-.086c.434-2.433,2.781-3.7,5.1-3.7ZM7.879,28.129a.121.121,0,0,1-.121-.121V22.771a1.413,1.413,0,0,0-.422-1.018L1.485,15.9a1.752,1.752,0,0,1,0-2.474L7.354,7.56a1.7,1.7,0,0,1,.771-.44c-.007.109-.01.218-.01.329v4.165L5.631,14.1a.8.8,0,0,0,0,1.133l4.281,4.281a.8.8,0,0,0,.868.176c.176-.072.343-.144.513-.221.072-.034.142-.07.211-.109a4,4,0,0,0,7.084,0q.1.059.213.11c.152.07.319.142.511.221a.8.8,0,0,0,.868-.175l4.281-4.281a.8.8,0,0,0,0-1.133l-2.516-2.516V10.413c0-.356.007-.7.013-1.039A15.958,15.958,0,0,0,21.9,7.1a1.69,1.69,0,0,1,.838.457l5.867,5.869a1.752,1.752,0,0,1,0,2.474l-3.549,3.549a6.6,6.6,0,0,0-7.014,8.678H7.879Zm16.411,3.51a5.634,5.634,0,1,1,5.633-5.633A5.639,5.639,0,0,1,24.29,31.639Zm0-10.384a4.75,4.75,0,1,0,4.749,4.751A4.756,4.756,0,0,0,24.29,21.255Zm0,8.536a3.786,3.786,0,1,1,3.785-3.785A3.789,3.789,0,0,1,24.29,29.791Zm2.23-3.785a.482.482,0,0,1-.482.482H24.29a.482.482,0,0,1-.482-.482V23.585a.482.482,0,0,1,.964,0v1.939h1.265a.481.481,0,0,1,.482.482Z" transform="translate(0)"/>
  </g>
</svg>
