<svg xmlns="http://www.w3.org/2000/svg" width="30.482" height="30.482" viewBox="0 0 30.482 30.482">
  <g id="watching-a-movie" transform="translate(-16 -16)">
    <path id="Trazado_106331" data-name="Trazado 106331" d="M200,304h7.112v2.54H200Z" transform="translate(-172.315 -269.711)" fill="#606669"/>
    <path id="Trazado_106332" data-name="Trazado 106332" d="M24,24H53.466V42.289H24Z" transform="translate(-7.492 -7.492)" fill="#9aa3a8"/>
    <circle id="Elipse_462" data-name="Elipse 462" cx="4.5" cy="4.5" r="4.5" transform="translate(26.482 20.482)" fill="#e9eef2"/>
    <path id="Trazado_106333" data-name="Trazado 106333" d="M240,128v3.048l3.048-1.524Z" transform="translate(-209.775 -104.888)" fill="#eb423f"/>
    <path id="Trazado_106334" data-name="Trazado 106334" d="M72.128,285.717H65.016L64,272h9.145Z" transform="translate(-44.952 -239.743)" fill="#2d85cc"/>
    <path id="Trazado_106335" data-name="Trazado 106335" d="M56.508,248h9.145l.508,2.032H56Z" transform="translate(-37.46 -217.267)" fill="#dadcde"/>
    <path id="Trazado_106336" data-name="Trazado 106336" d="M245.717,282.032c-.2,0-.334-.069-.508,0a1.5,1.5,0,0,0-1.524-1.016,1.27,1.27,0,0,1-2.032,0c-.2,0-.334-.069-.508,0A1.5,1.5,0,0,0,239.62,280a1.525,1.525,0,0,0-1.524,1.047c-.174-.069-.31,0-.508,0a1.644,1.644,0,0,0-1.016.508,1.643,1.643,0,0,0-1.016-.508,1.477,1.477,0,0,0-1.524.985c-.174-.069-.31,0-.508,0A1.524,1.524,0,0,0,232,283.556v1.524c0,4.209,3.412,8.128,7.62,8.128s7.62-3.92,7.62-8.128v-1.016A1.842,1.842,0,0,0,245.717,282.032Z" transform="translate(-202.283 -247.235)" fill="#ffd33a"/>
    <path id="Trazado_106337" data-name="Trazado 106337" d="M247.241,360c0,4.209-3.412,8.128-7.62,8.128S232,364.209,232,360Z" transform="translate(-202.283 -322.155)" fill="#eb423f"/>
    <g id="Grupo_39372" data-name="Grupo 39372" transform="translate(35.305 27.685)">
      <path id="Trazado_106338" data-name="Trazado 106338" d="M323.048,257.016a1.607,1.607,0,1,0-2.032,2.032c.044,0-.043.006,0,0a1.27,1.27,0,0,0,2.032,0c.043.006-.044,0,0,0a1.016,1.016,0,0,0,0-2.032Z" transform="translate(-320 -252.444)" fill="#ffe76c"/>
      <path id="Trazado_106339" data-name="Trazado 106339" d="M371.048,433.016a1.607,1.607,0,1,0-2.032,2.032c.044,0-.043.006,0,0a1.27,1.27,0,0,0,2.032,0c.043.006-.044,0,0,0a1.016,1.016,0,0,0,0-2.032Z" transform="translate(-364.952 -417.267)" fill="#ffe76c"/>
      <path id="Trazado_106340" data-name="Trazado 106340" d="M395.048,201.016a1.607,1.607,0,1,0-2.032,2.032c.044,0-.043.006,0,0a1.27,1.27,0,0,0,2.032,0c.043.006-.044,0,0,0a1.016,1.016,0,0,0,0-2.032Z" transform="translate(-387.428 -200)" fill="#ffe76c"/>
    </g>
    <circle id="Elipse_463" data-name="Elipse 463" cx="2" cy="2" r="2" transform="translate(21.482 35.482)" fill="#395a8d"/>
    <path id="Trazado_106341" data-name="Trazado 106341" d="M46.482,34.8V16.508A.508.508,0,0,0,45.974,16H16.508a.508.508,0,0,0-.508.508V34.8a.508.508,0,0,0,.508.508h2.256l.075,1.016H17.524a.508.508,0,1,0,0,1.016h1.391l.6,8.128H16.508a.508.508,0,0,0,0,1.016H45.974a.508.508,0,0,0,0-1.016H42.535a1.517,1.517,0,0,0,.341-1.4,9.033,9.033,0,0,0,2.59-6.22V36.321a2.019,2.019,0,0,0-.273-1.016h.781A.508.508,0,0,0,46.482,34.8ZM27.8,31.241l.254,1.016H19.191l.254-1.016Zm14.048,11.75a1.524,1.524,0,0,0-2.917,0,1.522,1.522,0,0,0-.741,2.416,6.241,6.241,0,0,1-.848.059,6.791,6.791,0,0,1-5.014-2.321,8.006,8.006,0,0,1-2.08-4.791H44.431a8.046,8.046,0,0,1-2.143,4.858,1.519,1.519,0,0,0-.444-.22Zm-12.635-6.67H28.4l.075-1.016h1.006a2.019,2.019,0,0,0-.273,1.016Zm-8.673,9.145-.9-12.193h7.975l-.9,12.193Zm7.188,0,.6-8.128h.883v.508a8.986,8.986,0,0,0,2.365,5.986A8.519,8.519,0,0,0,33.6,45.466Zm12.123-.2a.5.5,0,0,0-.468-.3h-.012a.508.508,0,1,1,0-1.016.508.508,0,0,0,.508-.508.508.508,0,1,1,1.016,0,.508.508,0,0,0,.508.508.508.508,0,0,1,0,1.016h-.012a.5.5,0,0,0-.468.3.811.811,0,0,1-1.077,0Zm4.6-8.94v1.016H30.225V36.321a1.017,1.017,0,0,1,1.016-1.016h.508a.508.508,0,0,0,.49-.375,1.007,1.007,0,0,1,1.034-.611,1.316,1.316,0,0,1,.677.378.508.508,0,0,0,.678,0,1.549,1.549,0,0,1,.6-.369,1.521,1.521,0,0,0,.829.445,1.817,1.817,0,0,0,2.568,0,1.522,1.522,0,0,0,.852-.47,1.618,1.618,0,0,1,.573.364.508.508,0,0,0,.678,0,1.313,1.313,0,0,1,.677-.379,1.017,1.017,0,0,1,1.034.641.508.508,0,0,0,.49.375h.508a1.017,1.017,0,0,1,1.016,1.016Zm-8.637-3.048a.509.509,0,0,1,.508-.508.508.508,0,0,0,.508-.508.508.508,0,1,1,1.016,0,.508.508,0,0,0,.508.508.508.508,0,1,1,0,1.016h-.012a.5.5,0,0,0-.468.3.811.811,0,0,1-1.077,0,.5.5,0,0,0-.468-.3h-.012A.509.509,0,0,1,35.813,33.273Zm9.653,1.016h-2.2A2.075,2.075,0,0,0,41.4,33.273a1.783,1.783,0,0,0-1.016.365,2.176,2.176,0,0,0-.512-.273c0-.03,0-.061,0-.092A1.527,1.527,0,0,0,38.8,31.814a1.524,1.524,0,0,0-2.917,0A1.527,1.527,0,0,0,34.8,33.273c0,.041,0,.081.005.122a2.174,2.174,0,0,0-.513.274,1.783,1.783,0,0,0-1.016-.365,2.052,2.052,0,0,0-1.864.985H28.552l.075-1.016H28.7a.508.508,0,0,0,.493-.631l-.508-2.032a.508.508,0,0,0-.493-.385H24.069l-.452-3.619a.508.508,0,0,0-.277-.391L21.308,25.2a.508.508,0,1,0-.454.909L22.642,27l.4,3.223h-4a.508.508,0,0,0-.493.385l-.508,2.032a.508.508,0,0,0,.493.631h.074l.075,1.016H17.016V17.016h28.45Z"/>
    <path id="Trazado_106342" data-name="Trazado 106342" d="M181.08,82.161A5.08,5.08,0,1,0,176,77.08,5.08,5.08,0,0,0,181.08,82.161Zm0-9.145a4.064,4.064,0,1,1-4.064,4.064A4.064,4.064,0,0,1,181.08,73.016Z" transform="translate(-149.839 -52.444)"/>
    <path id="Trazado_106343" data-name="Trazado 106343" d="M232.241,123.989a.508.508,0,0,0,.494.022l3.048-1.524a.508.508,0,0,0,0-.909l-3.048-1.524a.508.508,0,0,0-.735.454v3.048a.508.508,0,0,0,.241.432Zm.775-2.658,1.4.7-1.4.7Z" transform="translate(-202.283 -97.396)"/>
    <path id="Trazado_106344" data-name="Trazado 106344" d="M98.54,320a2.54,2.54,0,1,0,2.54,2.54A2.54,2.54,0,0,0,98.54,320Zm1.524,2.54a1.52,1.52,0,0,1-.047.375l-2.391-1.594a1.523,1.523,0,0,1,2.437,1.219Zm-3.048,0a1.52,1.52,0,0,1,.047-.375l2.391,1.594a1.523,1.523,0,0,1-2.437-1.219Z" transform="translate(-74.92 -284.695)"/>
    <path id="Trazado_106345" data-name="Trazado 106345" d="M385.239,196.028a1.817,1.817,0,0,0,2.568,0,2.726,2.726,0,1,0-2.568,0Zm.268-2.008a.508.508,0,0,0,.508-.508.508.508,0,1,1,1.016,0,.508.508,0,0,0,.508.508.508.508,0,0,1,0,1.016h-.012a.5.5,0,0,0-.468.3.811.811,0,0,1-1.077,0,.5.5,0,0,0-.468-.3H385.5a.508.508,0,1,1,0-1.016Z" transform="translate(-344.614 -164.811)"/>
  </g>
</svg>
