<svg xmlns="http://www.w3.org/2000/svg" width="28.164" height="26.761" viewBox="0 0 28.164 26.761">
  <g id="Icons" transform="translate(-8.418 -14.374)">
    <g id="Grupo_39415" data-name="Grupo 39415" transform="translate(8.418 14.374)">
      <g id="Grupo_39405" data-name="Grupo 39405" transform="translate(3.171 0.295)">
        <path id="Trazado_106467" data-name="Trazado 106467" d="M59.254,16.88H36.137a.792.792,0,0,0-.791.791V32.9a.792.792,0,0,0,.791.791H59.254a.792.792,0,0,0,.791-.791V17.671A.792.792,0,0,0,59.254,16.88ZM38,20.167a.235.235,0,0,1-.236.236h-.747a.236.236,0,0,1-.236-.236V19.42a.235.235,0,0,1,.236-.236h.747A.235.235,0,0,1,38,19.42Zm20.606,0a.236.236,0,0,1-.236.236h-.747a.235.235,0,0,1-.236-.236V19.42a.235.235,0,0,1,.236-.236h.747a.235.235,0,0,1,.236.236Z" transform="translate(-35.346 -16.88)" fill="#72c2e9"/>
        <g id="Grupo_39404" data-name="Grupo 39404" transform="translate(4.094)">
          <path id="Trazado_106468" data-name="Trazado 106468" d="M70.114,16.877h16.51V33.689H70.114Z" transform="translate(-70.114 -16.877)" fill="#f0c020"/>
          <path id="Trazado_106469" data-name="Trazado 106469" d="M70.114,16.877h16.51V33.689H70.114Z" transform="translate(-70.114 -16.877)" fill="#f0c020"/>
        </g>
      </g>
      <g id="Grupo_39407" data-name="Grupo 39407" transform="translate(1.733 4.975)">
        <path id="Trazado_106470" data-name="Trazado 106470" d="M47.04,56.622H23.923a.792.792,0,0,0-.791.791V72.642a.792.792,0,0,0,.791.791H47.04a.792.792,0,0,0,.791-.791V57.413A.792.792,0,0,0,47.04,56.622ZM25.787,59.909a.235.235,0,0,1-.236.236h-.747a.236.236,0,0,1-.236-.236v-.747a.235.235,0,0,1,.236-.236h.747a.235.235,0,0,1,.236.236Zm20.606,0a.236.236,0,0,1-.236.236h-.747a.235.235,0,0,1-.236-.236v-.747a.235.235,0,0,1,.236-.236h.747a.235.235,0,0,1,.236.236Z" transform="translate(-23.132 -56.622)" fill="#fc5d3d"/>
        <g id="Grupo_39406" data-name="Grupo 39406" transform="translate(4.094)">
          <path id="Trazado_106471" data-name="Trazado 106471" d="M57.9,56.619H74.41V73.431H57.9Z" transform="translate(-57.9 -56.619)" fill="#f0c020"/>
          <path id="Trazado_106472" data-name="Trazado 106472" d="M57.9,56.619H74.41V73.431H57.9Z" transform="translate(-57.9 -56.619)" fill="#f0c020"/>
        </g>
      </g>
      <g id="Grupo_39409" data-name="Grupo 39409" transform="translate(0.294 9.655)">
        <path id="Trazado_106473" data-name="Trazado 106473" d="M34.826,96.364H11.709a.792.792,0,0,0-.791.791v15.229a.792.792,0,0,0,.791.791H34.826a.792.792,0,0,0,.791-.791V97.155A.792.792,0,0,0,34.826,96.364ZM13.574,110.635a.235.235,0,0,1-.236.236h-.747a.235.235,0,0,1-.236-.236v-.747a.236.236,0,0,1,.236-.236h.747a.235.235,0,0,1,.236.236Zm0-3.661a.235.235,0,0,1-.236.236h-.747a.236.236,0,0,1-.236-.236v-.747a.235.235,0,0,1,.236-.236h.747a.235.235,0,0,1,.236.236Zm0-3.662a.235.235,0,0,1-.236.236h-.747a.235.235,0,0,1-.236-.236v-.747a.236.236,0,0,1,.236-.236h.747a.235.235,0,0,1,.236.236Zm0-3.661a.235.235,0,0,1-.236.236h-.747a.236.236,0,0,1-.236-.236V98.9a.235.235,0,0,1,.236-.236h.747a.235.235,0,0,1,.236.236Zm20.606,10.985a.235.235,0,0,1-.236.236H33.2a.235.235,0,0,1-.236-.236v-.747a.235.235,0,0,1,.236-.236h.747a.236.236,0,0,1,.236.236Zm0-3.661a.236.236,0,0,1-.236.236H33.2a.235.235,0,0,1-.236-.236v-.747a.235.235,0,0,1,.236-.236h.747a.235.235,0,0,1,.236.236Zm0-3.662a.235.235,0,0,1-.236.236H33.2a.235.235,0,0,1-.236-.236v-.747a.235.235,0,0,1,.236-.236h.747a.236.236,0,0,1,.236.236Zm0-3.661a.236.236,0,0,1-.236.236H33.2a.235.235,0,0,1-.236-.236V98.9a.235.235,0,0,1,.236-.236h.747a.235.235,0,0,1,.236.236Z" transform="translate(-10.918 -96.364)" fill="#72c2e9"/>
        <g id="Grupo_39408" data-name="Grupo 39408" transform="translate(4.094)">
          <path id="Trazado_106474" data-name="Trazado 106474" d="M45.686,96.361H62.2v16.812H45.686Z" transform="translate(-45.686 -96.361)" fill="#f0c020"/>
          <path id="Trazado_106475" data-name="Trazado 106475" d="M45.686,96.361H62.2v16.812H45.686Z" transform="translate(-45.686 -96.361)" fill="#f0c020"/>
        </g>
      </g>
      <g id="Grupo_39410" data-name="Grupo 39410" transform="translate(9.5 14.36)">
        <path id="Trazado_106476" data-name="Trazado 106476" d="M95,140.687,90.295,143.6a.792.792,0,0,1-1.208-.673v-5.817a.792.792,0,0,1,1.208-.673L95,139.34A.792.792,0,0,1,95,140.687Z" transform="translate(-89.087 -136.312)" fill="#efefef"/>
      </g>
      <g id="Grupo_39411" data-name="Grupo 39411" transform="translate(9.026 1.507)">
        <path id="Trazado_106477" data-name="Trazado 106477" d="M97.758,27.758H86.887a.294.294,0,1,1,0-.589h10.87a.294.294,0,1,1,0,.589Zm-12.048,0h-.353a.294.294,0,1,1,0-.589h.353a.294.294,0,1,1,0,.589Z" transform="translate(-85.062 -27.169)" fill="#f8e5b0"/>
      </g>
      <g id="Grupo_39412" data-name="Grupo 39412" transform="translate(7.587 6.187)">
        <path id="Trazado_106478" data-name="Trazado 106478" d="M85.544,67.5H74.673a.294.294,0,0,1,0-.589h10.87a.294.294,0,0,1,0,.589ZM73.5,67.5h-.353a.294.294,0,0,1,0-.589H73.5a.294.294,0,0,1,0,.589Z" transform="translate(-72.848 -66.911)" fill="#f8e5b0"/>
      </g>
      <g id="Grupo_39413" data-name="Grupo 39413" transform="translate(6.149 24.666)">
        <path id="Trazado_106479" data-name="Trazado 106479" d="M73.33,224.424h-.353a.294.294,0,0,1,0-.589h.353a.294.294,0,1,1,0,.589Zm-1.531,0H60.928a.294.294,0,1,1,0-.589H71.8a.294.294,0,1,1,0,.589Z" transform="translate(-60.634 -223.835)" fill="#f8e5b0"/>
      </g>
      <g id="Grupo_39414" data-name="Grupo 39414" transform="translate(6.149 10.867)">
        <path id="Trazado_106480" data-name="Trazado 106480" d="M73.33,107.242H62.459a.294.294,0,0,1,0-.589H73.33a.294.294,0,0,1,0,.589Zm-12.048,0h-.353a.294.294,0,0,1,0-.589h.353a.294.294,0,1,1,0,.589Z" transform="translate(-60.634 -106.653)" fill="#f8e5b0"/>
      </g>
      <path id="Trazado_106481" data-name="Trazado 106481" d="M46.337,33.945H45.59a.531.531,0,0,0-.53.53v.747a.531.531,0,0,0,.53.53h.747a.531.531,0,0,0,.53-.53v-.747A.53.53,0,0,0,46.337,33.945Zm-.059,1.218h-.629v-.629h.629Z" transform="translate(-40.745 -31.64)"/>
      <path id="Trazado_106482" data-name="Trazado 106482" d="M220.566,35.756h.747a.531.531,0,0,0,.53-.53V34.48a.531.531,0,0,0-.53-.53h-.747a.531.531,0,0,0-.53.53v.747A.531.531,0,0,0,220.566,35.756Zm.059-1.218h.629v.629h-.629Z" transform="translate(-195.116 -31.645)"/>
      <path id="Trazado_106483" data-name="Trazado 106483" d="M34.653,74.965v-.747a.531.531,0,0,0-.53-.53h-.747a.531.531,0,0,0-.53.53v.747a.531.531,0,0,0,.53.53h.747A.531.531,0,0,0,34.653,74.965Zm-.589-.059h-.629v-.629h.629Z" transform="translate(-29.97 -66.703)"/>
      <path id="Trazado_106484" data-name="Trazado 106484" d="M209.1,73.692h-.747a.531.531,0,0,0-.53.53v.747a.531.531,0,0,0,.53.53h.747a.531.531,0,0,0,.53-.53v-.747A.53.53,0,0,0,209.1,73.692Zm-.059,1.218h-.629v-.629h.629Z" transform="translate(-184.34 -66.707)"/>
      <path id="Trazado_106485" data-name="Trazado 106485" d="M20.628,176.9a.531.531,0,0,0,.53.53H21.9a.531.531,0,0,0,.53-.53v-.747a.531.531,0,0,0-.53-.53h-.747a.531.531,0,0,0-.53.53Zm.589-.688h.629v.629h-.629Z" transform="translate(-19.19 -156.635)"/>
      <path id="Trazado_106486" data-name="Trazado 106486" d="M92.949,136.878l-4.705-2.909a1.086,1.086,0,0,0-1.657.924v5.817a1.085,1.085,0,0,0,1.653.926l0,0,1.6-.989a.294.294,0,0,0-.31-.5l-1.6.986-.006,0a.5.5,0,0,1-.759-.423v-5.817a.5.5,0,0,1,.759-.423l4.705,2.909a.5.5,0,0,1,0,.846l0,0-1.1.677a.294.294,0,0,0,.31.5l1.1-.68h0A1.086,1.086,0,0,0,92.949,136.878Z" transform="translate(-77.382 -119.741)"/>
      <path id="Trazado_106487" data-name="Trazado 106487" d="M21.162,115.236h.747a.531.531,0,0,0,.53-.53v-.747a.531.531,0,0,0-.53-.53h-.747a.531.531,0,0,0-.53.53v.747A.53.53,0,0,0,21.162,115.236Zm.059-1.218h.629v.629h-.629Z" transform="translate(-19.194 -101.765)"/>
      <path id="Trazado_106488" data-name="Trazado 106488" d="M20.632,145.8a.531.531,0,0,0,.53.53h.747a.531.531,0,0,0,.53-.53v-.747a.531.531,0,0,0-.53-.53h-.747a.531.531,0,0,0-.53.53Zm.589-.688h.629v.629h-.629Z" transform="translate(-19.194 -129.199)"/>
      <path id="Trazado_106489" data-name="Trazado 106489" d="M21.909,206.718h-.747a.531.531,0,0,0-.53.53v.747a.531.531,0,0,0,.53.53h.747a.531.531,0,0,0,.53-.53v-.747A.531.531,0,0,0,21.909,206.718Zm-.059,1.218h-.629v-.629h.629Z" transform="translate(-19.194 -184.067)"/>
      <path id="Trazado_106490" data-name="Trazado 106490" d="M196.885,206.714h-.747a.531.531,0,0,0-.53.53v.747a.531.531,0,0,0,.53.53h.747a.531.531,0,0,0,.53-.53v-.747A.53.53,0,0,0,196.885,206.714Zm-.059,1.218H196.2V207.3h.629Z" transform="translate(-173.564 -184.064)"/>
      <path id="Trazado_106491" data-name="Trazado 106491" d="M196.885,175.624h-.747a.531.531,0,0,0-.53.53v.747a.531.531,0,0,0,.53.53h.747a.531.531,0,0,0,.53-.53v-.747A.53.53,0,0,0,196.885,175.624Zm-.059,1.218H196.2v-.629h.629Z" transform="translate(-173.564 -156.635)"/>
      <path id="Trazado_106492" data-name="Trazado 106492" d="M196.885,144.524h-.747a.531.531,0,0,0-.53.53v.747a.531.531,0,0,0,.53.53h.747a.531.531,0,0,0,.53-.53v-.747A.53.53,0,0,0,196.885,144.524Zm-.059,1.218H196.2v-.629h.629Z" transform="translate(-173.564 -129.197)"/>
      <path id="Trazado_106493" data-name="Trazado 106493" d="M196.885,113.434h-.747a.531.531,0,0,0-.53.53v.747a.531.531,0,0,0,.53.53h.747a.531.531,0,0,0,.53-.53v-.747A.531.531,0,0,0,196.885,113.434Zm-.059,1.218H196.2v-.629h.629Z" transform="translate(-173.564 -101.769)"/>
      <path id="Trazado_106494" data-name="Trazado 106494" d="M8.418,40.044s0,0,0,0A1.087,1.087,0,0,0,9.5,41.135H32.62a1.087,1.087,0,0,0,1.086-1.086V36.455h.353a1.087,1.087,0,0,0,1.086-1.086V31.775H35.5a1.087,1.087,0,0,0,1.086-1.086V15.46A1.087,1.087,0,0,0,35.5,14.375c-33.6,0,4.056,0-23.116,0a1.087,1.087,0,0,0-1.086,1.086v3.594h-.358a1.087,1.087,0,0,0-1.08,1.085v3.594H9.5A1.087,1.087,0,0,0,8.418,24.82s0,0,0,0v4.941a.294.294,0,1,0,.589,0V24.818a.5.5,0,0,1,.5-.494h3.009V40.546H9.5a.5.5,0,0,1-.5-.494V32.121a.294.294,0,1,0-.589,0Zm24.7,0a.5.5,0,0,1-.5.5H29.612V24.323H32.62a.5.5,0,0,1,.5.5ZM15.68,19.643H26.993a.294.294,0,1,0,0-.589H15.978V14.964H31.9v4.091H29.348a.294.294,0,1,0,0,.589h1.113v4.092H14.54V19.643ZM34.555,35.369a.5.5,0,0,1-.5.5h-.353V24.82a1.087,1.087,0,0,0-1.086-1.086H31.05V19.643h3.009a.5.5,0,0,1,.5.5ZM35.993,15.46V30.689a.5.5,0,0,1-.5.5h-.352V20.14a1.087,1.087,0,0,0-1.08-1.085H32.489V14.964H35.5A.5.5,0,0,1,35.993,15.46Zm-24.11,0a.5.5,0,0,1,.5-.5h3.009v4.091H11.883Zm-1.438,4.68a.5.5,0,0,1,.5-.5h3.009v4.091H10.445ZM13.1,24.323H29.023V40.546H13.1Z" transform="translate(-8.418 -14.374)"/>
      <circle id="Elipse_464" data-name="Elipse 464" cx="0.294" cy="0.294" r="0.294" transform="translate(0 16.275)"/>
      <circle id="Elipse_465" data-name="Elipse 465" cx="0.294" cy="0.294" r="0.294" transform="translate(19.458 4.681)"/>
      <path id="Trazado_106495" data-name="Trazado 106495" d="M119.076,182.044a.294.294,0,1,0,.405.1A.294.294,0,0,0,119.076,182.044Z" transform="translate(-105.922 -162.259)"/>
    </g>
  </g>
</svg>
