<svg xmlns="http://www.w3.org/2000/svg" width="33.893" height="32.71" viewBox="0 0 33.893 32.71">
  <g id="tv" transform="translate(0 -0.5)">
    <path id="Trazado_106346" data-name="Trazado 106346" d="M230.191,393.316h3.417v3.825h-3.417Zm0,0" transform="translate(-214.953 -366.813)" fill="#ede7e9"/>
    <path id="Trazado_106347" data-name="Trazado 106347" d="M230.191,393.316h3.417v1.629h-3.417Zm0,0" transform="translate(-214.953 -366.813)" fill="#c7b9bf"/>
    <path id="Trazado_106348" data-name="Trazado 106348" d="M152.87,451.1h-4.619l-4.938,1.013a.285.285,0,0,0-.228.279v.808a.285.285,0,0,0,.285.285h14.38a.285.285,0,0,0,.285-.285v-.808a.285.285,0,0,0-.228-.279Zm0,0" transform="translate(-133.614 -420.769)" fill="#6e82a6"/>
    <path id="Trazado_106349" data-name="Trazado 106349" d="M277.911,452.107l-4.938-1.014H271.7l4.3,1.014a.278.278,0,0,1,.2.279v.808a.268.268,0,0,1-.248.285h1.9a.285.285,0,0,0,.285-.285v-.808A.285.285,0,0,0,277.911,452.107Zm0,0" transform="translate(-253.717 -420.765)" fill="#3f5173"/>
    <path id="Trazado_106350" data-name="Trazado 106350" d="M7.5,40.7V60.325a1.922,1.922,0,0,0,1.922,1.922H38.478A1.922,1.922,0,0,0,40.4,60.325V40.7a1.922,1.922,0,0,0-1.922-1.922H9.422A1.922,1.922,0,0,0,7.5,40.7Zm0,0" transform="translate(-7.004 -35.743)" fill="#6e82a6"/>
    <path id="Trazado_106351" data-name="Trazado 106351" d="M68.391,71.925V89.352a.886.886,0,0,1-.886.885H40.647a.886.886,0,0,1-.886-.885V71.925a.887.887,0,0,1,.886-.886H67.505A.887.887,0,0,1,68.391,71.925Zm0,0" transform="translate(-37.13 -65.87)" fill="#adda4b"/>
    <path id="Trazado_106352" data-name="Trazado 106352" d="M326.93,71.925v.958l-5.055,12.073-1.421-.6-3.825-1.6,4.907-11.72h4.508A.887.887,0,0,1,326.93,71.925Zm0,0" transform="translate(-295.669 -65.87)" fill="#ffa574"/>
    <path id="Trazado_106353" data-name="Trazado 106353" d="M380.886,71.925v.958l-5.055,12.073-1.421-.6,5.578-13.322H380A.887.887,0,0,1,380.886,71.925Zm0,0" transform="translate(-349.625 -65.87)" fill="#eb7a4d"/>
    <path id="Trazado_106354" data-name="Trazado 106354" d="M316.621,185.854l1.847-4.412,5.246,2.2-1.847,4.412Zm0,0" transform="translate(-295.661 -168.963)" fill="#ede7e9"/>
    <path id="Trazado_106355" data-name="Trazado 106355" d="M374.4,210.045l1.847-4.412,1.421.6-1.847,4.412Zm0,0" transform="translate(-349.614 -191.553)" fill="#c7b9bf"/>
    <path id="Trazado_106356" data-name="Trazado 106356" d="M218.383,214.152l-.589-.107a4.063,4.063,0,0,1-5.977-1.089l-2.551-.465a4.336,4.336,0,0,0-5.043,3.488l-.153.841a.927.927,0,0,0,.746,1.078l12.155,2.215a.927.927,0,0,0,1.078-.746l.822-4.508A.608.608,0,0,0,218.383,214.152Zm0,0" transform="translate(-190.548 -197.891)" fill="#ff5579"/>
    <path id="Trazado_106357" data-name="Trazado 106357" d="M229.117,237.076l-.589-.107a1.834,1.834,0,0,1-.491.428.712.712,0,0,1-.01.1L227.206,242a.88.88,0,0,1-.975.765l-10.68-1.946h0l12.155,2.215a.927.927,0,0,0,1.078-.746l.822-4.508A.608.608,0,0,0,229.117,237.076Zm0,0" transform="translate(-201.282 -220.815)" fill="#c43661"/>
    <path id="Trazado_106358" data-name="Trazado 106358" d="M272.166,212.52l-.142,6.147,1.825.333.149-6.186-1.262-.23A4.316,4.316,0,0,0,272.166,212.52Zm0,0" transform="translate(-254.016 -197.984)" fill="#6f6c99"/>
    <path id="Trazado_106359" data-name="Trazado 106359" d="M76.591,13.721A5.721,5.721,0,1,1,70.87,8,5.721,5.721,0,0,1,76.591,13.721Zm0,0" transform="translate(-60.836 -7.004)" fill="#ede7e9"/>
    <path id="Trazado_106360" data-name="Trazado 106360" d="M92.532,22.359a5.721,5.721,0,0,1-7.567,8.416,5.721,5.721,0,1,0,7.567-8.416Zm0,0" transform="translate(-79.34 -20.412)" fill="#c7b9bf"/>
    <path id="Trazado_106361" data-name="Trazado 106361" d="M131.992,73.35a1.494,1.494,0,1,1-1.494-1.494A1.494,1.494,0,0,1,131.992,73.35Zm0,0" transform="translate(-120.464 -66.632)" fill="#30c1ff"/>
    <path id="Trazado_106362" data-name="Trazado 106362" d="M69.624,19.306a5.73,5.73,0,0,1-3.681-2.675,2.355,2.355,0,0,1,3.681,2.675ZM74.2,12.638a2.355,2.355,0,0,0,2.363,1.624c.017-.178.026-.358.026-.541a5.7,5.7,0,0,0-1.432-3.785A2.356,2.356,0,0,0,74.2,12.638Zm-6.666,0a2.355,2.355,0,0,0-.957-2.7,5.7,5.7,0,0,0-1.432,3.785c0,.183.009.363.026.541A2.356,2.356,0,0,0,67.537,12.638Zm5.608-4.168a5.734,5.734,0,0,0-4.55,0,2.355,2.355,0,0,0,4.55,0ZM75.8,16.632a2.355,2.355,0,0,0-3.68,2.674A5.73,5.73,0,0,0,75.8,16.632Zm0,0" transform="translate(-60.836 -7.004)" fill="#30c1ff"/>
    <g id="Grupo_39373" data-name="Grupo 39373" transform="translate(5.627 2.933)">
      <path id="Trazado_106363" data-name="Trazado 106363" d="M211.544,37.25a2.355,2.355,0,0,0-.341.271,5.719,5.719,0,0,1,.37,3.7,2.355,2.355,0,0,0,1.378.36A5.7,5.7,0,0,0,211.544,37.25Zm0,0" transform="translate(-202.849 -37.25)" fill="#1591cf"/>
      <path id="Trazado_106364" data-name="Trazado 106364" d="M85,149.516a5.7,5.7,0,0,0,3.161,1.938,2.35,2.35,0,0,0,.151-.993A5.676,5.676,0,0,1,85,149.516Zm0,0" transform="translate(-85 -142.084)" fill="#1591cf"/>
      <path id="Trazado_106365" data-name="Trazado 106365" d="M170.2,130.469a5.74,5.74,0,0,1-2.064,1.654,2.357,2.357,0,0,0,.051,1.537,5.722,5.722,0,0,0,3.68-2.674A2.359,2.359,0,0,0,170.2,130.469Zm0,0" transform="translate(-162.536 -124.292)" fill="#1591cf"/>
    </g>
    <path id="Trazado_106366" data-name="Trazado 106366" d="M26.445,54.747H2.419A1.427,1.427,0,0,1,.993,53.321V33.7A1.427,1.427,0,0,1,2.419,32.27h1.16a.5.5,0,0,0,0-.993H2.419A2.421,2.421,0,0,0,0,33.7V53.321A2.421,2.421,0,0,0,2.419,55.74H14.742v2.832h-.1a.5.5,0,0,0-.1.01l-1.334.274a.5.5,0,1,0,.2.973l1.284-.264h4.518l4.719.968v.423H9.968v-.423l1.449-.3a.5.5,0,1,0-.2-.973L9.6,59.6a.784.784,0,0,0-.624.765v.808a.782.782,0,0,0,.781.781h14.38a.782.782,0,0,0,.781-.781v-.808a.784.784,0,0,0-.624-.765l-4.937-1.013a.5.5,0,0,0-.1-.01h-.1V55.74h7.294a.5.5,0,1,0,0-.993Zm-8.287,3.825H15.735V55.74h2.424Zm0,0" transform="translate(0 -28.74)"/>
    <path id="Trazado_106367" data-name="Trazado 106367" d="M258.95,31.277H244.1a.5.5,0,1,0,0,.993H258.95a1.427,1.427,0,0,1,1.426,1.426V53.321a1.427,1.427,0,0,1-1.426,1.426h-3.044a.5.5,0,0,0,0,.993h3.044a2.421,2.421,0,0,0,2.419-2.419V33.7A2.421,2.421,0,0,0,258.95,31.277Zm0,0" transform="translate(-227.476 -28.74)"/>
    <path id="Trazado_106368" data-name="Trazado 106368" d="M33.285,64.77a.5.5,0,1,0-.914-.387,1.37,1.37,0,0,0-.109.538V82.348a1.384,1.384,0,0,0,1.382,1.382H60.5a1.384,1.384,0,0,0,1.382-1.382V64.921a1.376,1.376,0,0,0-.122-.568l-.005-.011,0,0a1.384,1.384,0,0,0-1.253-.8H47.731a.5.5,0,0,0,0,.993h7.516l-2.764,6.6-.009.019-.961,2.3-.029-.006L50.2,73.208h0l-1.262-.23-.05-.009a4.831,4.831,0,0,0-3.255.59.5.5,0,1,0,.5.857,3.832,3.832,0,0,1,1.636-.512l-.117,5.058-3.166-.577a.431.431,0,0,1-.347-.5l.153-.841a3.81,3.81,0,0,1,.57-1.424.5.5,0,1,0-.829-.547,4.793,4.793,0,0,0-.718,1.793l-.153.841a1.424,1.424,0,0,0,1.145,1.656l.21.038-.089.5a.5.5,0,0,0,.978.172l.088-.5,1.259.229-.087.492a.5.5,0,1,0,.978.172l.086-.486,1.259.229-.085.479a.5.5,0,1,0,.978.172l.084-.473,2.868.523-.081.457a.5.5,0,0,0,.978.172l.08-.451,1.258.229-.078.444a.5.5,0,1,0,.978.172l.077-.439.417.076a1.423,1.423,0,0,0,1.656-1.145l.822-4.508a1.107,1.107,0,0,0-.7-1.234l2.654-6.338v14a.39.39,0,0,1-.389.389H33.644a.39.39,0,0,1-.389-.389V64.921A.384.384,0,0,1,33.285,64.77Zm23.934,9.777a.5.5,0,0,0-.239.167,2.977,2.977,0,0,1-2.752.615,3.737,3.737,0,0,1-2.013-.985l.984-2.351,4.33,1.813Zm-7.618-.44-.125,5.181-.837-.153.12-5.182Zm8.361,1.637-.822,4.508a.43.43,0,0,1-.5.346l-.867-.158-.044-.01-.04-.005-5.223-.952.125-5.186.448.082a2.41,2.41,0,0,0,.178.3.479.479,0,0,0,.051.072,4.468,4.468,0,0,0,2.784,1.561,4.146,4.146,0,0,0,3.5-.749l.32.058A.112.112,0,0,1,57.962,75.745Zm-.048-2.855-4.33-1.813,2.74-6.546H60.5a.389.389,0,0,1,.389.389v.859Zm0,0" transform="translate(-30.126 -58.866)"/>
    <path id="Trazado_106369" data-name="Trazado 106369" d="M58.039,4.548l0,.011a6.184,6.184,0,0,0-.384,1.981v.032s0,.007,0,.011,0,.016,0,.024,0,.011,0,.016,0,.013,0,.02,0,.015,0,.023V6.68c0,.013,0,.025,0,.038s0,.025,0,.037,0,.022,0,.034v0a6.178,6.178,0,0,0,.843,3.052c.006.013.013.026.021.039a6.24,6.24,0,0,0,4,2.906l.01,0a6.242,6.242,0,0,0,2.687,0l.009,0a6.239,6.239,0,0,0,4-2.906c.007-.013.014-.026.021-.039a6.181,6.181,0,0,0,.843-3.052v0c0-.011,0-.022,0-.034s0-.025,0-.037,0-.025,0-.038V6.666c0-.008,0-.015,0-.023s0-.013,0-.02,0-.011,0-.016,0-.016,0-.024,0-.007,0-.011V6.539A6.212,6.212,0,0,0,68.528,2.6a.5.5,0,0,0-.036-.037,6.249,6.249,0,0,0-2.12-1.539l-.032-.015a6.229,6.229,0,0,0-4.945,0l-.033.016a6.248,6.248,0,0,0-2.12,1.539c-.012.012-.025.024-.036.037a6.213,6.213,0,0,0-1.164,1.94Zm.6,2.123v-.01c0-.033,0-.066,0-.1h0A5.221,5.221,0,0,1,58.968,4.9h0l.014-.038a5.211,5.211,0,0,1,.667-1.225,1.859,1.859,0,0,1-1.008,3.1V6.718C58.641,6.7,58.641,6.686,58.642,6.671Zm3.624,5.021a5.247,5.247,0,0,1-2.634-1.916,1.859,1.859,0,0,1,2.634,1.916Zm.973.213a2.852,2.852,0,0,0-4.111-2.988,5.182,5.182,0,0,1-.389-1.194,2.852,2.852,0,0,0,1.573-4.832,5.26,5.26,0,0,1,1.014-.739,2.852,2.852,0,0,0,5.081,0,5.244,5.244,0,0,1,1.014.739,2.852,2.852,0,0,0,1.573,4.832A5.174,5.174,0,0,1,68.6,8.917,2.852,2.852,0,0,0,64.494,11.9a5.273,5.273,0,0,1-1.255,0Zm.485-10.41h.285a5.2,5.2,0,0,1,1.486.258,1.859,1.859,0,0,1-3.258,0A5.2,5.2,0,0,1,63.723,1.495Zm5.027,3.368.013.034,0,.006a5.229,5.229,0,0,1,.323,1.658h0c0,.033,0,.066,0,.1,0,0,0,.007,0,.01v.062a1.859,1.859,0,0,1-1.008-3.1A5.222,5.222,0,0,1,68.751,4.862Zm-3.284,6.83A1.86,1.86,0,0,1,68.1,9.775,5.246,5.246,0,0,1,65.466,11.692Zm0,0" transform="translate(-53.832)"/>
    <path id="Trazado_106370" data-name="Trazado 106370" d="M226.546,93.223a.5.5,0,0,0,.7,0,8.15,8.15,0,0,0,2.4-5.8.5.5,0,1,0-.993,0,7.163,7.163,0,0,1-2.112,5.1A.5.5,0,0,0,226.546,93.223Zm0,0" transform="translate(-211.413 -80.705)"/>
    <path id="Trazado_106371" data-name="Trazado 106371" d="M125.485,66.346a1.991,1.991,0,1,0-1.991,1.99A1.993,1.993,0,0,0,125.485,66.346Zm-1.991,1a1,1,0,1,1,1-1A1,1,0,0,1,123.495,67.344Zm0,0" transform="translate(-113.461 -59.628)"/>
  </g>
</svg>
