<svg xmlns="http://www.w3.org/2000/svg" xmlns:xlink="http://www.w3.org/1999/xlink" width="66" height="66" viewBox="0 0 66 66">
  <defs>
    <clipPath id="clip-path">
      <rect id="Rectángulo_23091" data-name="Rectángulo 23091" width="29.866" height="33.347" fill="none"/>
    </clipPath>
  </defs>
  <g id="Grupo_39374" data-name="Grupo 39374" transform="translate(-12 -309)">
    <circle id="Elipse_460" data-name="Elipse 460" cx="33" cy="33" r="33" transform="translate(12 309)" fill="#d31e24"/>
    <g id="Grupo_39133" data-name="Grupo 39133" transform="translate(30 330.105)">
      <g id="Grupo_39132" data-name="Grupo 39132" clip-path="url(#clip-path)">
        <path id="Trazado_106284" data-name="Trazado 106284" d="M10.86,0c2.182,0,4.364-.008,6.546,0a3.127,3.127,0,0,1,3.205,2.552,4.035,4.035,0,0,1,.053.78c0,4.234-.007,8.469.009,12.7a4.206,4.206,0,0,1-.96,2.675c-.775.983-1.6,1.933-2.457,2.844a51.369,51.369,0,0,0-4.483,5.079,15.787,15.787,0,0,0-2.847,6.3c-.045.237-.168.29-.356.33a2.832,2.832,0,0,1-3.541-3.026,6.506,6.506,0,0,1,.852-2.827c.726-1.328,1.51-2.624,2.275-3.931a15.519,15.519,0,0,0,1.886-4.24c.21-.892-.183-1.408-1.089-1.408-2.339,0-4.678,0-7.017-.006a5.129,5.129,0,0,1-1.086-.118A1.825,1.825,0,0,1,.292,16.25,2.271,2.271,0,0,1,1.1,13.969a1.573,1.573,0,0,0,.506-.782.879.879,0,0,0-.583-1A1.81,1.81,0,0,1,0,10.317a1.845,1.845,0,0,1,1.14-1.841.961.961,0,0,0,.383-1.554,2.237,2.237,0,0,1-.511-1.788A1.438,1.438,0,0,1,2.149,3.885a.975.975,0,0,0,.656-1.562A1.414,1.414,0,0,1,4.118.009C6.365-.009,8.613,0,10.86,0" transform="translate(0 0)" fill="#fff"/>
        <path id="Trazado_106285" data-name="Trazado 106285" d="M223.7,9.746q0,4.235,0,8.469c0,.937-.279,1.214-1.214,1.214q-2.45,0-4.9,0c-.793,0-1.122-.325-1.122-1.115q0-8.587,0-17.174c0-.8.311-1.109,1.121-1.11q2.489,0,4.979,0c.838,0,1.136.3,1.137,1.13q0,4.294,0,8.587" transform="translate(-193.833 -0.024)" fill="#fff"/>
      </g>
    </g>
  </g>
</svg>
