<svg xmlns="http://www.w3.org/2000/svg" xmlns:xlink="http://www.w3.org/1999/xlink" width="27.59" height="27.601" viewBox="0 0 27.59 27.601">
  <defs>
    <clipPath id="clip-path">
      <rect id="Rectángulo_23081" data-name="Rectángulo 23081" width="27.59" height="27.601" fill="#fff"/>
    </clipPath>
  </defs>
  <g id="Grupo_39104" data-name="Grupo 39104" transform="translate(0 0)">
    <g id="Grupo_39103" data-name="Grupo 39103" transform="translate(0 0)" clip-path="url(#clip-path)">
      <path id="Trazado_106277" data-name="Trazado 106277" d="M13.792,26.277a3.942,3.942,0,0,1-6.7-1.394.356.356,0,0,0-.331-.288,4.409,4.409,0,0,1-3.8-4.568.553.553,0,0,0-.249-.507A7.381,7.381,0,0,1,2.7,8.1a.613.613,0,0,0,.261-.562A4.412,4.412,0,0,1,6.746,3.008a.355.355,0,0,0,.346-.271,3.929,3.929,0,0,1,6.53-1.579,1.07,1.07,0,0,1,.125.2c.117-.106.185-.165.249-.227a3.934,3.934,0,0,1,6.488,1.558.4.4,0,0,0,.37.324,4.41,4.41,0,0,1,3.776,4.53.585.585,0,0,0,.247.539,7.386,7.386,0,0,1-.008,11.446.553.553,0,0,0-.24.512,4.414,4.414,0,0,1-3.785,4.554.356.356,0,0,0-.345.272,3.93,3.93,0,0,1-6.532,1.578c-.05-.049-.1-.1-.175-.166M8.867,5.106c-.366-.047-.7-.086-1.035-.134a2.451,2.451,0,0,0-2.8,3.14c.18.658.18.658-.411,1.023a5.417,5.417,0,0,0-.031,9.314c.616.385.616.385.425,1.1A2.458,2.458,0,0,0,7.8,22.636c.344-.052.69-.091,1.07-.141,0,.4,0,.79,0,1.178a1.964,1.964,0,0,0,3.9.344,4.752,4.752,0,0,0,.043-.828c0-.819,0-1.637,0-2.467H14.78v.352c0,.873,0,1.746,0,2.619a1.845,1.845,0,0,0,.665,1.436,1.865,1.865,0,0,0,2.094.329A1.9,1.9,0,0,0,18.72,23.69c.017-.394,0-.789,0-1.2.393.052.739.093,1.084.145a2.46,2.46,0,0,0,2.768-3.079c-.064-.244-.132-.488-.2-.741a5.508,5.508,0,0,0,0-10.038c.073-.266.14-.5.2-.739a2.46,2.46,0,0,0-2.769-3.078c-.351.054-.7.093-1.083.143,0-.427.009-.827,0-1.225a1.97,1.97,0,0,0-3.94.086V5.889H12.81c0-.65,0-1.276,0-1.9a1.971,1.971,0,1,0-3.941,0c0,.368,0,.736,0,1.118" transform="translate(0 0)" fill="#fff"/>
      <path id="Trazado_106278" data-name="Trazado 106278" d="M28.922,30.923H25.961V34.83H24c-.005-.058-.015-.117-.015-.175,0-2.4-.012-4.806,0-7.209a3.441,3.441,0,0,1,3.579-3.436,3.4,3.4,0,0,1,3.295,3.211c.054,2.514.015,5.031.015,7.547,0,.018-.014.035-.029.068H28.922Zm-.014-2c0-.546.019-1.058,0-1.569a1.472,1.472,0,0,0-1.309-1.369,1.4,1.4,0,0,0-1.564,1.086,12.335,12.335,0,0,0-.019,1.852Z" transform="translate(-16.101 -16.122)" fill="#fff"/>
      <path id="Trazado_106279" data-name="Trazado 106279" d="M51.952,26.024h-.943v6.894h.947v1.954H48.049v-1.94h.943v-6.9h-.947V24.073h3.907Z" transform="translate(-32.262 -16.165)" fill="#fff"/>
    </g>
  </g>
</svg>
