<svg id="Grupo_39370" data-name="Grupo 39370" xmlns="http://www.w3.org/2000/svg" xmlns:xlink="http://www.w3.org/1999/xlink" width="24.862" height="24.601" viewBox="0 0 24.862 24.601">
  <defs>
    <clipPath id="clip-path">
      <rect id="Rectángulo_23080" data-name="Rectángulo 23080" width="24.862" height="24.601" fill="#fff"/>
    </clipPath>
  </defs>
  <g id="Grupo_39101" data-name="Grupo 39101" clip-path="url(#clip-path)">
    <path id="Trazado_106276" data-name="Trazado 106276" d="M24.862,24.6H22.9A10.579,10.579,0,0,0,12.075,14.28a10.533,10.533,0,0,0-10.2,10.285H0c.05-.554.063-1.1.155-1.64a12.617,12.617,0,0,1,2.461-5.674,12.2,12.2,0,0,1,4.841-3.767c.127-.055.254-.108.38-.164.4-.179.428-.366.079-.65a6.931,6.931,0,0,1-2.6-4.7A6.827,6.827,0,0,1,7.66,1.844,6.833,6.833,0,0,1,12.941.026a7.085,7.085,0,0,1,6.568,6.45,6.9,6.9,0,0,1-2.453,6.059c-.662.583-.377.627.179.874a12.271,12.271,0,0,1,7.252,8.683c.2.8.249,1.638.375,2.509M12.414,1.94a5.189,5.189,0,0,0-5.25,5.17,5.235,5.235,0,0,0,10.467.206A5.192,5.192,0,0,0,12.414,1.94" transform="translate(0 0)" fill="#fff"/>
  </g>
</svg>
