<svg id="Grupo_39371" data-name="Grupo 39371" xmlns="http://www.w3.org/2000/svg" xmlns:xlink="http://www.w3.org/1999/xlink" width="22.664" height="23.487" viewBox="0 0 22.664 23.487">
  <defs>
    <clipPath id="clip-path">
      <rect id="Rectángulo_23077" data-name="Rectángulo 23077" width="22.664" height="23.487"/>
    </clipPath>
  </defs>
  <g id="Grupo_39099" data-name="Grupo 39099" transform="translate(0 0)" clip-path="url(#clip-path)">
    <path id="Trazado_106275" data-name="Trazado 106275" d="M21.2,23.487a2.11,2.11,0,0,1-.9-.635q-2.609-2.726-5.228-5.441a1.778,1.778,0,0,1-.127-.167,9.377,9.377,0,0,1-7.919,1.388A9.125,9.125,0,0,1,1.563,14.68a9.478,9.478,0,1,1,15.187.907l1.921,2c1.187,1.234,2.356,2.486,3.567,3.7a1.26,1.26,0,0,1-.541,2.18c-.014,0-.025.017-.037.025Zm-11.727-7a7.008,7.008,0,1,0-7-7.029,7.012,7.012,0,0,0,7,7.029" transform="translate(0 0)"/>
  </g>
</svg>
