<svg xmlns="http://www.w3.org/2000/svg" xmlns:xlink="http://www.w3.org/1999/xlink" width="166.74" height="170.417" viewBox="0 0 166.74 170.417">
  <defs>
    <linearGradient id="linear-gradient" y1="0.5" x2="1" y2="0.5" gradientUnits="objectBoundingBox">
      <stop offset="0" stop-color="#3ddeed"/>
      <stop offset="1" stop-color="#cb00dd"/>
    </linearGradient>
  </defs>
  <g id="concierge02" transform="translate(-0.001)">
    <path id="Trazado_106291" data-name="Trazado 106291" d="M155.828,245.805a11.282,11.282,0,0,1-7.18-2.148c-3.389-2.694-4.422-7.752-2.985-14.619l.03-.146,41.478-29.154a39.644,39.644,0,0,0,8.376-8.186h0l23.166-30.568c4.591-6.061,11.23-11.027,15.11-11.308a2.9,2.9,0,0,1,2.347.708c4.669,4.6,3.75,14.6-2.521,27.435-12.1,24.777-40.5,53.524-63.294,64.082-5.606,2.6-10.54,3.906-14.528,3.906Zm-9.457-16.47c-1.33,6.5-.382,11.244,2.747,13.732,4.018,3.195,11.447,2.537,20.922-1.851,22.666-10.5,50.9-39.085,62.935-63.73,6.12-12.53,7.091-22.213,2.667-26.569a2.189,2.189,0,0,0-1.764-.494c-3.691.267-10.087,5.105-14.566,11.013L196.145,192a40.435,40.435,0,0,1-8.542,8.346l-41.236,28.982Z" transform="translate(-111.888 -115.461)" fill="url(#linear-gradient)"/>
    <path id="Trazado_106292" data-name="Trazado 106292" d="M144.152,245.841c-3.508,0-6.333-.891-8.312-2.678-3.5-3.158-4.23-8.851-2.112-16.468l.039-.139,43.855-27.636a40.5,40.5,0,0,0,9.059-8.072l25.742-30.906c5.1-6.122,12.1-10.883,16.043-10.814a2.8,2.8,0,0,1,2.292.99c4.237,5.4,2.45,16.12-4.9,29.407-14.212,25.68-45,54.114-68.634,63.387a36.9,36.9,0,0,1-13.065,2.93Zm-9.74-18.8c-1.988,7.251-1.323,12.633,1.929,15.567,3.83,3.455,11.145,3.316,20.6-.393,23.5-9.219,54.114-37.5,68.253-63.051,7.2-13.01,9.013-23.427,4.971-28.58a2.092,2.092,0,0,0-1.712-.7c-3.675-.039-10.483,4.577-15.453,10.544L187.257,191.33l-.288-.24.288.24a41.265,41.265,0,0,1-9.235,8.227Z" transform="translate(-102.252 -115.047)" fill="url(#linear-gradient)"/>
    <path id="Trazado_106293" data-name="Trazado 106293" d="M132.579,246.981c-4.152,0-7.391-1.122-9.58-3.359-3.595-3.675-3.967-10.048-1.079-18.431l.046-.135,46.094-25.767a40.908,40.908,0,0,0,9.729-7.884l28.338-31.027c5.578-6.109,13-10.588,16.891-10.2a2.781,2.781,0,0,1,2.251,1.291c3.739,6.232,1.024,17.647-7.448,31.318-16.395,26.457-49.545,54.328-73.9,62.133a37.947,37.947,0,0,1-11.342,2.061Zm-9.994-21.411c-2.74,8.028-2.413,14.087.951,17.524,3.634,3.714,10.789,4.107,20.154,1.108,24.208-7.756,57.174-35.484,73.488-61.81,8.318-13.424,11.031-24.553,7.443-30.536a2.058,2.058,0,0,0-1.68-.928c-3.668-.368-10.823,4-16.26,9.957l-28.338,31.027-.279-.254.279.254a41.752,41.752,0,0,1-9.916,8.033l-45.843,25.627Z" transform="translate(-92.574 -115.841)" fill="url(#linear-gradient)"/>
    <path id="Trazado_106294" data-name="Trazado 106294" d="M121.386,249.191c-4.973,0-8.748-1.389-11.12-4.143-3.668-4.255-3.622-11.344.133-20.506l.055-.133,48.16-23.534a40.91,40.91,0,0,0,10.378-7.615l30.934-30.911c6.125-6.12,13.712-10.186,17.645-9.461a2.857,2.857,0,0,1,2.217,1.618c3.172,7.082-.526,19.164-10.147,33.15-18.637,27.094-54.091,54.132-79.035,60.275a39.062,39.062,0,0,1-9.219,1.257Zm-10.346-24.229c-3.588,8.817-3.659,15.59-.206,19.6,3.476,4.031,10.25,4.945,19.59,2.646,24.791-6.1,60.048-33.007,78.594-59.971,9.468-13.764,13.143-25.579,10.08-32.415a2.1,2.1,0,0,0-1.666-1.186c-3.652-.672-11.109,3.391-16.975,9.253L169.524,193.8l-.265-.265.265.265a41.736,41.736,0,0,1-10.579,7.759l-47.9,23.408Z" transform="translate(-82.97 -117.885)" fill="url(#linear-gradient)"/>
    <path id="Trazado_106295" data-name="Trazado 106295" d="M110.69,252.651c-5.99,0-10.419-1.728-12.978-5.112-3.709-4.9-3.177-12.745,1.538-22.675l.062-.13,50.03-20.92a40.533,40.533,0,0,0,11-7.26l.254.279-.254-.279,33.509-30.541c6.529-5.951,14.393-9.655,18.3-8.609a2.953,2.953,0,0,1,2.185,1.984c2.537,7.948-2.2,20.664-12.99,34.88-20.926,27.572-58.606,53.492-83.992,57.779a40.2,40.2,0,0,1-6.662.606ZM99.869,225.317c-4.463,9.463-5.019,17.192-1.556,21.77,3.252,4.3,9.79,5.759,18.913,4.219,25.225-4.26,62.69-30.052,83.518-57.491,10.643-14.02,15.334-26.487,12.873-34.2a2.206,2.206,0,0,0-1.661-1.485c-3.611-.967-11.344,2.74-17.6,8.437l-33.509,30.541a41.233,41.233,0,0,1-11.216,7.4L99.871,225.317Z" transform="translate(-73.5 -121.297)" fill="url(#linear-gradient)"/>
    <path id="Trazado_106296" data-name="Trazado 106296" d="M100.845,257.408c-7.258,0-12.482-2.157-15.22-6.323-3.647-5.549-2.528-14.4,3.154-24.928l.069-.128,51.661-17.914A39.513,39.513,0,0,0,152.1,201.3l36.044-29.9c6.886-5.711,14.989-9,18.842-7.649a3.125,3.125,0,0,1,2.153,2.393c1.831,8.83-3.992,22.131-15.972,36.492-23.251,27.871-63.049,52.37-88.715,54.609q-1.879.165-3.606.165ZM89.371,226.644c-5.482,10.213-6.591,18.744-3.117,24.028,3.012,4.582,9.283,6.6,18.132,5.823,25.495-2.224,65.062-26.6,88.2-54.34,11.833-14.185,17.6-27.255,15.812-35.859a2.375,2.375,0,0,0-1.664-1.835c-3.627-1.271-11.415,1.961-18.113,7.516l-36.044,29.9a40.318,40.318,0,0,1-11.822,6.952L89.373,226.644Z" transform="translate(-64.433 -126.095)" fill="url(#linear-gradient)"/>
    <path id="Trazado_106297" data-name="Trazado 106297" d="M91.717,263.532H91.7c-8.824,0-15.017-2.717-17.908-7.848-3.572-6.344-1.8-16.015,5-27.236l.078-.128,53.03-14.5a38.189,38.189,0,0,0,12.135-6.285l38.512-28.957c7.3-5.492,15.407-8.259,19.274-6.584a3.362,3.362,0,0,1,2.112,2.854c1.051,9.717-5.9,23.552-19.082,37.961-25.586,27.974-67.364,50.729-93.135,50.729ZM79.358,228.964c-6.584,10.921-8.328,20.275-4.907,26.347,2.749,4.881,8.714,7.464,17.252,7.466h.014c25.588,0,67.115-22.643,92.58-50.484,13.033-14.249,19.916-27.869,18.888-37.371a2.614,2.614,0,0,0-1.664-2.244c-3.576-1.552-11.538,1.243-18.522,6.495l-38.512,28.957-.226-.3.226.3a38.994,38.994,0,0,1-12.389,6.408l-52.74,14.425Z" transform="translate(-55.54 -132.31)" fill="url(#linear-gradient)"/>
    <path id="Trazado_106298" data-name="Trazado 106298" d="M83.674,271.178q-2.228,0-4.308-.2c-8.467-.807-14.306-4.12-16.888-9.582-3.412-7.219-.9-17.72,7.078-29.567l.087-.128,54.1-10.681a36.5,36.5,0,0,0,12.629-5.654l40.891-27.707c7.546-5.112,15.78-7.393,19.583-5.421a3.673,3.673,0,0,1,2.059,3.375c.2,10.606-7.93,24.914-22.307,39.259-26.425,26.368-66.891,46.3-92.92,46.3Zm-13.579-38.8c-7.754,11.564-10.218,21.751-6.934,28.7,2.461,5.208,8.09,8.373,16.278,9.155,25.474,2.432,68.829-18.154,96.627-45.891,14.233-14.2,22.282-28.31,22.085-38.713a2.926,2.926,0,0,0-1.652-2.722c-3.515-1.821-11.6.489-18.815,5.377l-40.891,27.707-.21-.311.21.311a37.321,37.321,0,0,1-12.905,5.768L70.1,232.383Z" transform="translate(-47.054 -140.05)" fill="url(#linear-gradient)"/>
    <path id="Trazado_106299" data-name="Trazado 106299" d="M76.871,280.3a47.4,47.4,0,0,1-9.29-.85c-8.083-1.62-13.536-5.556-15.773-11.378-3.14-8.174.2-19.5,9.411-31.878l.1-.13,54.829-6.442a34.56,34.56,0,0,0,13.065-4.923l43.151-26.128c7.848-4.751,15.972-6.467,19.766-4.171a4.062,4.062,0,0,1,1.984,3.965c-.724,11.488-10.064,26.2-25.63,40.367-26.848,24.432-65.506,41.567-91.6,41.567ZM61.724,236.774c-8.977,12.117-12.247,23.132-9.214,31.027,2.139,5.569,7.4,9.342,15.22,10.91,25.168,5.046,70.136-13.138,100.24-40.537,15.421-14.034,24.674-28.562,25.387-39.858a3.311,3.311,0,0,0-1.623-3.273c-3.5-2.123-11.488-.37-18.986,4.171L129.6,225.343a35.365,35.365,0,0,1-13.367,5.025l-54.507,6.406Z" transform="translate(-39.081 -149.195)" fill="url(#linear-gradient)"/>
    <path id="Trazado_106300" data-name="Trazado 106300" d="M71.487,291.152a49.9,49.9,0,0,1-15.051-2.068c-7.681-2.448-12.718-7.034-14.566-13.264-2.731-9.2,1.531-21.315,12-34.108l.107-.133,55.19-1.783a32.5,32.5,0,0,0,13.435-4.088L167.86,211.5c7.96-4.258,16.107-5.423,19.814-2.838a4.54,4.54,0,0,1,1.883,4.63c-1.721,12.359-12.306,27.4-29.042,41.256-26.784,22.181-63.15,36.6-89.031,36.6ZM54.34,242.32c-10.224,12.546-14.4,24.361-11.749,33.285,1.773,5.981,6.641,10.394,14.073,12.761,24.626,7.845,71-7.585,103.371-34.4,16.594-13.741,27.081-28.605,28.776-40.781a3.78,3.78,0,0,0-1.568-3.91c-3.428-2.39-11.431-1.179-19.03,2.884l-45.263,24.206-.178-.331.178.331a33.229,33.229,0,0,1-13.764,4.178l-54.849,1.771Z" transform="translate(-31.679 -159.926)" fill="url(#linear-gradient)"/>
    <path id="Trazado_106301" data-name="Trazado 106301" d="M67.728,303.727c-8.3,0-15.7-1.277-21.653-3.979-7.27-3.3-11.854-8.586-13.259-15.282-2.155-10.279,3.11-23.129,14.825-36.188l.121-.135,55.147,3.3c3.906.235,8.908-.916,13.728-3.154l47.2-21.923c8.005-3.718,16.116-4.308,19.727-1.435a5.107,5.107,0,0,1,1.744,5.384c-2.788,13.209-14.64,28.482-32.515,41.9C126.606,291.871,93,303.73,67.723,303.73ZM48.081,248.915c-11.468,12.827-16.626,25.394-14.528,35.4,1.353,6.454,5.791,11.555,12.834,14.752,23.838,10.823,71.37-1.49,105.953-27.451,17.732-13.31,29.478-28.42,32.232-41.453a4.341,4.341,0,0,0-1.476-4.639c-3.4-2.7-11.184-2.073-18.941,1.529l-47.2,21.923c-4.927,2.288-10.064,3.462-14.089,3.222l-54.783-3.277Z" transform="translate(-24.951 -172.131)" fill="url(#linear-gradient)"/>
    <path id="Trazado_106302" data-name="Trazado 106302" d="M65.691,317.925c-11.543,0-21.662-2.164-29.1-6.723-6.851-4.2-10.944-10.245-11.831-17.482-1.394-11.378,4.955-24.885,17.878-38.032l.137-.139,54.662,8.8c3.864.622,8.945-.149,13.936-2.112L160.3,242.969c8.108-3.193,15.945-3.183,19.5.025a5.792,5.792,0,0,1,1.559,6.232c-3.928,14.032-17.062,29.439-36.035,42.271-25,16.911-55.439,26.425-79.636,26.427Zm-22.65-61.57c-12.67,12.937-18.895,26.167-17.533,37.273.859,7,4.827,12.857,11.477,16.932,22.8,13.975,71.21,5.144,107.919-19.686,18.826-12.736,31.85-27.99,35.731-41.851a5.075,5.075,0,0,0-1.337-5.469c-3.346-3.021-10.869-2.975-18.719.117l-48.931,19.265c-5.112,2.013-10.336,2.8-14.331,2.155l-54.278-8.737Z" transform="translate(-18.956 -185.601)" fill="url(#linear-gradient)"/>
    <path id="Trazado_106303" data-name="Trazado 106303" d="M65.375,333.984c-15.268,0-28.527-3.4-37.289-10.448a26.22,26.22,0,0,1-10.247-19.923c-.439-12.459,7.057-26.5,21.109-39.545l.153-.142,53.7,14.708c3.791,1.04,8.913.686,14.05-.967l50.425-16.226c8.145-2.621,15.654-2.018,19.13,1.536,1.835,1.879,2.29,4.36,1.314,7.18-5.133,14.813-19.558,30.248-39.572,42.344-23.248,14.05-50.2,21.482-72.771,21.482ZM39.307,264.762c-13.792,12.85-21.148,26.631-20.716,38.825a25.493,25.493,0,0,0,9.966,19.363c21.489,17.288,70.474,12.311,109.2-11.093,19.868-12.007,34.174-27.3,39.25-41.947a5.882,5.882,0,0,0-1.14-6.408c-3.227-3.3-10.606-3.839-18.36-1.344l-50.425,16.226c-5.272,1.7-10.551,2.052-14.48.976l-53.3-14.6Z" transform="translate(-13.747 -200.447)" fill="url(#linear-gradient)"/>
    <path id="Trazado_106304" data-name="Trazado 106304" d="M66.611,326.48c-19.382,0-36.181-5.078-45.98-15.3a29.762,29.762,0,0,1-8.453-22.661c.706-13.474,9.393-27.906,24.457-40.635l.174-.146,52.228,21.02c3.682,1.481,8.808,1.586,14.064.283l51.645-12.793c7.994-1.979,15.3-.77,18.621,3.078,1.915,2.221,2.269,5.146,1,8.236-6.4,15.547-22.113,30.89-43.105,42.093-20.97,11.191-44.239,16.82-64.646,16.82ZM36.948,248.608c-14.8,12.558-23.324,26.738-24.018,39.952a29.028,29.028,0,0,0,8.245,22.1c19.9,20.751,69.119,20,109.729-1.666,20.842-11.12,36.428-26.327,42.765-41.716,1.175-2.857.875-5.434-.871-7.459-3.135-3.636-10.149-4.751-17.869-2.841l-51.645,12.793-.091-.366.091.366c-5.407,1.339-10.7,1.225-14.528-.315L36.95,248.606Z" transform="translate(-9.359 -191.124)" fill="url(#linear-gradient)"/>
    <path id="Trazado_106305" data-name="Trazado 106305" d="M68.946,304.6c-23.74,0-44.376-7.322-54.788-21.4C-.1,263.924,8.525,237.017,35.615,216.249l.194-.148,50.21,27.716c3.535,1.952,8.627,2.548,13.97,1.636l52.564-8.961c7.9-1.348,14.79.434,17.976,4.648,2.007,2.653,2.214,5.992.59,9.4-7.729,16.223-24.715,31.345-46.6,41.485A134.277,134.277,0,0,1,68.943,304.6ZM35.877,217C9.292,237.477.8,263.879,14.763,282.755c8.648,11.694,24.837,19.039,45.58,20.684,20.794,1.65,43.471-2.646,63.856-12.092,21.733-10.069,38.587-25.058,46.243-41.126,1.52-3.193,1.344-6.175-.512-8.627-2.971-3.928-9.742-5.64-17.249-4.36L100.117,246.2l-.064-.37.064.37c-5.51.939-10.78.313-14.459-1.719L35.88,217Z" transform="translate(-5.674 -166.715)" fill="url(#linear-gradient)"/>
    <path id="Trazado_106306" data-name="Trazado 106306" d="M72.3,282.338c-28.159,0-52.774-10.266-63.248-28.854-12.507-22.2-1.575-50.489,27.206-70.4l.219-.153L84.1,217.708c3.348,2.445,8.362,3.572,13.76,3.092l.034.375-.034-.375L151,216.078c7.637-.679,14.233,1.709,17.206,6.232,2.07,3.151,2.1,6.943.075,10.681-9.111,16.831-27.35,31.592-50.039,40.5A126.68,126.68,0,0,1,72.3,282.336ZM36.471,183.856C8.192,203.525-2.562,231.33,9.712,253.116c7.6,13.486,23.084,22.974,43.6,26.72,20.568,3.755,43.526,1.252,64.651-7.041,22.526-8.844,40.626-23.481,49.655-40.157,1.885-3.483,1.869-7-.041-9.909-2.822-4.292-9.148-6.55-16.511-5.9l-53.145,4.721c-5.576.5-10.777-.683-14.269-3.234L36.473,183.86Z" transform="translate(-3.038 -141.125)" fill="url(#linear-gradient)"/>
    <path id="Trazado_106307" data-name="Trazado 106307" d="M76.328,259.833A103.425,103.425,0,0,1,46.8,255.651c-20.335-6.065-35.107-17.965-41.59-33.5C-5.3,196.953,8.048,167.377,38.438,148.553l.247-.153L83.1,190.575c3.119,2.964,8.005,4.623,13.426,4.651v0l53.355-.078h.039c7.32,0,13.554,3,16.278,7.834,2.1,3.718,1.895,8-.569,12.055-10.542,17.359-30,31.615-53.38,39.111a118.08,118.08,0,0,1-35.916,5.686ZM38.584,149.346C8.695,167.976-4.439,197.086,5.9,221.859c6.4,15.327,21,27.074,41.112,33.073,20.154,6.01,43.238,5.478,65-1.5,23.209-7.441,42.516-21.578,52.966-38.784,2.315-3.812,2.512-7.825.555-11.3-2.592-4.6-8.574-7.45-15.622-7.45h-.039l-53.355.078h-.039c-5.588,0-10.654-1.769-13.906-4.856L38.584,149.348Z" transform="translate(-1.278 -114.486)" fill="url(#linear-gradient)"/>
    <path id="Trazado_106308" data-name="Trazado 106308" d="M80.058,237.288a98.739,98.739,0,0,1-39.012-7.8c-19.727-8.492-33.4-22.771-38.5-40.2C-5.732,161.037,10.147,130.3,42.049,112.8l.274-.151L82.9,162.533c2.85,3.5,7.573,5.8,12.962,6.305l53.158,4.971c7.11.665,12.837,4.2,15.323,9.454a13.439,13.439,0,0,1-1.362,13.508c-12.014,17.8-32.639,31.389-56.586,37.291a110.206,110.206,0,0,1-26.333,3.225ZM42.136,113.612c-31.4,17.35-47.02,47.642-38.875,75.465C8.3,206.29,21.824,220.4,41.341,228.8c19.548,8.417,42.587,10.026,64.87,4.532,23.767-5.859,44.232-19.338,56.143-36.981,2.786-4.125,3.25-8.659,1.3-12.766-2.372-5.014-7.873-8.387-14.713-9.027l-53.158-4.971c-5.588-.523-10.5-2.921-13.476-6.582Z" transform="translate(-0.287 -86.906)" fill="url(#linear-gradient)"/>
    <path id="Trazado_106309" data-name="Trazado 106309" d="M83.517,214.781a94.234,94.234,0,0,1-47.626-12.587C16.983,191.133,4.61,174.384,1.047,155.036-4.725,123.684,13.767,91.926,47.062,76l.3-.144,36.073,57.861a18.685,18.685,0,0,0,12.361,8.06L148.323,152.2c6.751,1.339,12.073,5.494,14.235,11.113a15.457,15.457,0,0,1-2.324,15.008c-13.52,18.132-35.253,30.895-59.626,35.018a102.413,102.413,0,0,1-17.089,1.444ZM47.085,76.829C14.288,92.648-3.9,123.981,1.788,154.9c3.522,19.128,15.769,35.694,34.483,46.643,18.735,10.963,41.538,14.886,64.212,11.052,24.185-4.091,45.743-16.749,59.148-34.725a14.722,14.722,0,0,0,2.226-14.288c-2.068-5.377-7.183-9.358-13.677-10.645L95.656,142.522a19.446,19.446,0,0,1-12.855-8.4Z" transform="translate(0 -58.524)" fill="url(#linear-gradient)"/>
    <path id="Trazado_106310" data-name="Trazado 106310" d="M86.417,192.44A90.17,90.17,0,0,1,31.2,173.876C13.333,160.112,2.469,140.817.609,119.543c-3.017-34.474,18.168-67.1,52.717-81.178l.331-.135.151.325L84.548,104.3a19.058,19.058,0,0,0,11.614,9.907h0l51.417,16.255A19.531,19.531,0,0,1,160.637,143.3a17.733,17.733,0,0,1-3.469,16.5c-15.046,18.351-37.813,30.113-62.457,32.271q-4.162.363-8.293.363ZM53.28,39.2C19.234,53.226-1.619,85.444,1.359,119.477c1.842,21.061,12.6,40.169,30.3,53.8a89.946,89.946,0,0,0,62.987,18.047c24.444-2.139,47.022-13.8,61.941-32a17,17,0,0,0,3.33-15.814,18.782,18.782,0,0,0-12.565-12.338L95.936,114.922a19.811,19.811,0,0,1-12.069-10.3Z" transform="translate(-0.25 -29.493)" fill="url(#linear-gradient)"/>
    <path id="Trazado_106311" data-name="Trazado 106311" d="M88.454,170.417A87.425,87.425,0,0,1,60.615.119L60.971,0,85.984,74.46A20.019,20.019,0,0,0,96.7,86.3l49.8,22.474a20.59,20.59,0,0,1,11.792,14.678,20.307,20.307,0,0,1-4.8,17.937A87.631,87.631,0,0,1,88.454,170.417ZM60.5.953a86.669,86.669,0,1,0,92.438,139.933,19.553,19.553,0,0,0,4.619-17.279,19.845,19.845,0,0,0-11.365-14.148l-49.8-22.474A20.782,20.782,0,0,1,85.268,74.7Z" transform="translate(-0.794)" fill="url(#linear-gradient)"/>
  </g>
</svg>
