<svg id="Grupo_32714" data-name="Grupo 32714" xmlns="http://www.w3.org/2000/svg" xmlns:xlink="http://www.w3.org/1999/xlink" width="129.173" height="42.199" viewBox="0 0 129.173 42.199">
  <defs>
    <linearGradient id="linear-gradient" x1="0.5" y1="0.146" x2="0.5" y2="0.716" gradientUnits="objectBoundingBox">
      <stop offset="0" stop-color="#eb4e16"/>
      <stop offset="0.955" stop-color="#f57b0f"/>
      <stop offset="0.993" stop-color="#f67d0f"/>
    </linearGradient>
    <linearGradient id="linear-gradient-2" x1="0.5" y1="-0.159" x2="0.5" y2="0.615" xlink:href="#linear-gradient"/>
    <linearGradient id="linear-gradient-4" x1="0.5" y1="0.365" x2="0.5" y2="1.196" gradientUnits="objectBoundingBox">
      <stop offset="0" stop-color="#edeeed"/>
      <stop offset="1" stop-color="#96989c"/>
    </linearGradient>
    <linearGradient id="linear-gradient-5" y1="0.367" y2="1.183" xlink:href="#linear-gradient-4"/>
    <linearGradient id="linear-gradient-6" y1="0.369" y2="1.19" xlink:href="#linear-gradient-4"/>
  </defs>
  <g id="Grupo_14522" data-name="Grupo 14522" transform="translate(13.419 33.45)">
    <g id="Grupo_14521" data-name="Grupo 14521">
      <path id="Trazado_18058" data-name="Trazado 18058" d="M41.236,81.59V76.514h.991l.15.735a2.157,2.157,0,0,1,1.639-.735,1.332,1.332,0,0,1,1.31.7,2.425,2.425,0,0,1,1.629-.7q1.75,0,1.75,1.929V81.59H47.423V78.4q0-.847-.764-.847a1.574,1.574,0,0,0-1.1.513V81.59H44.281V78.409q0-.861-.706-.861a1.471,1.471,0,0,0-1.059.513V81.59Z" transform="translate(-41.236 -74.678)" fill="#f67d0f"/>
      <path id="Trazado_18059" data-name="Trazado 18059" d="M55.792,79.041a2.239,2.239,0,0,1,2.513-2.552,2.55,2.55,0,0,1,0,5.1A2.242,2.242,0,0,1,55.792,79.041Zm2.513,1.571q1.233,0,1.233-1.591,0-1.552-1.233-1.551t-1.233,1.551Q57.073,80.612,58.305,80.612Z" transform="translate(-47.753 -74.666)" fill="#f67d0f"/>
      <path id="Trazado_18060" data-name="Trazado 18060" d="M64.834,76.514h1.354l1.233,3.548L68.7,76.514h1.353L67.99,81.59H66.773Z" transform="translate(-51.801 -74.678)" fill="#f67d0f"/>
      <path id="Trazado_18061" data-name="Trazado 18061" d="M75.944,73.189V74.2H74.663V73.189Zm0,1.836V80.1H74.663V75.025Z" transform="translate(-56.202 -73.189)" fill="#f67d0f"/>
      <path id="Trazado_18062" data-name="Trazado 18062" d="M80.4,76.514a2.064,2.064,0,0,1,2.311,2.359,4.543,4.543,0,0,1-.044.628H79.3q0,1.073,1.576,1.073a8.276,8.276,0,0,0,1.537-.145v1.015a7.873,7.873,0,0,1-1.634.145q-2.76,0-2.76-2.6Q78.016,76.514,80.4,76.514Zm-1.1,2.1h2.165v-.039A.936.936,0,0,0,80.4,77.52Q79.384,77.52,79.3,78.612Z" transform="translate(-57.703 -74.678)" fill="#f67d0f"/>
      <path id="Trazado_18063" data-name="Trazado 18063" d="M87.344,81.309V80.246a5.233,5.233,0,0,0,1.952.338q.827,0,.827-.532,0-.508-.556-.507h-.918A1.357,1.357,0,0,1,87.1,78.022q0-1.595,2.257-1.595a5.522,5.522,0,0,1,1.8.29v1.064a4.906,4.906,0,0,0-1.837-.339q-1.039,0-1.039.532,0,.508.6.508h.822Q91.4,78.481,91.4,80q0,1.595-2.156,1.595A5.85,5.85,0,0,1,87.344,81.309Z" transform="translate(-61.771 -74.639)" fill="#f67d0f"/>
      <path id="Trazado_18064" data-name="Trazado 18064" d="M102.93,76.514h1.354l1.233,3.548,1.281-3.548h1.353l-2.064,5.076h-1.218Z" transform="translate(-68.858 -74.678)" fill="#f67d0f"/>
      <path id="Trazado_18065" data-name="Trazado 18065" d="M114.041,73.189V74.2H112.76V73.189Zm0,1.836V80.1H112.76V75.025Z" transform="translate(-73.259 -73.189)" fill="#f67d0f"/>
      <path id="Trazado_18066" data-name="Trazado 18066" d="M120.85,79.8a8.978,8.978,0,0,1-2.277.3q-2.46,0-2.46-2.639a2.141,2.141,0,0,1,2.407-2.437,2.542,2.542,0,0,1,1.049.242V73.189h1.281Zm-1.281-3.446a1.774,1.774,0,0,0-1-.261q-1.194,0-1.194,1.339,0,1.591,1.243,1.59a3.136,3.136,0,0,0,.947-.14Z" transform="translate(-74.76 -73.189)" fill="#f67d0f"/>
      <path id="Trazado_18067" data-name="Trazado 18067" d="M128.107,76.514a2.064,2.064,0,0,1,2.31,2.359,4.624,4.624,0,0,1-.043.628H127q0,1.073,1.576,1.073a8.281,8.281,0,0,0,1.538-.145v1.015a7.876,7.876,0,0,1-1.634.145q-2.76,0-2.76-2.6Q125.724,76.514,128.107,76.514Zm-1.1,2.1h2.165v-.039a.935.935,0,0,0-1.063-1.054Q127.092,77.52,127,78.612Z" transform="translate(-79.063 -74.678)" fill="#f67d0f"/>
      <path id="Trazado_18068" data-name="Trazado 18068" d="M134.81,79.041a2.514,2.514,0,1,1,2.513,2.547A2.238,2.238,0,0,1,134.81,79.041Zm2.513,1.571q1.234,0,1.233-1.591,0-1.552-1.233-1.551t-1.232,1.551Q136.091,80.612,137.323,80.612Z" transform="translate(-83.131 -74.666)" fill="#f67d0f"/>
      <path id="Trazado_18069" data-name="Trazado 18069" d="M152.627,81.309V80.246a5.234,5.234,0,0,0,1.953.338q.827,0,.826-.532,0-.508-.556-.507h-.918a1.357,1.357,0,0,1-1.546-1.523q0-1.595,2.257-1.595a5.521,5.521,0,0,1,1.8.29v1.064a4.906,4.906,0,0,0-1.837-.339q-1.039,0-1.039.532,0,.508.6.508H155q1.692,0,1.692,1.523,0,1.595-2.156,1.595A5.853,5.853,0,0,1,152.627,81.309Z" transform="translate(-91 -74.639)" fill="#f67d0f"/>
      <path id="Trazado_18070" data-name="Trazado 18070" d="M160.945,75.027h.948l.193.821h1.276v1.016h-1.136V79.2q0,.71.614.711h.522v1.015h-1.141q-1.276,0-1.276-1.368Z" transform="translate(-94.832 -74.012)" fill="#f67d0f"/>
      <path id="Trazado_18071" data-name="Trazado 18071" d="M166.18,81.59V76.514h.991l.16.648a2.013,2.013,0,0,1,1.412-.648v1.034a1.727,1.727,0,0,0-1.281.595V81.59Z" transform="translate(-97.176 -74.678)" fill="#f67d0f"/>
      <path id="Trazado_18072" data-name="Trazado 18072" d="M173.361,76.514a2.064,2.064,0,0,1,2.311,2.359,4.548,4.548,0,0,1-.044.628h-3.369q0,1.073,1.576,1.073a8.282,8.282,0,0,0,1.538-.145v1.015a7.879,7.879,0,0,1-1.634.145q-2.76,0-2.76-2.6Q170.978,76.514,173.361,76.514Zm-1.1,2.1h2.166v-.039a.936.936,0,0,0-1.064-1.054Q172.346,77.52,172.259,78.612Z" transform="translate(-99.324 -74.678)" fill="#f67d0f"/>
      <path id="Trazado_18073" data-name="Trazado 18073" d="M180.064,80.009q0-1.514,2.2-1.513a5.609,5.609,0,0,1,1.034.1v-.382q0-.682-.981-.682a8.026,8.026,0,0,0-1.847.241V76.756a8.029,8.029,0,0,1,1.847-.242q2.262,0,2.262,1.673v3.4h-.744l-.455-.455a2.526,2.526,0,0,1-1.46.455Q180.063,81.59,180.064,80.009Zm2.2-.643q-.924,0-.923.628,0,.678.773.677a1.976,1.976,0,0,0,1.185-.4v-.812A5.308,5.308,0,0,0,182.268,79.367Z" transform="translate(-103.392 -74.678)" fill="#f67d0f"/>
      <path id="Trazado_18074" data-name="Trazado 18074" d="M189.718,81.59V76.514h.991l.15.735a2.157,2.157,0,0,1,1.639-.735,1.332,1.332,0,0,1,1.31.7,2.423,2.423,0,0,1,1.629-.7q1.75,0,1.75,1.929V81.59h-1.281V78.4q0-.847-.764-.847a1.573,1.573,0,0,0-1.1.513V81.59h-1.281V78.409q0-.861-.705-.861a1.471,1.471,0,0,0-1.059.513V81.59Z" transform="translate(-107.714 -74.678)" fill="#f67d0f"/>
      <path id="Trazado_18075" data-name="Trazado 18075" d="M205.992,73.189V74.2h-1.281V73.189Zm0,1.836V80.1h-1.281V75.025Z" transform="translate(-114.427 -73.189)" fill="#f67d0f"/>
      <path id="Trazado_18076" data-name="Trazado 18076" d="M208.5,81.59V76.514h.991l.16.744a2.271,2.271,0,0,1,1.663-.744q1.8,0,1.8,1.876v3.2h-1.281v-3.2a.742.742,0,0,0-.836-.842,1.888,1.888,0,0,0-1.218.5V81.59Z" transform="translate(-116.124 -74.678)" fill="#f67d0f"/>
      <path id="Trazado_18077" data-name="Trazado 18077" d="M222.665,81.2q0,2.223-2.674,2.223a5.247,5.247,0,0,1-1.662-.242V82.17a5.366,5.366,0,0,0,1.672.241q1.383,0,1.382-1.16a3.112,3.112,0,0,1-1.228.242q-2.262,0-2.262-2.47,0-2.508,2.634-2.509a13.367,13.367,0,0,1,2.137.208Zm-1.281-3.538a2.689,2.689,0,0,0-.894-.117q-1.33,0-1.329,1.465,0,1.417,1.145,1.417a2.409,2.409,0,0,0,1.078-.261Z" transform="translate(-120.329 -74.678)" fill="#f67d0f"/>
    </g>
    <rect id="Rect치ngulo_47" data-name="Rect치ngulo 47" width="0.395" height="6.216" transform="translate(31.675 0.814)" fill="#fff"/>
    <rect id="Rect치ngulo_48" data-name="Rect치ngulo 48" width="0.395" height="6.216" transform="translate(58.81 0.814)" fill="#fff"/>
  </g>
  <g id="Grupo_14524" data-name="Grupo 14524">
    <g id="Grupo_14523" data-name="Grupo 14523" transform="translate(70.225)">
      <path id="Trazado_18078" data-name="Trazado 18078" d="M144.093,39.535V12.622h4.987V22.3a7.765,7.765,0,0,1,5.966-2.522q7.02,0,7.02,7.3V39.535h-4.988V27.076q0-3.275-3.256-3.274a7.349,7.349,0,0,0-4.742,1.939V39.535Z" transform="translate(-144.093 -12.622)" fill="url(#linear-gradient)"/>
      <path id="Trazado_18079" data-name="Trazado 18079" d="M198.753,25.455V45.28h-3.9l-.6-2.522a11.943,11.943,0,0,1-7.227,2.522q-6.06,0-6.06-7.17V25.455h4.987V37.978q0,3.275,2.861,3.274a8.156,8.156,0,0,0,4.95-1.939V25.455Z" transform="translate(-160.603 -18.368)" fill="url(#linear-gradient-2)"/>
      <path id="Trazado_18080" data-name="Trazado 18080" d="M217.5,12.622h4.988v8.657a8.742,8.742,0,0,1,4.987-1.506q8.431,0,8.431,9.485,0,10.276-9.654,10.276a51.6,51.6,0,0,1-8.751-.809Zm4.988,22.339a13.087,13.087,0,0,0,3.971.546q4.517,0,4.517-6.38,0-5.212-3.9-5.213a10.275,10.275,0,0,0-4.592,1.016Z" transform="translate(-176.96 -12.622)" fill="url(#linear-gradient)"/>
    </g>
    <path id="Trazado_18081" data-name="Trazado 18081" d="M81.99,39.269l-4.8-13.814h-5.27l7.547,19.761h4.743l8.036-19.761h-5.27Z" transform="translate(-41.556 -18.368)" fill="url(#linear-gradient-4)"/>
    <path id="Trazado_18082" data-name="Trazado 18082" d="M119.669,33.113h-3.2a3.082,3.082,0,0,1-1.507-.317,1.74,1.74,0,0,1-.845-1.659,1.72,1.72,0,0,1,1.213-1.647,7.52,7.52,0,0,1,2.833-.424,19.165,19.165,0,0,1,6.931,1.231c.073.028.147.057.22.087v-4.14a21.484,21.484,0,0,0-7.02-1.129,15.793,15.793,0,0,0-4.4.536,7.258,7.258,0,0,0-2.283,1.087,4.892,4.892,0,0,0-1.575,1.923,5.545,5.545,0,0,0-.394,1.24,7.387,7.387,0,0,0-.131,1.425,9.235,9.235,0,0,0,.154,1.744,5.345,5.345,0,0,0,.921,2.207,4.451,4.451,0,0,0,1.972,1.483,6.661,6.661,0,0,0,1.494.392,9.989,9.989,0,0,0,1.482.1H119.1a2.908,2.908,0,0,1,1.188.213,1.516,1.516,0,0,1,.732.658,2.262,2.262,0,0,1,.244,1.1,1.784,1.784,0,0,1-.436,1.244,2.457,2.457,0,0,1-1.308.683,6.657,6.657,0,0,1-1.473.144q-1.2,0-2.32-.1a20.87,20.87,0,0,1-2.671-.413,17.05,17.05,0,0,1-2.613-.8v4.14a22.785,22.785,0,0,0,7.415,1.129q8.394,0,8.394-6.21a8.9,8.9,0,0,0-.1-1.4,5.955,5.955,0,0,0-.491-1.632,4.51,4.51,0,0,0-2.018-2.088A8.476,8.476,0,0,0,119.669,33.113Z" transform="translate(-58.383 -18.215)" fill="url(#linear-gradient-5)"/>
    <path id="Trazado_18083" data-name="Trazado 18083" d="M32.041,28.2l.066-.074a9.479,9.479,0,0,1,2.839-2.213,7.788,7.788,0,0,1,3.391-.8,8.37,8.37,0,0,1,6.191,2.832,8.991,8.991,0,0,1,2.563,6.339V45.128H42.162V34.285c0-2.346-1.774-4.425-3.825-4.425-2.129,0-3.864,2.036-3.864,4.425V45.128H29.557V34.285c0-2.39-1.735-4.425-3.864-4.425-2.05,0-3.825,2.08-3.825,4.425V45.128H16.939V34.285A8.994,8.994,0,0,1,19.5,27.946a8.37,8.37,0,0,1,6.191-2.832,7.788,7.788,0,0,1,3.391.8,9.488,9.488,0,0,1,2.839,2.213l.066.074.026.028Z" transform="translate(-16.939 -18.215)" fill="url(#linear-gradient-6)"/>
  </g>
</svg>
